<svg width="149" height="149" viewBox="0 0 149 149" fill="none" xmlns="http://www.w3.org/2000/svg">
<g clip-path="url(#clip0_1128_440)">
<path d="M141.653 10.4205L72.2014 4.94612C68.6506 4.66623 65.5341 7.32729 65.2542 10.8779L62.5064 45.739C60.5496 45.336 58.5469 45.0487 56.5048 44.8877C29.8589 42.7874 6.47184 62.7569 4.37152 89.4028C2.2712 116.049 22.2407 139.436 48.8867 141.536C75.5329 143.637 98.9199 123.667 101.02 97.0213C102.859 74.0452 88.1343 53.1986 66.4834 46.7376L69.285 11.1956C69.3897 9.86741 70.5556 8.87189 71.884 8.9766L141.336 14.451C142.664 14.5557 143.659 15.7216 143.555 17.0498L138.08 86.5014C137.976 87.8296 136.81 88.8251 135.482 88.7204L108.531 86.5961C107.418 86.5084 106.445 87.3396 106.357 88.4525C106.269 89.5654 107.1 90.5388 108.213 90.6266L135.164 92.7509C138.714 93.0308 141.831 90.3697 142.111 86.8191L147.585 17.3675C147.865 13.8169 145.204 10.7004 141.653 10.4205ZM49.2043 137.506C24.7808 135.581 6.47682 114.144 8.40197 89.7208C10.3271 65.2972 31.7633 46.9933 56.1871 48.9184C58.2327 49.0797 60.2343 49.381 62.1858 49.8063L59.7798 80.3295C59.5 83.8801 62.161 86.9966 65.7119 87.2765L96.9934 89.7422C97.1709 92.0251 97.1752 94.3503 96.9898 96.7036C95.0646 121.127 73.6282 139.431 49.2043 137.506ZM96.4822 85.6464L66.0296 83.246C64.7014 83.1413 63.7056 81.9754 63.8103 80.6472L66.1578 50.865C81.9249 55.8762 93.6708 69.3888 96.4822 85.6464Z" fill="#FABD0C" fill-opacity="0.25"/>
<path d="M23.8966 34.6676L38.0247 35.7812C40.3928 35.9679 42.4712 34.1932 42.6578 31.8254L43.7715 17.6973C43.9581 15.3293 42.1834 13.2508 39.8154 13.0642L25.6872 11.9506C23.3195 11.7639 21.2411 13.5386 21.0544 15.9067L19.9408 30.0348C19.7541 32.4026 21.5288 34.481 23.8966 34.6676ZM25.0849 16.2241C25.0964 16.0784 25.2239 15.9693 25.3696 15.9808L39.4977 17.0944C39.6433 17.1059 39.7525 17.2337 39.741 17.3793L38.6274 31.5075C38.6159 31.6531 38.4881 31.762 38.3425 31.7505L24.2143 30.6369C24.0687 30.6254 23.9598 30.4976 23.9713 30.3522L25.0849 16.2241Z" fill="#FABD0C" fill-opacity="0.25"/>
<path d="M116.993 111.701C110.271 111.171 104.371 116.209 103.841 122.931C103.476 127.563 105.718 131.938 109.691 134.351C110.645 134.931 111.889 134.626 112.469 133.672C113.048 132.718 112.744 131.475 111.79 130.895C109.129 129.279 107.627 126.349 107.872 123.248C108.226 118.749 112.176 115.377 116.675 115.731C121.175 116.086 124.547 120.035 124.192 124.535C123.946 127.659 121.897 130.406 118.971 131.534C117.93 131.936 117.411 133.106 117.813 134.147C118.102 134.898 118.79 135.377 119.541 135.436C119.833 135.459 120.135 135.419 120.426 135.306C124.795 133.622 127.855 129.518 128.223 124.852C128.753 118.131 123.715 112.231 116.993 111.701Z" fill="#FABD0C" fill-opacity="0.25"/>
</g>
<defs>
<clipPath id="clip0_1128_440">
<rect width="138" height="138" fill="white" transform="translate(10.9629 0.118652) rotate(4.50692)"/>
</clipPath>
</defs>
</svg>
