<svg width="250" height="70" viewBox="0 0 250 70" fill="none" xmlns="http://www.w3.org/2000/svg">
<g clip-path="url(#clip0_1128_261)">
<path d="M108.67 50.871L118.03 66.7358H112.45L103.82 51.4992H103V66.7358H98.44V29.5002H103.78C107.77 29.5002 110.66 30.424 112.43 32.2716C114.39 34.3287 115.37 37.0508 115.37 40.4258C115.37 43.0617 114.76 45.3281 113.53 47.225C112.3 49.1219 110.68 50.3413 108.67 50.871V50.871ZM103 46.5968H104.45C108.77 46.5968 110.93 44.5645 110.93 40.4997C110.93 36.6936 108.83 34.7844 104.63 34.7844H103V46.5968ZM145.67 34.7844H133.55V43.7269H145.32V49.011H133.55V61.4517H145.67V66.7358H128.99V29.5002H145.67V34.7844ZM166.42 34.7844V66.7358H161.86V34.7844H154.91V29.5002H173.35V34.7844H166.42ZM199.95 57.6948H187.01L183.64 66.7358H178.73L193.69 27.1599L208.12 66.7358H203.13L199.95 57.6948ZM198.09 52.4107L193.61 39.7483L188.91 52.4107H198.09ZM222.87 29.5002V66.7358H218.31V29.5002H222.87ZM241.11 29.5002V61.4517H250V66.7358H236.55V29.5002H241.11Z" fill="#7D807E"/>
<path d="M42.46 15.3845L37.68 0H21.77L0 70H15.2L18.17 59.407L18.66 57.6579H40.78L41.28 59.407L42.46 63.6073L44.25 69.9877V70H59.44V69.9877L42.46 15.3845ZM22.37 44.6384L23.36 41.1772L27.74 25.9159L29.72 18.9935L31.71 25.9159L36.08 41.1772L37.07 44.6384H22.37Z" fill="#7D807E"/>
<path d="M42.46 63.6073V69.9877H44.25L42.46 63.6073Z" fill="#7D807E"/>
<path d="M42.46 15.3845V69.9877H59.44L42.46 15.3845ZM90.75 21.6541C89.3 17.4415 87.27 13.7093 84.73 10.5314C82.19 7.36583 79.19 4.8038 75.81 2.90692C72.39 0.985395 68.69 0 64.81 0H42.46V8.14183L61.7 69.9877H64.82C68.75 69.9877 72.47 69.0146 75.89 67.0931C79.27 65.1839 82.27 62.6095 84.81 59.407C87.36 56.2045 89.37 52.46 90.8 48.2474C92.23 44.0595 92.96 39.5513 92.96 35.0062C92.95 30.3748 92.21 25.8789 90.75 21.6541V21.6541ZM74.18 41.7192C73.57 43.7023 72.67 45.4267 71.53 46.8679C70.37 48.309 68.93 49.4422 67.23 50.2798C65.52 51.1174 63.53 51.5485 61.29 51.5485H59.65V18.4515H61.29C63.47 18.4515 65.44 18.8703 67.15 19.7079C68.84 20.5332 70.29 21.691 71.44 23.1198C72.6 24.561 73.5 26.3224 74.14 28.3301C74.78 30.3748 75.11 32.6166 75.11 34.9938C75.12 37.4204 74.8 39.6868 74.18 41.7192V41.7192Z" fill="#7D807E"/>
</g>
<defs>
<clipPath id="clip0_1128_261">
<rect width="250" height="70" fill="white"/>
</clipPath>
</defs>
</svg>
