<svg width="250" height="70" viewBox="0 0 250 70" fill="none" xmlns="http://www.w3.org/2000/svg">
<g clip-path="url(#clip0_1128_256)">
<path d="M46.7298 41.4155C46.7298 41.4155 40.7541 40.2073 43.0018 31.2805H43.2485C43.2485 31.2805 43.4541 37.3669 46.8943 36.6906C47.2985 37.3701 47.5041 38.2177 47.474 39.0797C47.4438 39.9416 47.1798 40.7608 46.7298 41.3885V41.4155ZM46.0925 46.2576C46.0246 46.1303 45.996 45.9737 46.0126 45.8197C46.0291 45.6657 46.0895 45.5257 46.1816 45.4281C46.1816 45.4281 46.8669 44.9141 44.3861 43.3812C44.3861 43.3812 47.1821 44.2829 47.4836 45.7256C47.7851 47.1683 46.8394 47.529 46.113 46.2576H46.0925ZM56.5294 32.7322L56.2622 32.642C56.2622 32.642 55.2616 38.1604 52.3012 37.8358V37.5923C52.5211 36.484 52.5952 35.3342 52.5205 34.1929C52.3218 31.9026 50.3276 29.946 49.094 29.0353C47.9907 28.2057 48.5595 25.7441 44.297 24.7071C46.8737 10.0546 33.8258 9.95539 33.8258 9.95539C20.0104 9.11681 16.8307 0.0367432 16.8307 0.0367432L16.4606 0.46054C16.4606 0.46054 16.954 12.8769 28.9397 17.0878C26.6807 17.2549 24.4188 16.8344 22.2835 15.8504C20.1481 14.8664 18.181 13.3381 16.4949 11.353L16.2071 11.7317C16.2071 11.7317 17.8312 23.2103 28.5423 26.3212C28.5423 26.3212 20.8396 26.9614 17.4817 21.1544L17.0979 21.6594C17.0979 21.6594 19.5718 31.4698 29.1796 34.8241C29.1796 34.8241 36.7177 37.5292 34.2918 50.5407L34.5248 50.7841L26.1849 44.9412L26.041 46.3388L21.3536 42.4164C21.6154 41.9485 21.8448 41.4505 22.0389 40.9286L19.983 40.072C15.5355 50.3694 8.14808 42.5967 8.14808 42.5967C7.33992 43.6606 6.36092 44.4728 5.28297 44.9737C4.20502 45.4746 3.05549 45.6514 1.91881 45.4912C6.18815 44.4542 7.40111 41.1991 7.40111 41.1991L7.4902 40.8384C8.04204 41.0674 8.61796 41.18 9.19657 41.1721C12.4174 41.1721 12.9794 36.6636 12.9794 36.6636C13.2923 35.4429 13.8506 34.3566 14.5951 33.5199C15.3396 32.6832 16.2424 32.1275 17.2076 31.9117C17.7627 31.7764 19.565 31.5239 19.565 31.5239L19.3868 31.2083C19.3868 31.2083 17.8586 27.6647 10.8618 25.7441C10.8618 25.7441 5.17393 24.5178 2.71374 20.388L2.46018 20.8298C2.7599 21.3468 3.08984 21.8322 3.447 22.2816C6.60811 26.0244 10.5046 28.5238 14.6926 29.4951L15.3093 29.6123C11.8281 30.6763 11.0811 37.2677 11.0811 37.2677C10.3958 41.0819 7.65467 39.1974 7.65467 39.1974L6.98994 38.8096C6.98994 38.8096 5.30413 44.9412 0.822346 44.2198L0 46.7355C1.39154 47.1243 2.83024 47.1162 4.2192 46.7118C5.60816 46.3074 6.91515 45.516 8.05214 44.3911C15.0078 49.4767 18.9414 46.0232 20.7711 43.3181L26.9044 48.3496L27.0552 47.2495L38.0198 56.3566C38.4189 57.3056 38.7493 58.3018 39.0066 59.3322L39.9523 57.9616L45.7773 62.7947V58.674L41.5559 55.6984L42.995 53.6245L44.0092 52.1727L46.6339 53.3269L47.6481 52.8039C47.9619 51.3497 48.3724 49.9345 48.8748 48.575L49.9712 47.1864C50.2021 46.7766 50.4105 46.3457 50.5948 45.8969L51.1019 45.7978L51.6639 42.6599C53.4045 42.3713 57.3107 40.8565 56.5089 32.7412" fill="#7D807E"/>
<path d="M72.5994 69.9993L69.0291 65.8606V64.6072H72.4555V61.6136H68.1314V69.9993H66.2948V59.684H73.6274C73.7222 59.6836 73.816 59.709 73.9029 59.7588C73.9899 59.8086 74.068 59.8815 74.1324 59.973C74.1968 60.0646 74.2461 60.1727 74.2771 60.2905C74.3081 60.4084 74.3202 60.5335 74.3127 60.6578V65.3917C74.3127 65.6308 74.2405 65.8602 74.1119 66.0293C73.9834 66.1984 73.8091 66.2934 73.6274 66.2934H71.6606L74.8609 69.9002V69.9993H72.5994ZM86.175 69.9993H79.1576C79.06 70.0062 78.9624 69.9855 78.8713 69.9386C78.7803 69.8917 78.6979 69.8197 78.6298 69.7275C78.5616 69.6352 78.5092 69.5249 78.4762 69.4038C78.4431 69.2827 78.4301 69.1537 78.4381 69.0255V59.684H80.2952V68.0156H85.0237V59.684H86.8808V69.0255C86.8886 69.1522 86.876 69.2795 86.8437 69.3993C86.8115 69.5191 86.7603 69.6285 86.6937 69.7205C86.6271 69.8124 86.5464 69.8848 86.457 69.9328C86.3676 69.9809 86.2715 70.0036 86.175 69.9993V69.9993ZM97.2561 69.9993L92.5071 62.912V69.9993H90.6499V59.684H92.4728L97.2218 66.5639V59.684H99.1201V69.9993H97.2561ZM120.755 69.9993H118.939L116.787 62.6776L114.635 69.9993H112.826L109.66 59.684H111.64L113.778 66.8975L115.889 59.684H117.685L119.809 66.8975L121.94 59.684H123.921L120.755 69.9993ZM127.683 69.9993V59.684H129.54V69.9993H127.683ZM138.476 61.6677V69.9993H136.633V61.6677H133.309V59.684H141.8V61.6677H138.476ZM151.983 69.9993V65.9057H147.248V69.9993H145.398V59.684H147.248V63.8047H151.983V59.684H153.84V69.9993H151.983ZM169.602 61.6677V69.9993H167.752V61.6677H164.428V59.684H172.926V61.6677H169.602ZM183.047 69.9993V65.9057H178.319V69.9993H176.462V59.684H178.319V63.8047H183.047V59.684H184.904V69.9993H183.047ZM188.667 69.9993V59.684H196.28V61.6677H190.524V63.8408H195.102V65.6442H190.524V67.9705H196.362V69.9543L188.667 69.9993ZM214.461 69.9993H206.868V59.684H214.406C214.501 59.6836 214.595 59.709 214.682 59.7588C214.769 59.8086 214.847 59.8815 214.911 59.973C214.976 60.0646 215.025 60.1727 215.056 60.2905C215.087 60.4084 215.099 60.5335 215.091 60.6578V63.0202C215.103 63.2082 215.07 63.3963 214.996 63.5581C214.922 63.7199 214.812 63.8471 214.68 63.9219L213.604 64.7244L214.756 65.536C214.888 65.6093 215 65.736 215.075 65.8978C215.151 66.0597 215.185 66.2486 215.174 66.4377V69.0706C215.177 69.1944 215.16 69.3176 215.125 69.4326C215.09 69.5476 215.038 69.6519 214.971 69.7391C214.904 69.8262 214.824 69.8943 214.737 69.9391C214.649 69.9838 214.555 70.0044 214.461 69.9993V69.9993ZM213.227 61.5324H208.725V63.9129H212.097L213.227 63.0112V61.5324ZM213.31 66.4196L212.097 65.5179H208.725V68.1689H213.31V66.4196ZM226.584 69.9993H219.566C219.469 70.0062 219.371 69.9855 219.28 69.9386C219.189 69.8917 219.107 69.8197 219.038 69.7275C218.97 69.6352 218.918 69.5249 218.885 69.4038C218.852 69.2827 218.839 69.1537 218.847 69.0255V59.684H220.704V68.0156H225.432V59.684H227.269V69.0255C227.277 69.1499 227.264 69.2749 227.233 69.3928C227.202 69.5106 227.153 69.6188 227.089 69.7103C227.024 69.8018 226.946 69.8747 226.859 69.9245C226.772 69.9743 226.678 69.9997 226.584 69.9993ZM231.052 69.9993V59.684H232.909V68.0156H238.172V69.9993H231.052ZM241.201 69.9993V59.684H243.031V68.0156H248.294V69.9993H241.201ZM248.252 25.5909C247.897 25.6016 247.547 25.4728 247.248 25.2208C246.948 24.9688 246.713 24.6052 246.571 24.1762C246.429 23.7472 246.388 23.2724 246.452 22.8124C246.517 22.3524 246.684 21.928 246.932 21.5934C247.18 21.2588 247.499 21.0293 247.847 20.934C248.195 20.8387 248.557 20.882 248.886 21.0585C249.215 21.2349 249.497 21.5364 249.695 21.9245C249.894 22.3126 250 22.7697 250 23.2374C250.009 23.5452 249.971 23.8523 249.887 24.1398C249.803 24.4273 249.675 24.6893 249.512 24.9096C249.348 25.1299 249.152 25.304 248.935 25.4211C248.719 25.5383 248.487 25.596 248.252 25.5909V25.5909ZM248.252 21.2988C247.956 21.2698 247.659 21.3591 247.402 21.5552C247.144 21.7512 246.937 22.0448 246.809 22.3977C246.68 22.7507 246.635 23.1465 246.679 23.5335C246.724 23.9206 246.856 24.281 247.059 24.5677C247.262 24.8543 247.525 25.054 247.816 25.1406C248.106 25.2271 248.409 25.1966 248.686 25.053C248.963 24.9094 249.2 24.6594 249.367 24.3355C249.535 24.0116 249.624 23.629 249.623 23.2374C249.637 22.9895 249.612 22.7404 249.55 22.5057C249.487 22.2711 249.389 22.0559 249.26 21.8739C249.131 21.6918 248.975 21.5468 248.802 21.4478C248.629 21.3488 248.441 21.2981 248.252 21.2988ZM247.903 24.59H247.581V21.9841H248.328C248.801 21.9841 249.013 22.2005 249.013 22.7235C249.024 22.8179 249.019 22.9142 248.999 23.0059C248.979 23.0976 248.944 23.1824 248.896 23.2545C248.849 23.3265 248.79 23.3841 248.724 23.4232C248.657 23.4623 248.585 23.482 248.513 23.4809L249.061 24.6351H248.698L248.211 23.4809H247.903V24.59ZM248.266 23.1112C248.506 23.1112 248.725 23.1112 248.725 22.6964C248.725 22.2817 248.492 22.3448 248.294 22.3448H247.903V23.1112H248.266Z" fill="#7D807E"/>
<path fill-rule="evenodd" clip-rule="evenodd" d="M209.561 24.7973C204.764 24.7522 203.764 30.5501 203.887 34.175C204.031 38.4219 205.216 43.3452 209.561 43.1919C213.611 43.0837 215.002 38.4219 215.002 33.9676C215.002 30.3608 214.098 24.7973 209.561 24.7522V24.7973ZM209.321 20.3069C215.119 20.3069 222.486 23.2464 222.486 33.9676C222.486 45.2117 214.454 47.6373 209.465 47.6373C203.181 47.6373 196.445 44.0305 196.445 33.9676C196.445 22.9308 203.866 20.3069 209.369 20.3069H209.321ZM137.716 25.4556V32.074H140.923C141.643 32.0984 142.341 31.7489 142.867 31.1009C143.393 30.4529 143.704 29.5587 143.732 28.6115C143.751 28.1718 143.696 27.7321 143.571 27.3234C143.447 26.9147 143.255 26.5469 143.011 26.246C142.767 25.9451 142.475 25.7184 142.157 25.5818C141.839 25.4453 141.502 25.4021 141.169 25.4556H137.716ZM128.3 21.0012H144.747C148.002 21.0012 150.695 23.6432 150.695 27.9713C150.695 31.8305 148.927 32.9216 145.617 34.4545C150.352 33.7331 148.666 44.1116 152.826 42.6238V47.0061H144.74C144.089 44.5535 142.636 36.871 140.669 36.853H137.681V42.6329H140.045V47.0061H128.279V42.6329H130.643V25.5007H128.3V21.0012ZM233.169 25.4556V32.074H236.363C237.083 32.0984 237.781 31.7489 238.307 31.1009C238.833 30.4529 239.144 29.5587 239.172 28.6115C239.172 27.1778 238.569 25.4285 236.603 25.4556H233.169ZM223.753 21.0012H240.235C243.49 21.0012 246.183 23.6432 246.183 27.9713C246.183 31.8305 244.415 32.9216 241.105 34.4545C245.84 33.7331 244.154 44.1116 248.314 42.6238V47.0061H240.187C239.543 44.5535 238.09 36.871 236.123 36.853H233.135V42.6329H235.492V47.0061H223.733V42.6329H226.097V25.5007H223.753V21.0012Z" fill="#7D807E"/>
<path d="M78.9932 20.9922L83.3036 39.7384L87.573 21.0012H100.052V25.5187H97.7015V42.6329H100.066V46.9971H89.3205V42.6329H91.4586V26.0777L86.0516 46.9971H79.5962L73.9974 26.0687L73.9906 42.6329H76.1218L76.1355 46.9971H66.2879V42.6329H68.6522V25.5187H66.2879V21.0012L78.9932 20.9922V20.9922ZM102.862 21.0012H125.497V28.864H120.008V25.5277L112.257 25.5187V31.8125H114.327V28.864H118.486V38.5031H114.327V35.8792H112.257V42.6329H119.898V38.5031H125.497V46.9971H102.841V42.6329H105.205V25.5367L102.862 25.5277V21.0012V21.0012ZM155.478 21.0012H168.053V25.5187H165.209V42.6329L168.053 42.6509V46.9971H155.478V42.6419H158.315V25.5187H155.478V21.0012ZM170.678 21.0012H194.752V30.46H189.146V25.5277H186.124V42.6329H188.955V46.9971H176.475V42.6329H179.306V25.5277H176.284V30.46H170.678V21.0012V21.0012Z" fill="#7D807E"/>
</g>
<defs>
<clipPath id="clip0_1128_256">
<rect width="250" height="70" fill="white"/>
</clipPath>
</defs>
</svg>
