<svg width="250" height="70" viewBox="0 0 250 70" fill="none" xmlns="http://www.w3.org/2000/svg">
<g clip-path="url(#clip0_1128_266)">
<path d="M58.2551 20.3777L67.5609 2.17773V68.1333H58.2551V20.3777ZM64.4322 27.3777H79.6744V43.5555H67.5609L64.4322 27.3777V27.3777ZM64.9938 51.8H79.7547V68.2888H67.5609L64.9938 51.8V51.8ZM65.2344 19.2888L67.5609 2.17773H88.3384L79.514 19.2888H65.2344ZM82.4822 20.3777L91.7078 2.33329V68.2888H82.4822V20.3777ZM97.2431 51.8C99.3289 51.8 101.094 50.2444 102.618 47.1333C104.142 44.0222 104.944 40.2888 104.944 35.9333C104.944 31.4222 104.062 27.3777 102.377 24.1111C100.693 20.8444 98.6069 19.1333 96.2002 19.1333H91.7078L91.788 2.17773H95.6387C100.612 2.17773 104.864 5.4444 108.474 11.9777C112.084 18.5111 113.929 26.4444 113.929 35.9333C113.929 44.8 112.405 52.4222 109.357 58.7999C106.308 65.0222 102.458 68.2888 97.8849 68.2888H93.5529V51.8H97.2431V51.8ZM143.451 43.4C143.451 50.4 142.087 56.3111 139.44 61.4444C136.712 66.5777 133.504 69.0666 129.733 69.0666C126.043 69.0666 122.834 66.5777 120.187 61.5999C117.539 56.6222 116.176 50.5555 116.176 43.5555V20.3777L125.481 2.33329V43.5555C125.481 45.8888 125.963 47.7555 126.845 49.3111C127.728 50.8666 128.77 51.6444 129.894 51.6444C131.017 51.6444 132.06 50.8666 132.942 49.3111C133.824 47.7555 134.306 45.8888 134.306 43.5555V2.17773H143.451V43.4ZM155.404 19.2888V68.1333H146.098V2.17773L155.404 19.2888ZM155.404 51.8H167.518V68.2888H155.404V51.8ZM185.167 68.1333H175.861V2.17773L185.167 20.3777V68.1333ZM150.511 2.17773H162.384L177.144 30.8V54.9111L150.511 2.17773ZM188.616 19.2888L179.792 2.17773H212.041L203.377 19.2888H188.616ZM200.89 68.1333H191.584V2.17773L200.89 19.2888V68.1333ZM206.666 20.3777L215.972 2.17773V68.1333H206.666V20.3777ZM239.076 51.8V68.2888H234.824C230.332 68.2888 226.481 65.1777 223.433 58.7999C220.384 52.4222 218.78 44.8 218.78 36.0888C218.78 26.7555 220.545 18.8222 224.074 12.2888C227.604 5.75551 231.936 2.48885 236.99 2.48885H249.906L241.082 19.4444H236.589C234.182 19.4444 232.097 21 230.332 24.2666C228.567 27.5333 227.684 31.4222 227.684 36.0888C227.684 40.2888 228.406 44.0222 229.931 47.1333C231.455 50.2444 233.22 51.9555 235.306 51.9555L239.076 51.8Z" fill="#7D807E"/>
<path d="M52.9604 0V19.7556H50.5538V7.77778L24.4013 58.4889L16.0582 42.3111L1.77866 70L0.0939941 66.5778L16.0582 35.6222L24.4013 51.8L48.7087 4.66667H42.7722V0H52.9604ZM16.6198 50.2444L8.19644 66.7333L9.88111 70L18.3847 53.5111L16.6198 50.2444V50.2444ZM47.9867 23.0222L25.4442 66.7333L27.1289 70L49.6713 26.2889L47.9867 23.0222V23.0222ZM34.2687 66.7333L35.9533 70L52.5593 37.8L50.8747 34.5333L34.2687 66.7333V66.7333ZM43.1733 66.7333L44.858 70L52.3187 55.5333L50.634 52.2667L43.1733 66.7333V66.7333ZM16.9407 66.5778L18.6253 69.8444L22.3958 62.5333L20.7111 59.2667L16.9407 66.5778Z" fill="#7D807E"/>
</g>
<defs>
<clipPath id="clip0_1128_266">
<rect width="250" height="70" fill="white"/>
</clipPath>
</defs>
</svg>
