<svg width="250" height="65" viewBox="0 0 250 65" fill="none" xmlns="http://www.w3.org/2000/svg">
<path fill-rule="evenodd" clip-rule="evenodd" d="M93.3568 41.8323H106.891C107.362 41.8323 107.715 42.2832 107.598 42.7368L107.01 45.9028C106.944 46.1258 106.805 46.3228 106.615 46.4652C106.425 46.6076 106.192 46.6879 105.951 46.6946H83.7064C83.3529 46.6946 82.9995 46.4664 82.9995 45.9028L88.2955 18.7674C88.4142 18.2024 88.885 17.9756 89.3544 17.9756H97.0043C97.4765 17.9756 97.9459 18.4278 97.8285 18.8801L93.3568 41.8323V41.8323ZM124.426 34.2576L122.896 41.8323H137.137C137.606 41.8323 137.961 42.2832 137.844 42.7368L137.254 45.9028C137.137 46.3537 136.668 46.8073 136.196 46.6946H113.363C113.01 46.6946 112.539 46.4664 112.656 45.9028L117.835 18.8801C117.952 18.4278 118.306 17.9756 119.011 17.9756H141.607C142.08 17.9756 142.314 18.4278 142.197 18.7674L141.607 21.8206C141.607 22.1602 141.255 22.7252 140.666 22.7252H126.544L125.25 29.6221H137.372C137.727 29.6221 138.196 29.8489 138.079 30.4139L137.489 33.4671C137.489 33.8053 137.137 34.259 136.43 34.259H124.426V34.2576V34.2576ZM164.204 39.5722H153.26L149.257 46.0169C149.023 46.4678 148.436 46.8087 147.846 46.696H143.023C142.433 46.8087 142.316 46.2423 142.433 45.9042L159.616 18.7688C160.085 18.0897 160.323 17.9769 161.265 17.9769H166.44C166.913 17.9769 167.382 18.3165 167.499 18.7688L174.915 45.9042C174.915 46.2423 174.797 46.696 174.208 46.696H166.913C166.323 46.696 165.854 46.2423 165.854 45.9042L164.204 39.5722V39.5722ZM163.262 35.8399L161.027 26.7957L155.496 35.8399H163.262V35.8399ZM185.272 19.2197C185.389 18.4278 185.859 18.2024 186.448 18.0883C187.976 17.9756 193.038 17.8615 196.333 17.8615C199.863 17.8615 211.749 17.8615 210.221 26.7943C209.279 32.6726 204.925 33.5785 201.747 34.2576L208.455 46.0155C208.572 46.241 208.572 46.6946 207.868 46.6946H200.453C199.863 46.6946 199.277 46.4664 199.039 46.0155L193.863 35.6145C193.626 35.2763 193.391 35.1635 193.156 35.1635H191.508L189.51 45.9028C189.39 46.3537 189.038 46.6946 188.451 46.6946H180.919C180.329 46.6946 180.095 46.3537 180.212 45.9028L185.272 19.2197V19.2197ZM192.215 31.9962C194.215 32.1089 200.572 32.223 201.513 27.0211C202.452 22.0461 197.983 21.7065 195.51 21.7065C195.276 21.7065 194.806 21.7065 194.099 21.8206L192.215 31.9962ZM85.8242 55.1738C83.941 55.1738 82.294 56.642 81.8232 58.9034C81.3524 61.5057 82.5301 63.3148 84.7653 63.3148C85.5895 63.3148 86.295 63.0866 87.1192 62.7485C87.3553 62.523 87.4727 62.523 87.7073 62.523C87.8261 62.523 87.9435 62.6357 87.9435 62.8612C87.8261 63.3148 86.2964 64.3321 84.2959 64.3321C80.7657 64.3321 79.5881 61.9553 80.0588 59.2443C80.5296 56.9829 82.4128 54.2693 86.0603 54.2693C88.4142 54.2693 89.4732 55.512 89.3558 56.1911C89.3558 56.642 88.885 56.8675 88.5316 56.8675C88.4104 56.8698 88.2909 56.8394 88.1869 56.7796C88.0829 56.7198 87.9985 56.633 87.9435 56.5293C87.7059 56.0784 87.2366 55.1738 85.8242 55.1738V55.1738ZM100.888 64.3321C98.0632 64.3321 96.2974 62.2976 96.887 59.3571C97.3578 56.8675 99.3583 54.2693 102.888 54.2693C106.067 54.2693 107.243 56.6434 107.008 59.0189C106.537 61.9566 103.949 64.3321 100.888 64.3321ZM102.654 55.1738C102.183 55.1738 101.595 55.2865 101.124 55.512C99.5944 56.1911 98.7701 57.6593 98.534 59.2443C98.4167 59.808 98.4167 60.2616 98.4167 60.5998C98.4167 62.4089 99.7117 63.4276 101.124 63.4276C101.948 63.4276 103.125 62.9739 103.949 62.0694C104.89 61.0548 105.126 59.808 105.361 59.0189C105.832 55.8502 103.831 55.1738 102.654 55.1738V55.1738ZM116.776 54.8356C116.893 54.6074 116.893 54.6074 117.129 54.4947H119.601C120.425 54.4947 121.718 54.4947 122.425 55.0611C122.661 55.1738 123.367 55.8502 123.132 57.0957C122.896 58.5638 121.72 59.3571 119.837 59.6952L122.191 63.8785C122.308 63.9912 122.191 64.1067 121.955 64.1067H120.777C120.542 64.1067 120.542 64.1067 120.423 63.8785L118.54 60.2616C118.423 60.0334 118.187 59.808 117.718 59.808H117.364L116.54 63.7657C116.54 63.9912 116.421 64.1067 116.186 64.1067H115.246C115.129 64.1067 115.012 64.1067 115.012 63.8785L116.776 54.8356V54.8356ZM117.483 59.1316H118.778C120.309 59.0189 121.249 58.3398 121.485 57.2098C121.839 55.1752 119.956 55.1752 119.249 55.1752C118.778 55.1752 118.542 55.1752 118.19 55.2879L117.483 59.1316ZM165.381 54.8356C165.381 54.6074 165.381 54.6074 165.619 54.4947H168.09C168.916 54.4947 170.208 54.4947 171.031 55.0611C171.151 55.1738 171.855 55.8502 171.62 57.0957C171.386 58.5638 170.21 59.3571 168.325 59.6952L170.679 63.8785C170.796 63.9912 170.679 64.1067 170.562 64.1067H169.385C169.151 64.1067 169.033 64.1067 168.916 63.8785L167.033 60.2616C166.915 60.0334 166.678 59.808 166.326 59.808H165.857L165.15 63.7657C165.032 63.9912 165.032 64.1067 164.798 64.1067H163.856C163.621 64.1067 163.504 64.1067 163.621 63.8785L165.381 54.8356V54.8356ZM165.971 59.1316H167.265C168.793 59.0189 169.736 58.3398 169.973 57.2098C170.325 55.1752 168.442 55.1752 167.735 55.1752C167.266 55.1752 167.031 55.1752 166.797 55.2879L165.971 59.1316ZM133.252 54.7202V54.6074C133.372 54.4947 135.018 54.4947 136.078 54.4947C136.902 54.4947 138.313 54.4947 139.139 55.1738C139.374 55.512 139.846 56.0784 139.608 57.2084C139.608 57.5466 139.374 58.3384 138.432 59.0175C137.491 59.6939 136.197 60.032 134.667 60.032H133.726L133.019 63.8771C132.901 64.1053 132.901 64.1053 132.667 64.1053H131.725C131.491 64.1053 131.373 64.1053 131.491 63.8771L133.252 54.7202V54.7202ZM133.842 59.2443H134.666C135.725 59.2443 137.727 59.1316 138.079 57.2098C138.431 55.1752 136.313 55.1752 135.607 55.1752C135.135 55.1752 134.901 55.2879 134.666 55.2879L133.842 59.2443V59.2443ZM149.964 64.3321C147.138 64.3321 145.258 62.2976 145.845 59.3571C146.314 56.8675 148.436 54.2693 151.965 54.2693C155.143 54.2693 156.319 56.6434 155.967 59.0189C155.614 61.9566 153.025 64.3321 149.964 64.3321ZM151.732 55.1738C151.142 55.1738 150.673 55.2865 150.2 55.512C148.555 56.1911 147.846 57.6593 147.494 59.2443C147.377 59.808 147.377 60.2616 147.377 60.5998C147.494 62.4089 148.671 63.4276 150.083 63.4276C151.025 63.4276 152.084 62.9739 153.027 62.0694C153.968 61.0548 154.203 59.808 154.32 59.0189C154.908 55.8502 152.908 55.1738 151.732 55.1738V55.1738ZM185.034 60.8266H181.269L179.269 63.8798C179.152 64.108 179.152 64.1081 178.917 64.1081H178.093L177.975 63.9926C178.093 63.8798 183.975 54.7215 183.975 54.7215C184.096 54.6088 184.096 54.4961 184.33 54.4961H184.917C185.034 54.4961 185.034 54.6088 185.155 54.7215C185.155 54.7215 187.508 63.8798 187.508 63.9926C187.508 63.9926 187.508 64.1081 187.391 64.1081H186.095C185.977 64.1081 185.86 64.1081 185.86 63.9926L185.034 60.8266V60.8266ZM184.917 60.0334L184.096 56.3038L181.74 60.0334H184.917ZM199.746 55.3993L198.098 63.8785C197.983 64.1067 197.983 64.1067 197.863 64.1067H196.687C196.569 64.1067 196.452 64.1067 196.569 63.8785L198.218 55.3993H195.392C195.157 55.3993 195.157 55.2865 195.157 55.1738C195.274 54.6074 195.274 54.4947 195.626 54.4947H202.69C202.924 54.4947 202.924 54.6074 202.807 55.1738C202.807 55.2865 202.69 55.3993 202.452 55.3993H199.746V55.3993ZM211.398 63.8785C211.398 63.9912 211.281 64.1067 211.164 64.1067H209.988C209.867 64.1067 209.75 63.9912 209.867 63.8785L211.633 54.7202C211.633 54.4947 211.75 54.4947 211.985 54.4947H212.927C213.161 54.4947 213.161 54.6074 213.161 54.7202L211.398 63.8785ZM225.873 64.3321C222.932 64.3321 221.166 62.2976 221.753 59.3571C222.225 56.8675 224.227 54.2693 227.756 54.2693C230.934 54.2693 232.228 56.6434 231.876 59.0189C231.403 61.9566 228.816 64.3321 225.873 64.3321ZM227.521 55.1738C227.049 55.1738 226.462 55.2865 225.99 55.512C224.462 56.1911 223.636 57.6593 223.401 59.2443C223.284 59.808 223.284 60.2616 223.284 60.5998C223.401 62.4089 224.578 63.4276 225.99 63.4276C226.932 63.4276 227.99 62.9739 228.816 62.0694C229.758 61.0548 230.11 59.808 230.227 59.0189C230.699 55.8502 228.699 55.1738 227.521 55.1738V55.1738ZM247.41 61.8439L248.704 54.7202C248.821 54.6074 248.821 54.4947 248.941 54.4947H249.763C250 54.4947 250 54.6074 250 54.7202L248.117 63.9912C248.117 64.1067 248.117 64.1067 248 64.1067H247.175C247.175 64.1067 247.058 64.1067 247.058 63.9912L242.114 56.4165L240.703 63.9912C240.586 64.1067 240.586 64.1067 240.468 64.1067H239.527C239.41 64.1067 239.41 64.1067 239.41 63.8785L241.172 54.7202C241.293 54.6074 241.293 54.4947 241.527 54.4947H242.586C242.704 54.4947 242.704 54.6074 242.704 54.7202L247.41 61.8439V61.8439Z" fill="#7D807E"/>
<path fill-rule="evenodd" clip-rule="evenodd" d="M39.809 0C21.4497 0 3.79595 14.3588 0.501872 32.1091C-2.6763 49.748 9.56417 64.2195 28.0408 64.2195C37.4565 64.2195 46.5188 60.4872 53.6965 54.4948H22.626C22.0379 54.6076 21.4498 54.0439 21.5671 53.2521L30.0398 9.27103C30.2759 8.4792 30.9814 7.9142 31.6869 8.02692H44.162C44.9862 7.91282 45.6917 8.70466 45.457 9.49649L38.1605 46.6947H60.9916C64.1683 42.2833 66.4049 37.311 67.3465 32.1091C70.6434 14.3588 58.2856 0 39.809 0Z" fill="#7D807E"/>
</svg>
