<svg width="24" height="25" viewBox="0 0 24 25" fill="none" xmlns="http://www.w3.org/2000/svg">
<path d="M20.1857 13.851C22.3315 7.89558 17.6111 1.25885 11.2653 1.37003C1.15837 1.53313 -1.77429 14.9962 7.31584 19.3612C9.12294 20.2039 11.2195 20.4429 13.1694 20.0298C13.9376 21.7316 15.6473 22.9211 17.6327 22.9211C22.5921 22.8721 24.35 16.4227 20.1857 13.851ZM2.32653 10.7986C2.32653 5.86979 6.33649 1.85983 11.2653 1.85983C17.2477 1.75795 21.7185 7.97762 19.7495 13.613C18.7048 13.0896 17.3432 12.9757 16.2115 13.337C15.3835 12.7776 14.2922 12.5207 13.2098 12.3412C13.2137 12.1862 13.116 12.0623 12.9612 12.0598H12.4523V11.7062C13.3472 11.1415 13.8793 10.1033 14.1568 9.13305C14.9074 9.25966 15.3558 8.31362 14.7103 7.89044C14.8158 5.78848 14.0667 3.87632 11.2653 3.90252C7.88792 3.90252 7.85829 6.85868 7.85804 7.87354C7.16229 8.26783 7.59722 9.25868 8.37257 9.13305C8.6493 10.1122 9.17902 11.1483 10.0785 11.7101V12.0596H9.56914C9.41486 12.062 9.3169 12.1855 9.32057 12.3397C6.28163 12.8504 4.91926 13.6678 4.77845 16.9438C3.21551 15.2932 2.32702 13.0825 2.32702 10.7981L2.32653 10.7986ZM11.4034 14.8267H11.1264L10.9202 14.2259L11.2648 14.0511L11.6094 14.2262L11.4034 14.8267ZM7.49584 17.0207C7.37045 17.0099 7.24702 17.1214 7.24261 17.2568L7.18971 18.7473C6.48343 18.3848 5.82612 17.9313 5.23298 17.3881C5.39853 14.3736 5.91992 13.4166 9.336 12.8347C9.38326 13.2625 9.53388 13.8782 9.9742 14.477C10.0217 14.5416 10.0959 14.5766 10.1718 14.5766C10.2524 14.5852 10.4079 14.4804 10.4794 14.45L10.6971 15.0843C10.6232 15.4073 10.3391 16.8251 10.258 19.6813C9.36343 19.5789 8.49551 19.3441 7.67167 18.9819L7.73216 17.2739C7.73706 17.1388 7.63102 17.0254 7.49584 17.0207ZM14.3422 8.28007C14.6398 8.29378 14.558 8.67142 14.2746 8.64889C14.3011 8.52227 14.3238 8.39909 14.3422 8.28007ZM12.7597 6.44309C12.6958 6.22954 12.3725 6.2217 12.2988 6.43232C11.8296 7.62032 9.516 7.19738 8.3498 7.56154C8.37453 6.39974 8.62873 4.39256 11.2646 4.39256C13.5637 4.36146 14.2817 5.79632 14.2217 7.65264C13.6903 7.37811 12.9091 6.89248 12.7594 6.44334L12.7597 6.44309ZM8.01992 8.36628C8.04735 8.30211 8.11592 8.2884 8.18816 8.28007C8.20628 8.39983 8.22808 8.52276 8.25429 8.64938C8.07502 8.65403 7.95012 8.52399 8.01992 8.36628ZM9.90098 7.85027C10.93 7.77485 11.989 7.69721 12.5297 7.00978C12.8731 7.43958 13.4611 7.80325 13.8828 8.02832C13.2132 12.7769 9.27428 12.734 8.64318 7.99648C9.02547 7.91517 9.46751 7.88162 9.90098 7.85003V7.85027ZM11.2384 12.1149C11.4935 12.1071 11.7407 12.0304 11.9623 11.9508V12.4561C11.7948 12.7024 11.5161 13.0681 11.2648 13.385C11.0138 13.0683 10.7353 12.7029 10.5678 12.4566V11.9513C10.776 12.0292 10.9971 12.0882 11.2384 12.1149ZM10.8852 13.6948L10.2527 14.0161C9.88751 13.4357 9.81649 12.8543 9.80767 12.5501H10.0477C10.2309 12.8587 10.6337 13.3781 10.8852 13.6948ZM11.6449 13.6948C11.8964 13.3781 12.2993 12.8584 12.4824 12.5499H12.7232C12.7153 12.8531 12.6455 13.4325 12.2777 14.0161L11.6449 13.6948ZM10.7469 19.7217C10.8174 17.1944 11.0537 15.7894 11.149 15.3167H11.4049C11.545 15.7551 11.9211 17.1503 12.036 19.7009C11.6087 19.7388 11.1796 19.7447 10.7469 19.7217ZM12.5231 19.6441C12.3945 16.8415 11.9623 15.4206 11.8389 15.0682L12.0509 14.4503C12.2113 14.5345 12.4112 14.6685 12.5559 14.477C12.9962 13.8784 13.1469 13.263 13.1941 12.8352C14.0664 12.9824 14.9356 13.1824 15.6318 13.5574C13.4331 14.4824 12.1511 17.2343 12.9882 19.5669C12.8363 19.5963 12.6816 19.6218 12.5231 19.6441ZM17.6329 22.4313C15.2023 22.4313 13.2247 20.4537 13.2247 18.0231C13.4669 12.1752 21.7996 12.1769 22.0411 18.0231C22.0411 20.4537 20.0635 22.4313 17.6329 22.4313Z" fill="#1DBF73"/>
<path d="M19.6599 15.8035C19.5642 15.7078 19.4094 15.7078 19.3136 15.8035L16.9643 18.1528L15.9514 17.1399C15.8557 17.0442 15.7009 17.0442 15.6051 17.1399L14.8144 17.9307C14.7186 18.0264 14.7186 18.1812 14.8144 18.277L16.7909 20.2535C16.8387 20.3013 16.9014 20.3253 16.9641 20.3253C17.0268 20.3253 17.0895 20.3013 17.1372 20.2535L20.4502 16.9406C20.546 16.8448 20.546 16.69 20.4502 16.5943L19.6594 15.8035H19.6599ZM16.9643 19.7341L15.334 18.1038L15.7783 17.6596L16.7912 18.6725C16.8869 18.7682 17.0417 18.7682 17.1375 18.6725L19.4868 16.3232L19.931 16.7674L16.9643 19.7341Z" fill="#1DBF73"/>
</svg>
