<svg width="24" height="25" viewBox="0 0 24 25" fill="none" xmlns="http://www.w3.org/2000/svg">
<path d="M16.814 9.30835H18.6973L17.1925 12.7318" stroke="#1DBF73" stroke-width="0.75" stroke-miterlimit="10" stroke-linecap="round" stroke-linejoin="round"/>
<path d="M13.2853 11.7213H11.1355C11.1355 11.7213 12.2737 9.65823 12.4616 9.42777C12.6515 9.19473 12.8314 9.34008 12.8485 9.54564C12.8657 9.75119 12.8399 12.7317 12.8399 12.7317" stroke="#1DBF73" stroke-width="0.75" stroke-miterlimit="10" stroke-linecap="round" stroke-linejoin="round"/>
<path d="M10.5788 12.7575C10.5788 12.7575 8.91324 12.7784 8.83432 12.7521C8.75545 12.7258 8.9608 12.5869 10.0528 11.0266C10.2568 10.7352 10.3691 10.4894 10.4168 10.2834L10.4337 10.151C10.4337 9.66722 10.0415 9.27502 9.55775 9.27502C9.13203 9.27502 8.77726 9.57869 8.69823 9.98123" stroke="#1DBF73" stroke-width="0.75" stroke-miterlimit="10" stroke-linecap="round" stroke-linejoin="round"/>
<path d="M15.6421 9.30884L14.2672 12.7657" stroke="#1DBF73" stroke-width="0.75" stroke-miterlimit="10" stroke-linecap="round" stroke-linejoin="round"/>
<path d="M2.67836 13.0677C2.21156 12.0176 1.92069 10.9116 2.01912 9.87134C2.04363 9.61259 2.16343 9.3721 2.34721 9.18836L3.86356 7.67201C4.29745 7.23812 5.01536 7.29036 5.38184 7.78251L7.09461 10.0593C7.27763 10.3027 7.25082 10.6442 7.03199 10.856L5.92253 11.9297C5.78631 12.0615 5.76055 12.2704 5.86067 12.4314V12.4314C7.3373 14.8055 9.34005 16.8082 11.7141 18.2848C11.875 18.3849 12.084 18.3592 12.2158 18.223L13.2895 17.1135C13.5012 16.8947 13.8428 16.8679 14.0861 17.0509L16.363 18.7637C16.8551 19.1302 16.9073 19.8481 16.4735 20.2819L14.9571 21.7983C14.7667 21.9886 14.5152 22.1053 14.247 22.1289C10.5927 22.4507 6.14377 18.0018 6.14377 18.0018C6.14377 18.0018 4.52554 16.3835 3.31156 14.2973" stroke="#1DBF73" stroke-width="0.75" stroke-miterlimit="10" stroke-linecap="round" stroke-linejoin="round"/>
<path d="M8.10818 5.41265C11.0623 2.7645 15.6064 2.86008 18.4458 5.69941C21.384 8.6377 21.384 13.4016 18.4458 16.3398C17.6267 17.1589 16.6659 17.7496 15.6422 18.112" stroke="#1DBF73" stroke-width="0.75" stroke-miterlimit="10" stroke-linecap="round" stroke-linejoin="round"/>
<path d="M6.02397 8.52908C6.29142 7.76493 6.68583 7.0353 7.20724 6.37305" stroke="#1DBF73" stroke-width="0.75" stroke-miterlimit="10" stroke-linecap="round" stroke-linejoin="round"/>
<path d="M19.8042 5.17542C22.8608 8.66139 22.7263 13.9697 19.4007 17.2953C18.6132 18.0828 17.7144 18.6914 16.7549 19.1211" stroke="#1DBF73" stroke-width="0.75" stroke-miterlimit="10" stroke-linecap="round" stroke-linejoin="round"/>
<path d="M5.02994 7.37751C5.45924 6.42302 6.06588 5.52881 6.84987 4.74482C10.1374 1.45727 15.3626 1.28822 18.8494 4.23773" stroke="#1DBF73" stroke-width="0.75" stroke-miterlimit="10" stroke-linecap="round" stroke-linejoin="round"/>
</svg>
