<svg width="24" height="25" viewBox="0 0 24 25" fill="none" xmlns="http://www.w3.org/2000/svg">
<g clip-path="url(#clip0_1128_410)">
<path d="M18.9851 7.92786L16.6001 5.54286C16.551 5.49331 16.489 5.45846 16.4211 5.44222C16.3533 5.42598 16.2822 5.429 16.216 5.45094C16.1497 5.47288 16.0909 5.51287 16.0462 5.5664C16.0014 5.61994 15.9725 5.6849 15.9626 5.75398C15.9232 6.02973 15.8078 6.28904 15.6292 6.50288C15.4507 6.71671 15.2162 6.87662 14.952 6.96469C14.6877 7.05275 14.4041 7.06549 14.133 7.00149C13.862 6.93748 13.614 6.79925 13.4171 6.60229C13.2201 6.40532 13.0819 6.1574 13.0179 5.88631C12.9539 5.61522 12.9666 5.33165 13.0547 5.06739C13.1427 4.80313 13.3026 4.56861 13.5165 4.39011C13.7303 4.2116 13.9896 4.09617 14.2654 4.05673C14.3345 4.04688 14.3994 4.01795 14.453 3.97319C14.5065 3.92843 14.5465 3.86963 14.5684 3.80338C14.5904 3.73714 14.5934 3.66609 14.5771 3.59823C14.5609 3.53036 14.526 3.46837 14.4765 3.41923L12.0915 1.03423C12.0212 0.963932 11.9258 0.924438 11.8264 0.924438C11.7269 0.924438 11.6316 0.963932 11.5612 1.03423L9.49012 3.10461C9.38815 2.72293 9.18747 2.37483 8.90827 2.09531C8.62908 1.8158 8.28121 1.61472 7.89964 1.51231C7.51808 1.40989 7.11628 1.40975 6.73464 1.51189C6.35301 1.61404 6.00499 1.81487 5.7256 2.09418C5.4462 2.3735 5.24528 2.72146 5.14303 3.10307C5.04079 3.48468 5.04082 3.88648 5.14313 4.26807C5.24544 4.64966 5.44642 4.99759 5.72586 5.27686C6.0053 5.55613 6.35335 5.7569 6.735 5.85898L4.66612 7.92786C4.59582 7.99818 4.55633 8.09355 4.55633 8.19298C4.55633 8.29242 4.59582 8.38779 4.66612 8.45811L6.73575 10.5304C6.28142 10.6524 5.87678 10.9138 5.57872 11.2777C5.28066 11.6417 5.10417 12.0899 5.07408 12.5594C5.04399 13.0289 5.16181 13.496 5.41097 13.895C5.66013 14.294 6.0281 14.6049 6.46312 14.784L5.5875 17.3096C5.47118 17.5717 5.41651 17.8569 5.42769 18.1434C5.43887 18.4299 5.51561 18.71 5.652 18.9622L6.96825 22.0747C6.97312 22.0867 6.97875 22.0984 6.98512 22.1096C7.07731 22.2786 7.12542 22.468 7.125 22.6605V23.0205C7.125 23.1199 7.16451 23.2153 7.23483 23.2856C7.30516 23.356 7.40054 23.3955 7.5 23.3955C7.59945 23.3955 7.69484 23.356 7.76516 23.2856C7.83549 23.2153 7.875 23.1199 7.875 23.0205V22.6605C7.8746 22.3485 7.79732 22.0415 7.65 21.7665L6.33337 18.654C6.32815 18.6411 6.32214 18.6286 6.31537 18.6165C6.22943 18.4596 6.18165 18.2847 6.17592 18.1059C6.17018 17.9271 6.20665 17.7495 6.28237 17.5875L7.19962 14.9475C7.239 14.9475 7.27762 14.9531 7.31737 14.9531C7.81231 14.9535 8.29352 14.7905 8.68624 14.4892C9.07895 14.188 9.36115 13.7655 9.489 13.2874L10.125 13.9207V17.7705C10.125 17.8699 10.1645 17.9653 10.2348 18.0356C10.3052 18.106 10.4005 18.1455 10.5 18.1455C10.5995 18.1455 10.6948 18.106 10.7652 18.0356C10.8355 17.9653 10.875 17.8699 10.875 17.7705V12.5205C10.875 12.2221 10.9935 11.936 11.2045 11.725C11.4155 11.514 11.7016 11.3955 12 11.3955C12.2984 11.3955 12.5845 11.514 12.7955 11.725C13.0065 11.936 13.125 12.2221 13.125 12.5205V17.0621C13.1257 17.586 13.2476 18.1026 13.4812 18.5715L13.6185 18.8467C13.8 19.2114 13.8944 19.6132 13.8944 20.0205C13.8944 20.4278 13.8 20.8296 13.6185 21.1942L13.2435 21.9442C13.1656 22.1006 13.1251 22.2728 13.125 22.4475V23.0205C13.125 23.1199 13.1645 23.2153 13.2348 23.2856C13.3052 23.356 13.4005 23.3955 13.5 23.3955C13.5995 23.3955 13.6948 23.356 13.7652 23.2856C13.8355 23.2153 13.875 23.1199 13.875 23.0205V22.4475C13.8746 22.3895 13.8874 22.3322 13.9125 22.2799L14.2875 21.5299C14.5207 21.061 14.6421 20.5444 14.6421 20.0207C14.6421 19.497 14.5207 18.9804 14.2875 18.5115L14.1502 18.2362C14.0158 17.9662 13.9287 17.6751 13.8926 17.3756C14.1362 17.62 14.4257 17.8139 14.7444 17.946C15.0632 18.0782 15.4049 18.1459 15.75 18.1455C16.0484 18.1455 16.3345 18.027 16.5455 17.816C16.7565 17.605 16.875 17.3189 16.875 17.0205V14.883C17.359 14.7632 17.7894 14.4859 18.0986 14.0948C18.4078 13.7036 18.5781 13.2207 18.5828 12.7221C18.5874 12.2236 18.4262 11.7376 18.1245 11.3407C17.8227 10.9438 17.3975 10.6584 16.9159 10.5296L18.9851 8.45736C19.0552 8.38707 19.0945 8.29186 19.0945 8.19261C19.0945 8.09336 19.0552 7.99815 18.9851 7.92786ZM15.75 17.3955C15.2529 17.3949 14.7763 17.1972 14.4248 16.8457C14.0733 16.4941 13.8756 16.0176 13.875 15.5205V13.5705L14.1615 13.284C14.2797 13.7281 14.5314 14.1252 14.8825 14.4216C15.2337 14.718 15.6674 14.8995 16.125 14.9415V17.0205C16.125 17.1199 16.0855 17.2153 16.0152 17.2856C15.9448 17.356 15.8495 17.3955 15.75 17.3955ZM15.8036 10.5829C15.7473 10.6385 15.7101 10.7105 15.6972 10.7886C15.6844 10.8667 15.6966 10.9468 15.732 11.0176C15.7675 11.0883 15.8244 11.146 15.8946 11.1825C15.9649 11.2189 16.0449 11.2321 16.1231 11.2204C16.4347 11.1763 16.7522 11.2313 17.0308 11.3776C17.3094 11.5239 17.5349 11.7541 17.6754 12.0356C17.8159 12.3171 17.8644 12.6357 17.8139 12.9463C17.7634 13.2569 17.6165 13.5437 17.394 13.7662C17.1715 13.9887 16.8847 14.1356 16.5741 14.1861C16.2635 14.2366 15.9449 14.1882 15.6634 14.0476C15.3818 13.9071 15.1516 13.6816 15.0053 13.403C14.859 13.1244 14.804 12.8069 14.8481 12.4954C14.8599 12.4171 14.8466 12.3371 14.8102 12.2669C14.7738 12.1966 14.7161 12.1397 14.6453 12.1042C14.5746 12.0688 14.4944 12.0566 14.4163 12.0695C14.3383 12.0823 14.2663 12.1196 14.2106 12.1759L13.875 12.5122C13.8745 12.266 13.8254 12.0223 13.7307 11.795C13.636 11.5677 13.4974 11.3613 13.3229 11.1876C13.1484 11.0139 12.9414 10.8762 12.7137 10.7825C12.486 10.6888 12.2421 10.6408 11.9959 10.6414C11.7496 10.6419 11.5059 10.6909 11.2787 10.7857C11.0514 10.8804 10.845 11.019 10.6713 11.1935C10.3204 11.5459 10.1239 12.0232 10.125 12.5205V12.8602L9.43762 12.1729C9.38199 12.1166 9.30998 12.0793 9.2319 12.0665C9.15381 12.0536 9.07366 12.0658 9.00292 12.1012C8.93217 12.1367 8.87446 12.1936 8.83803 12.2639C8.8016 12.3341 8.78833 12.4141 8.80012 12.4924C8.84422 12.8039 8.78922 13.1214 8.64291 13.4C8.49661 13.6786 8.2664 13.9041 7.98487 14.0446C7.70334 14.1852 7.38475 14.2336 7.07417 14.1831C6.76359 14.1326 6.47676 13.9857 6.25426 13.7632C6.03177 13.5407 5.88487 13.2539 5.83437 12.9433C5.78387 12.6327 5.83231 12.3141 5.97285 12.0326C6.11338 11.7511 6.33889 11.5209 6.61747 11.3746C6.89604 11.2283 7.21357 11.1733 7.52512 11.2174C7.60341 11.2292 7.68344 11.2161 7.75377 11.1797C7.82409 11.1433 7.88109 11.0856 7.9166 11.0148C7.95211 10.944 7.96431 10.8638 7.95145 10.7857C7.93858 10.7076 7.90132 10.6355 7.845 10.5799L5.46112 8.19298L7.84762 5.80798C7.9039 5.75235 7.94113 5.68034 7.954 5.60226C7.96686 5.52418 7.95469 5.44403 7.91924 5.37328C7.88378 5.30253 7.82685 5.24482 7.7566 5.20839C7.68635 5.17196 7.60637 5.15869 7.52812 5.17048C7.21698 5.21397 6.90004 5.15866 6.62201 5.01237C6.34398 4.86607 6.11891 4.63617 5.97854 4.35511C5.83818 4.07404 5.7896 3.756 5.83967 3.44585C5.88975 3.1357 6.03594 2.8491 6.25762 2.62648C6.54352 2.35412 6.92325 2.2022 7.31812 2.2022C7.71299 2.2022 8.09272 2.35412 8.37862 2.62648C8.54273 2.79102 8.66636 2.99143 8.73976 3.21191C8.81317 3.43239 8.83435 3.66692 8.80162 3.89698C8.78983 3.97523 8.8031 4.05521 8.83953 4.12546C8.87595 4.19571 8.93367 4.25264 9.00442 4.2881C9.07516 4.32356 9.15531 4.33572 9.2334 4.32286C9.31148 4.31 9.38349 4.27276 9.43912 4.21648L11.8275 1.83073L13.5079 3.51148C13.1831 3.66661 12.9002 3.89741 12.6831 4.18449C12.4659 4.47157 12.3208 4.80656 12.2599 5.16133C12.1991 5.51611 12.2242 5.8803 12.3332 6.22335C12.4423 6.5664 12.632 6.87828 12.8866 7.1328C13.1411 7.38733 13.453 7.57708 13.796 7.68611C14.1391 7.79514 14.5033 7.82028 14.858 7.75941C15.2128 7.69854 15.5478 7.55344 15.8349 7.3363C16.1219 7.11915 16.3527 6.8363 16.5079 6.51148L18.1886 8.19186L15.8036 10.5829Z" fill="#1DBF73"/>
<path d="M22.875 8.77051H20.625C20.5255 8.77051 20.4302 8.731 20.3598 8.66067C20.2895 8.59035 20.25 8.49496 20.25 8.39551C20.25 8.29605 20.2895 8.20067 20.3598 8.13034C20.4302 8.06002 20.5255 8.02051 20.625 8.02051H22.875C22.9745 8.02051 23.0698 8.06002 23.1402 8.13034C23.2105 8.20067 23.25 8.29605 23.25 8.39551C23.25 8.49496 23.2105 8.59035 23.1402 8.66067C23.0698 8.731 22.9745 8.77051 22.875 8.77051Z" fill="#1DBF73"/>
<path d="M20.2196 4.45799C20.1371 4.45798 20.0568 4.43074 19.9914 4.38049C19.9259 4.33024 19.8788 4.25978 19.8574 4.18004C19.8361 4.10031 19.8416 4.01575 19.8732 3.93949C19.9048 3.86322 19.9606 3.79951 20.0321 3.75824L21.9821 2.63324C22.0682 2.58429 22.1702 2.57138 22.2657 2.59733C22.3613 2.62328 22.4427 2.68597 22.4922 2.77173C22.5417 2.85748 22.5553 2.95934 22.53 3.05508C22.5047 3.15082 22.4426 3.23265 22.3571 3.28274L20.4071 4.40774C20.3502 4.44078 20.2855 4.45813 20.2196 4.45799Z" fill="#1DBF73"/>
<path d="M22.1677 14.208C22.1019 14.2082 22.0372 14.1908 21.9802 14.1578L20.0302 13.0328C19.9873 13.0083 19.9495 12.9756 19.9192 12.9365C19.8889 12.8975 19.8667 12.8528 19.8537 12.805C19.8407 12.7573 19.8373 12.7075 19.8437 12.6585C19.8501 12.6094 19.8661 12.5621 19.8908 12.5193C19.9156 12.4765 19.9485 12.4389 19.9878 12.4089C20.0271 12.3789 20.0719 12.3569 20.1197 12.3442C20.1676 12.3316 20.2174 12.3285 20.2664 12.3352C20.3154 12.3419 20.3626 12.3583 20.4052 12.3833L22.3552 13.5083C22.4267 13.5496 22.4826 13.6133 22.5142 13.6895C22.5458 13.7658 22.5513 13.8504 22.53 13.9301C22.5086 14.0098 22.4615 14.0803 22.396 14.1305C22.3305 14.1808 22.2503 14.208 22.1677 14.208Z" fill="#1DBF73"/>
<path d="M3.375 8.77051H1.125C1.02554 8.77051 0.930161 8.731 0.859835 8.66067C0.789509 8.59035 0.75 8.49496 0.75 8.39551C0.75 8.29605 0.789509 8.20067 0.859835 8.13034C0.930161 8.06002 1.02554 8.02051 1.125 8.02051H3.375C3.47446 8.02051 3.56984 8.06002 3.64016 8.13034C3.71049 8.20067 3.75 8.29605 3.75 8.39551C3.75 8.49496 3.71049 8.59035 3.64016 8.66067C3.56984 8.731 3.47446 8.77051 3.375 8.77051Z" fill="#1DBF73"/>
<path d="M3.78037 4.45799C3.71453 4.45813 3.64983 4.44078 3.59287 4.40774L1.64287 3.28274C1.55745 3.23265 1.4953 3.15082 1.46998 3.05508C1.44467 2.95934 1.45826 2.85748 1.50777 2.77173C1.55728 2.68597 1.63871 2.62328 1.73427 2.59733C1.82984 2.57138 1.93179 2.58429 2.01787 2.63324L3.96787 3.75824C4.03936 3.79951 4.09523 3.86322 4.12682 3.93949C4.1584 4.01575 4.16394 4.10031 4.14258 4.18004C4.12121 4.25978 4.07414 4.33024 4.00865 4.38049C3.94316 4.43074 3.86292 4.45798 3.78037 4.45799Z" fill="#1DBF73"/>
<path d="M1.83225 14.208C1.7497 14.208 1.66946 14.1808 1.60398 14.1305C1.53849 14.0803 1.49141 14.0098 1.47005 13.9301C1.44868 13.8504 1.45422 13.7658 1.48581 13.6895C1.5174 13.6133 1.57327 13.5496 1.64475 13.5083L3.59475 12.3833C3.63742 12.3583 3.68461 12.3419 3.7336 12.3352C3.7826 12.3285 3.83244 12.3316 3.88026 12.3442C3.92807 12.3569 3.97291 12.3789 4.01219 12.4089C4.05148 12.4389 4.08443 12.4765 4.10916 12.5193C4.13389 12.5621 4.1499 12.6094 4.15628 12.6585C4.16265 12.7075 4.15926 12.7573 4.14631 12.805C4.13335 12.8528 4.11108 12.8975 4.08078 12.9365C4.05048 12.9756 4.01274 13.0083 3.96975 13.0328L2.01975 14.1578C1.9628 14.1908 1.8981 14.2082 1.83225 14.208Z" fill="#1DBF73"/>
</g>
<defs>
<clipPath id="clip0_1128_410">
<rect width="24" height="24" fill="white" transform="translate(0 0.145508)"/>
</clipPath>
</defs>
</svg>
