<svg width="224" height="224" viewBox="0 0 224 224" fill="none" xmlns="http://www.w3.org/2000/svg">
<g clip-path="url(#clip0_1128_362)" filter="url(#filter0_d_1128_362)">
<path d="M29.4314 96.3042C27.0666 95.4402 24.425 96.6681 23.5612 99.0326C22.6972 101.397 23.9251 104.039 26.29 104.903C28.6548 105.767 31.2964 104.539 32.1603 102.174C33.0237 99.8096 31.7958 97.168 29.4314 96.3042Z" fill="#ECF8FF"/>
<path d="M41.9973 61.9082C39.6325 61.0442 36.9909 62.2722 36.127 64.637C35.263 67.0018 36.4909 69.6434 38.8557 70.5074C41.2205 71.3713 43.8621 70.1434 44.7261 67.7786C45.5897 65.4136 44.3618 62.772 41.9973 61.9082Z" fill="#ECF8FF"/>
<path d="M67.6331 178.487C65.2682 177.623 62.6267 178.851 61.7627 181.216C60.8987 183.58 62.1266 186.222 64.4915 187.086C66.8563 187.95 69.4979 186.722 70.3618 184.357C71.2258 181.992 69.9979 179.351 67.6331 178.487Z" fill="#ECF8FF"/>
<path d="M81.9308 32.638C77.2015 30.9103 71.9184 33.3661 70.1906 38.0953C68.4628 42.8246 70.9181 48.108 75.6477 49.8359C80.3774 51.5639 85.6601 49.1079 87.3879 44.3786C89.1157 39.6494 86.66 34.3658 81.9308 32.638Z" fill="#ECF8FF"/>
<path d="M69.3649 67.0335C64.6356 65.3058 59.3524 67.7616 57.6247 72.4908C55.8969 77.2201 58.3527 82.5033 63.0819 84.231C67.8112 85.9588 73.0944 83.503 74.8221 78.7737C76.5499 74.0445 74.0941 68.7613 69.3649 67.0335Z" fill="#ECF8FF"/>
<path d="M56.7989 101.429C52.0697 99.7013 46.7865 102.157 45.0587 106.886C43.331 111.616 45.7868 116.899 50.516 118.627C55.2453 120.354 60.5283 117.899 62.2562 113.169C63.984 108.44 61.5282 103.157 56.7989 101.429Z" fill="#ECF8FF"/>
<path d="M193.636 127.055C196.001 127.919 198.642 126.691 199.506 124.326C200.37 121.961 199.142 119.32 196.778 118.456C194.413 117.592 191.771 118.82 190.907 121.184C190.043 123.549 191.271 126.191 193.636 127.055Z" fill="#ECF8FF"/>
<path d="M155.434 44.8717C157.799 45.7357 160.44 44.5078 161.304 42.1429C162.168 39.7785 160.94 37.1369 158.575 36.273C156.211 35.409 153.569 36.6369 152.705 39.0017C151.842 41.3663 153.07 44.0079 155.434 44.8717Z" fill="#ECF8FF"/>
<path d="M110.043 62.4019C114.773 64.1297 120.056 61.6739 121.784 56.9446C123.511 52.2154 121.056 46.9322 116.326 45.2044C111.597 43.4767 106.314 45.9325 104.586 50.6617C102.858 55.391 105.314 60.6742 110.043 62.4019Z" fill="#ECF8FF"/>
<path d="M121.038 32.3058C123.403 33.1697 126.045 31.9418 126.909 29.577C127.773 27.2126 126.545 24.571 124.18 23.707C121.815 22.8431 119.174 24.071 118.31 26.4358C117.446 28.8002 118.674 31.4418 121.038 32.3058Z" fill="#ECF8FF"/>
<path d="M144.439 74.9679C149.168 76.6956 154.451 74.2398 156.179 69.5106C157.907 64.7813 155.451 59.4981 150.722 57.7704C145.993 56.0426 140.709 58.4984 138.982 63.2277C137.254 67.9569 139.71 73.2401 144.439 74.9679Z" fill="#ECF8FF"/>
<path d="M44.233 135.825C39.5038 134.097 34.2206 136.553 32.4928 141.282C30.765 146.011 33.2209 151.294 37.9501 153.022C42.6794 154.75 47.9624 152.294 49.6902 147.565C51.4181 142.836 48.9623 137.552 44.233 135.825Z" fill="#ECF8FF"/>
<path d="M139.726 87.8661C132.589 85.2586 124.723 88.9149 122.116 96.0521C119.508 103.189 123.165 111.055 130.302 113.663C137.439 116.27 145.305 112.614 147.913 105.477C150.52 98.3394 146.864 90.4736 139.726 87.8661Z" fill="#ECF8FF"/>
<path d="M159.985 139.127C155.256 137.4 149.973 139.855 148.245 144.585C146.517 149.314 148.973 154.597 153.703 156.325C158.432 158.053 163.715 155.597 165.443 150.867C167.171 146.138 164.715 140.855 159.985 139.127Z" fill="#ECF8FF"/>
<path d="M147.42 173.522C142.69 171.795 137.407 174.25 135.679 178.98C133.952 183.709 136.407 188.992 141.137 190.72C145.866 192.448 151.149 189.992 152.877 185.263C154.605 180.533 152.149 175.25 147.42 173.522Z" fill="#ECF8FF"/>
<path d="M172.551 104.732C167.822 103.004 162.539 105.46 160.811 110.189C159.083 114.918 161.539 120.201 166.268 121.929C170.998 123.657 176.281 121.201 178.009 116.472C179.736 111.743 177.281 106.46 172.551 104.732Z" fill="#ECF8FF"/>
<path d="M184.211 152.851C181.846 151.987 179.205 153.215 178.341 155.58C177.477 157.944 178.705 160.586 181.07 161.45C183.435 162.314 186.076 161.086 186.94 158.721C187.804 156.356 186.576 153.715 184.211 152.851Z" fill="#ECF8FF"/>
<path d="M185.117 70.3358C180.388 68.608 175.105 71.0638 173.377 75.7931C171.649 80.5223 174.105 85.8058 178.834 87.5337C183.563 89.2615 188.847 86.8056 190.574 82.0764C192.302 77.3471 189.847 72.0636 185.117 70.3358Z" fill="#ECF8FF"/>
<path d="M92.765 109.696C85.6278 107.088 77.7619 110.745 75.1544 117.882C72.5469 125.019 76.2033 132.885 83.3405 135.492C90.4777 138.1 98.3436 134.443 100.951 127.306C103.559 120.169 99.9022 112.303 92.765 109.696Z" fill="#ECF8FF"/>
<path d="M78.6281 148.39C73.8988 146.663 68.6156 149.119 66.8879 153.848C65.1601 158.577 67.6159 163.86 72.3451 165.588C77.0744 167.316 82.3576 164.86 84.0853 160.131C85.8131 155.401 83.3573 150.118 78.6281 148.39Z" fill="#ECF8FF"/>
<path d="M105.331 75.3002C98.1937 72.6927 90.3279 76.349 87.7204 83.4862C85.1129 90.6234 88.7692 98.4893 95.9064 101.097C103.044 103.704 110.909 100.048 113.517 92.9107C116.124 85.7735 112.468 77.9077 105.331 75.3002Z" fill="#ECF8FF"/>
<path d="M113.024 160.956C108.294 159.229 103.011 161.684 101.283 166.414C99.5554 171.143 102.011 176.427 106.74 178.154C111.47 179.882 116.753 177.426 118.481 172.697C120.209 167.967 117.753 162.684 113.024 160.956Z" fill="#ECF8FF"/>
<path d="M102.028 191.053C99.6633 190.189 97.0217 191.417 96.1577 193.782C95.2938 196.146 96.5217 198.788 98.8865 199.652C101.251 200.516 103.893 199.288 104.757 196.923C105.621 194.558 104.393 191.917 102.028 191.053Z" fill="#ECF8FF"/>
<path d="M127.161 122.262C120.023 119.654 112.157 123.31 109.55 130.448C106.942 137.585 110.599 145.451 117.736 148.058C124.873 150.666 132.739 147.009 135.347 139.872C137.954 132.735 134.298 124.869 127.161 122.262Z" fill="#ECF8FF"/>
</g>
<defs>
<filter id="filter0_d_1128_362" x="-4.00012" y="0.145508" width="231.067" height="231.067" filterUnits="userSpaceOnUse" color-interpolation-filters="sRGB">
<feFlood flood-opacity="0" result="BackgroundImageFix"/>
<feColorMatrix in="SourceAlpha" type="matrix" values="0 0 0 0 0 0 0 0 0 0 0 0 0 0 0 0 0 0 127 0" result="hardAlpha"/>
<feOffset dy="4"/>
<feGaussianBlur stdDeviation="2"/>
<feComposite in2="hardAlpha" operator="out"/>
<feColorMatrix type="matrix" values="0 0 0 0 0 0 0 0 0 0 0 0 0 0 0 0 0 0 0.25 0"/>
<feBlend mode="normal" in2="BackgroundImageFix" result="effect1_dropShadow_1128_362"/>
<feBlend mode="normal" in="SourceGraphic" in2="effect1_dropShadow_1128_362" result="shape"/>
</filter>
<clipPath id="clip0_1128_362">
<rect width="173.94" height="173.94" fill="white" transform="translate(59.6885 0.145508) rotate(20.0692)"/>
</clipPath>
</defs>
</svg>
