<svg width="24" height="25" viewBox="0 0 24 25" fill="none" xmlns="http://www.w3.org/2000/svg">
<path d="M21.6799 9.11435C21.6799 7.60498 21.0926 6.18636 20.0265 5.12061C18.963 4.05298 17.5448 3.46536 16.0335 3.46536C14.568 3.46536 13.1914 4.02298 12.1358 5.03061L12.0424 4.93611C10.9219 3.81598 9.444 3.19873 7.881 3.19873C6.38288 3.19873 4.98263 3.77436 3.93713 4.82023C1.73663 7.02448 1.78875 10.6601 4.05338 12.9247L4.30125 13.1726C4.17375 13.4059 4.13625 13.6961 4.19925 14.0029C4.27388 14.3647 4.48013 14.7266 4.7835 15.0251C5.15175 15.3874 5.60475 15.5959 6.03488 15.6101C6.03825 15.6829 6.04163 15.7556 6.057 15.831C6.13163 16.1929 6.33788 16.5547 6.63788 16.8499C7.00575 17.2121 7.45913 17.4202 7.88925 17.4345C7.89263 17.5072 7.896 17.58 7.91138 17.6557C7.986 18.0176 8.19225 18.3795 8.49225 18.6746C8.8605 19.0369 9.3135 19.245 9.74325 19.2592C9.74663 19.332 9.75 19.4051 9.76538 19.4805C9.84 19.842 10.0463 20.2039 10.3496 20.5027C10.731 20.8777 11.2039 21.0926 11.6471 21.0926C11.9561 21.0926 12.2231 20.9876 12.4185 20.7889L14.274 18.903C14.3565 18.819 14.4146 18.7207 14.4619 18.6169C14.8178 18.5629 15.1451 18.4035 15.399 18.1459C15.7763 17.769 15.93 17.2552 15.8745 16.7606C15.9383 16.7677 16.002 16.779 16.0661 16.779C16.4996 16.779 16.9331 16.614 17.2628 16.2844C17.6411 15.906 17.7953 15.3919 17.7394 14.8972C17.8024 14.9044 17.8646 14.9156 17.9291 14.9156C18.3818 14.9156 18.8074 14.739 19.1276 14.4191C19.3703 14.1765 19.5293 13.8731 19.5926 13.5435L20.0265 13.11C21.0926 12.0427 21.6799 10.6237 21.6799 9.11435ZM16.0335 4.21536C17.3441 4.21536 18.5734 4.72461 19.4959 5.65048C20.4206 6.57523 20.9303 7.8056 20.9303 9.11435C20.9303 10.4227 20.4214 11.652 19.4978 12.5767C19.4138 12.3716 19.2893 12.1826 19.1276 12.0214L15.2246 8.11911C15.2213 8.11573 15.2171 8.11498 15.2138 8.11198L14.8778 7.77598L15.1478 7.61735C15.3263 7.51198 15.3855 7.2821 15.2801 7.10398C15.1748 6.92511 14.9449 6.86623 14.7664 6.97123L11.7728 8.73223C11.2234 9.05061 10.5368 9.00298 10.0493 8.63361C9.95813 8.56461 9.93938 8.47348 9.93563 8.42511C9.93225 8.37598 9.939 8.28186 10.0208 8.20011L12.567 5.65011C13.4929 4.72498 14.7236 4.21536 16.0335 4.21536ZM4.9335 13.8521C4.91775 13.7764 4.89225 13.5881 4.99425 13.4846L6.85013 11.5987C6.91463 11.5331 7.01438 11.5192 7.08675 11.5192C7.3275 11.5192 7.62338 11.6629 7.8615 11.8976C8.05388 12.087 8.18963 12.3184 8.2335 12.5325C8.24925 12.6086 8.27475 12.7969 8.17275 12.9004L6.31725 14.7862C6.25275 14.8519 6.153 14.8657 6.08063 14.8657C5.83988 14.8657 5.54438 14.7221 5.30588 14.4874C5.1135 14.298 4.97775 14.0666 4.9335 13.8521ZM6.79125 15.6799C6.7755 15.6041 6.75 15.4159 6.852 15.3124L8.7075 13.4265C8.772 13.3609 8.87175 13.347 8.94413 13.347C9.18488 13.347 9.48075 13.4906 9.7155 13.7216C10.0931 14.0932 10.1914 14.5575 10.0271 14.7251L8.17163 16.6106C8.10675 16.6766 8.007 16.6901 7.935 16.6901C7.69425 16.6901 7.39875 16.5465 7.16363 16.3155C6.97125 16.1257 6.8355 15.8944 6.79125 15.6799ZM8.706 17.1364L10.5615 15.2509C10.6264 15.1849 10.7261 15.1714 10.7985 15.1714C11.0393 15.1714 11.3348 15.315 11.5695 15.546C11.9471 15.9172 12.0454 16.3819 11.8811 16.5491L10.0256 18.435C9.96113 18.5006 9.86138 18.5145 9.789 18.5145C9.54825 18.5145 9.25238 18.3709 9.01763 18.1399C8.64 17.7679 8.54175 17.3036 8.706 17.1364ZM13.7389 18.3765L11.8834 20.2624C11.8189 20.328 11.7191 20.3419 11.6468 20.3419C11.4056 20.3419 11.1101 20.1982 10.8716 19.9635C10.6793 19.7741 10.5435 19.5427 10.4996 19.3286C10.4839 19.2525 10.4584 19.0642 10.5604 18.9607L12.4159 17.0749C12.4804 17.0092 12.5801 16.9954 12.6525 16.9954C12.8933 16.9954 13.1891 17.139 13.4273 17.3737C13.8049 17.745 13.9031 18.2096 13.7389 18.3765ZM17.2605 13.8877L13.3579 9.98548C13.2113 9.83885 12.9743 9.83885 12.8276 9.98548C12.681 10.1321 12.681 10.3691 12.8276 10.5157L16.7321 14.4199C16.9103 14.598 17.0081 14.8346 17.0081 15.0862C17.0081 15.3379 16.9099 15.5749 16.7321 15.7526C16.3658 16.119 15.7691 16.1194 15.4016 15.7545C15.4005 15.7534 15.3998 15.7519 15.3986 15.7507L11.4949 11.847C11.3483 11.7004 11.1113 11.7004 10.9646 11.847C10.8911 11.9205 10.8548 12.0169 10.8551 12.1132C10.8551 12.2092 10.8919 12.3052 10.965 12.3784L14.8695 16.2829L14.8706 16.284C15.2344 16.6537 15.234 17.2492 14.8665 17.6164C14.7701 17.7142 14.6539 17.7847 14.5234 17.8312C14.4473 17.4896 14.2571 17.1375 13.9504 16.8352C13.5825 16.4734 13.1295 16.2649 12.6998 16.2502C12.6791 15.8366 12.4763 15.3847 12.0964 15.0105C11.7285 14.6486 11.2755 14.4401 10.8458 14.4259C10.8251 14.0122 10.6223 13.56 10.2424 13.1857C9.87413 12.8235 9.42113 12.6154 8.991 12.6011C8.98763 12.5284 8.98425 12.4556 8.96888 12.3799C8.89425 12.0184 8.688 11.6565 8.38463 11.3576C8.00325 10.9826 7.53075 10.7677 7.0875 10.7677C6.77813 10.7677 6.5115 10.8727 6.31613 11.0715L4.80113 12.6112L4.584 12.3941C2.6115 10.4216 2.55975 7.26111 4.46775 5.34973C5.3715 4.44598 6.58388 3.94836 7.88138 3.94836C9.24413 3.94836 10.5338 4.48761 11.511 5.46448L11.6014 5.55598L9.49088 7.66948C9.27788 7.88248 9.16725 8.17686 9.18788 8.47611C9.2085 8.77498 9.35775 9.04986 9.597 9.23098C10.3208 9.77923 11.3408 9.84898 12.1511 9.37948L14.2103 8.16823L14.6921 8.65011C14.6955 8.65348 14.6996 8.65423 14.703 8.65723L18.597 12.5512C18.7755 12.7301 18.8738 12.9671 18.8738 13.2195C18.8738 13.4719 18.7755 13.7092 18.597 13.8874C18.24 14.2459 17.6175 14.2455 17.2605 13.8877Z" fill="#1DBF73"/>
</svg>
