<svg width="83" height="82" viewBox="0 0 83 82" fill="none" xmlns="http://www.w3.org/2000/svg">
<g clip-path="url(#clip0_1128_391)">
<path d="M25.8728 58.3892C25.9161 58.5646 26.0123 58.7225 26.1484 58.8413C26.2846 58.9601 26.4539 59.0341 26.6336 59.0532C27.258 59.119 42.0352 60.6366 52.4791 57.7733C60.2761 55.6353 66.9486 48.4323 67.6697 41.3748C68.0832 37.3235 66.3582 34.0955 62.8124 32.2906C56.6717 29.162 49.9039 32.9707 45.3138 36.7149C51.3597 25.5833 49.73 18.0998 45.9333 14.8175C41.8476 11.2891 35.449 12.2937 30.36 17.248C18.6943 28.6069 25.5739 57.1782 25.8728 58.3892ZM31.587 18.5086C35.7897 14.4161 40.9147 13.3417 44.2955 15.7636C44.4624 15.8831 44.6234 16.0107 44.7832 16.1482C49.0148 19.8071 49.1176 29.253 39.8038 42.1048C39.6608 42.2893 39.597 42.5231 39.6263 42.7547C39.6557 42.9863 39.7759 43.1967 39.9604 43.3397C40.1449 43.4827 40.3787 43.5466 40.6103 43.5172C40.8419 43.4878 41.0524 43.3677 41.1954 43.1831C41.3114 43.0433 52.9198 29.2248 62.0129 33.8588C65.6693 35.7199 66.1554 38.8777 65.9178 41.1961C65.3583 46.6727 59.8827 53.9188 52.0121 56.0769C43.0721 58.5286 30.3797 57.6179 27.4413 57.3618C26.509 53.1572 21.5281 28.3033 31.587 18.5086Z" fill="#FFA995"/>
<path d="M41.0065 55.7908C41.1716 55.9093 41.3727 55.9667 41.5755 55.9531C44.7298 55.7869 47.8597 55.3078 50.9192 54.5228C53.399 53.8207 55.7182 52.6421 57.7472 51.053C57.8385 50.9822 57.915 50.8941 57.9722 50.7937C58.0294 50.6933 58.0663 50.5827 58.0808 50.468C58.0952 50.3534 58.087 50.237 58.0565 50.1256C58.026 50.0142 57.9738 49.9098 57.903 49.8186C57.8322 49.7273 57.744 49.6508 57.6437 49.5936C57.5433 49.5364 57.4326 49.4995 57.318 49.485C57.2034 49.4706 57.087 49.4788 56.9756 49.5093C56.8642 49.5398 56.7598 49.592 56.6685 49.6628C54.8221 51.1112 52.7111 52.1858 50.4536 52.8266C47.5086 53.5799 44.4962 54.0391 41.4606 54.1973C41.2795 54.2091 41.1065 54.2766 40.9653 54.3906C40.8241 54.5046 40.7216 54.6595 40.6718 54.834C40.6221 55.0085 40.6276 55.1942 40.6875 55.3655C40.7474 55.5367 40.8588 55.6853 41.0065 55.7908Z" fill="#FFA995"/>
<path d="M59.1203 48.7027C59.1471 48.7277 59.1756 48.7509 59.2053 48.7723C59.3797 48.897 59.5936 48.9536 59.8068 48.9317C60.02 48.9098 60.2179 48.8108 60.3633 48.6532C61.3902 47.5461 62.2891 46.327 63.0433 45.0187C63.1006 44.9185 63.1377 44.8078 63.1523 44.6932C63.1669 44.5786 63.1588 44.4623 63.1284 44.3508C63.098 44.2393 63.046 44.1349 62.9753 44.0435C62.9046 43.9522 62.8166 43.8756 62.7163 43.8183C62.616 43.7609 62.5054 43.7239 62.3908 43.7093C62.2761 43.6947 62.1598 43.7028 62.0483 43.7331C61.9368 43.7635 61.8324 43.8155 61.7411 43.8863C61.6497 43.957 61.5731 44.045 61.5158 44.1453C60.8275 45.3392 60.0065 46.4514 59.0685 47.461C58.9109 47.6326 58.8278 47.8598 58.8375 48.0926C58.8473 48.3254 58.9489 48.5448 59.1203 48.7027Z" fill="#FFA995"/>
</g>
<defs>
<clipPath id="clip0_1128_391">
<rect width="58.6403" height="58.6403" fill="white" transform="translate(35.0029) rotate(35.6157)"/>
</clipPath>
</defs>
</svg>
