<svg width="140" height="140" viewBox="0 0 140 140" fill="none" xmlns="http://www.w3.org/2000/svg">
<g clip-path="url(#clip0_1005_778)">
<path d="M42.6649 99.5719C42.7387 99.8711 42.9028 100.14 43.1349 100.343C43.367 100.545 43.6558 100.672 43.9622 100.704C45.0271 100.816 70.2268 103.404 88.0368 98.5216C101.333 94.8756 112.712 82.5922 113.941 70.557C114.647 63.6483 111.705 58.1436 105.658 55.0656C95.1865 49.7304 83.6453 56.2254 75.8178 62.6104C86.1279 43.6276 83.3487 30.866 76.8743 25.2685C69.9069 19.2516 58.9952 20.9647 50.3168 29.4132C30.4233 48.7837 42.1552 97.5068 42.6649 99.5719ZM52.4094 31.563C59.5761 24.584 68.3159 22.7519 74.0813 26.8819C74.3658 27.0857 74.6405 27.3033 74.9129 27.5378C82.1292 33.7774 82.3044 49.8856 66.4215 71.8019C66.1777 72.1166 66.0688 72.5152 66.1189 72.9102C66.169 73.3051 66.3739 73.664 66.6886 73.9078C67.0033 74.1517 67.4019 74.2606 67.7969 74.2105C68.1918 74.1604 68.5507 73.9555 68.7945 73.6408C68.9924 73.4024 88.7883 49.8374 104.295 57.7399C110.53 60.9136 111.359 66.2987 110.954 70.2523C110 79.5917 100.662 91.9484 87.2404 95.6287C71.9949 99.8096 50.3505 98.2566 45.3396 97.8198C43.7496 90.6497 35.2557 48.266 52.4094 31.563Z" fill="#FFA995"/>
<path d="M68.4727 95.1411C68.7542 95.3432 69.0972 95.4411 69.443 95.4179C74.822 95.1345 80.1595 94.3175 85.377 92.9788C89.6058 91.7815 93.5608 89.7717 97.0209 87.0617C97.1765 86.9409 97.3069 86.7906 97.4045 86.6195C97.502 86.4483 97.565 86.2596 97.5896 86.0641C97.6143 85.8687 97.6002 85.6702 97.5482 85.4802C97.4962 85.2902 97.4072 85.1122 97.2864 84.9566C97.1657 84.8009 97.0154 84.6706 96.8442 84.573C96.6731 84.4754 96.4844 84.4124 96.2889 84.3878C96.0934 84.3631 95.895 84.3772 95.705 84.4292C95.5149 84.4813 95.337 84.5702 95.1813 84.691C92.0326 87.1609 88.4327 88.9934 84.5829 90.0863C79.5608 91.3709 74.4237 92.1539 69.247 92.4237C68.9382 92.4438 68.6431 92.559 68.4024 92.7534C68.1616 92.9478 67.9868 93.2119 67.902 93.5095C67.8172 93.8071 67.8265 94.1236 67.9287 94.4158C68.0308 94.7079 68.2209 94.9612 68.4727 95.1411Z" fill="#FFA995"/>
<path d="M99.3621 83.0534C99.4079 83.096 99.4563 83.1356 99.5071 83.172C99.8045 83.3846 100.169 83.4812 100.533 83.4438C100.896 83.4065 101.234 83.2376 101.482 82.969C103.233 81.081 104.766 79.002 106.052 76.771C106.15 76.6 106.213 76.4114 106.238 76.2159C106.263 76.0205 106.249 75.8221 106.197 75.632C106.145 75.4419 106.057 75.2638 105.936 75.108C105.815 74.9522 105.665 74.8217 105.494 74.7239C105.323 74.6261 105.135 74.5629 104.939 74.538C104.744 74.5131 104.545 74.5269 104.355 74.5787C104.165 74.6305 103.987 74.7192 103.831 74.8398C103.675 74.9604 103.545 75.1105 103.447 75.2815C102.273 77.3174 100.873 79.2142 99.2737 80.9358C99.005 81.2285 98.8633 81.6159 98.8799 82.0129C98.8965 82.4099 99.0699 82.7841 99.3621 83.0534Z" fill="#FFA995"/>
</g>
<defs>
<clipPath id="clip0_1005_778">
<rect width="100" height="100" fill="white" transform="translate(58.2345) rotate(35.6157)"/>
</clipPath>
</defs>
</svg>
