<svg width="79" height="79" viewBox="0 0 79 79" fill="none" xmlns="http://www.w3.org/2000/svg">
<g clip-path="url(#clip0_1005_660)">
<path fill-rule="evenodd" clip-rule="evenodd" d="M50.3525 33.9763C46.1365 32.834 43.2679 29.8492 40.4937 26.9646C37.8559 24.2192 35.362 21.6261 31.859 20.6769C27.8926 19.6022 23.6326 20.1112 18.4557 22.2808C17.7767 22.5637 16.9964 22.2418 16.7102 21.5647C16.4273 20.8857 16.7466 20.1048 17.4263 19.8192C23.1791 17.4106 27.9878 16.8652 32.5564 18.1031C36.7723 19.2454 39.6409 22.2302 42.4151 25.1147C45.0529 27.8601 47.5468 30.4533 51.0499 31.4024C55.0162 32.4771 59.2762 31.9682 64.4531 29.7986C65.1251 29.511 65.9112 29.8317 66.1986 30.5146C66.4816 31.1936 66.1622 31.9746 65.4825 32.2601C59.7297 34.6688 54.9211 35.2142 50.3525 33.9763ZM43.3785 59.7149C39.1625 58.5725 36.2939 55.5878 33.5197 52.7032C30.8819 49.9578 28.388 47.3647 24.885 46.4155C20.9186 45.3408 16.6586 45.8497 11.4817 48.0194C10.8027 48.3023 10.0217 47.9829 9.73621 47.3033C9.45327 46.6243 9.77263 45.8433 10.4523 45.5578C16.2051 43.1492 21.0138 42.6038 25.5824 43.8416C29.7983 44.984 32.6669 47.9687 35.4411 50.8533C38.0789 53.5987 40.5728 56.1919 44.0759 57.141C48.0422 58.2157 52.3022 57.7068 57.4791 55.5372C58.1504 55.2521 58.9365 55.5729 59.2246 56.2532C59.5076 56.9322 59.1882 57.7132 58.5085 57.9987C52.7557 60.4074 47.9471 60.9528 43.3785 59.7149Z" fill="#306FB5"/>
</g>
<defs>
<clipPath id="clip0_1005_660">
<rect width="64" height="64" fill="white" transform="translate(16.7375) rotate(15.1606)"/>
</clipPath>
</defs>
</svg>
