<svg width="120" height="34" viewBox="0 0 120 34" fill="none" xmlns="http://www.w3.org/2000/svg">
<path fill-rule="evenodd" clip-rule="evenodd" d="M3.48739 0C5.41357 0 6.97469 1.42961 6.97469 3.19369C6.97469 4.95778 5.41357 6.38738 3.48739 6.38738C1.56112 6.38738 0 4.95778 0 3.19369C0 1.42961 1.56112 0 3.48739 0Z" fill="#1DBF73"/>
<path fill-rule="evenodd" clip-rule="evenodd" d="M33.6384 0.000122752C35.5647 0.000122752 37.1265 1.42973 37.1265 3.19381C37.1265 4.9579 35.5647 6.3875 33.6384 6.3875C31.7129 6.3875 30.1511 4.9579 30.1511 3.19381C30.1511 1.42973 31.7129 0.000122752 33.6384 0.000122752Z" fill="#1DBF73"/>
<path fill-rule="evenodd" clip-rule="evenodd" d="M3.48739 27.612C5.4136 27.612 6.97454 29.042 6.97454 30.806C6.97454 32.57 5.4136 34 3.48739 34C1.56112 34 0 32.57 0 30.806C0 29.042 1.56112 27.612 3.48739 27.612Z" fill="#1DBF73"/>
<path fill-rule="evenodd" clip-rule="evenodd" d="M33.6387 27.612C35.5649 27.612 37.1264 29.042 37.1264 30.806C37.1264 32.57 35.5649 34 33.6387 34C31.7132 34 30.1511 32.57 30.1511 30.806C30.1511 29.042 31.7132 27.612 33.6387 27.612Z" fill="#1DBF73"/>
<path fill-rule="evenodd" clip-rule="evenodd" d="M16.7784 3.77211V1.73068H9.93176V3.77211C9.93176 6.70053 7.31571 9.09617 4.11885 9.09617H1.88974V15.3658H4.11885C11.082 15.3658 16.7784 10.1487 16.7784 3.77211Z" fill="#1DBF73"/>
<path fill-rule="evenodd" clip-rule="evenodd" d="M9.93183 32.2647H16.7784V30.2232C16.7784 23.8461 11.082 18.6293 4.11894 18.6293H1.88974V24.8993H4.11894C7.31575 24.8993 9.93183 27.295 9.93183 30.2232V32.2647Z" fill="#1DBF73"/>
<path fill-rule="evenodd" clip-rule="evenodd" d="M27.1929 30.2232C27.1929 27.295 29.8082 24.8993 33.0056 24.8993H35.2348V18.6293H33.0056C26.0429 18.6293 20.3465 23.8461 20.3465 30.2232V32.2647H27.1929V30.2232Z" fill="#1DBF73"/>
<path fill-rule="evenodd" clip-rule="evenodd" d="M33.006 9.09624C29.8084 9.09624 27.1933 6.70059 27.1933 3.77218V1.73074H20.3465V3.77218C20.3465 10.1488 26.0432 15.3658 33.006 15.3658H35.2351V9.09624H33.006Z" fill="#1DBF73"/>
<path d="M41.5467 1.61887V32.3809H40.6627V1.61887H41.5467Z" fill="#A9AAA9"/>
<path d="M46.4537 20.1196V3.43688H50.3007L55.6469 13.4621L60.993 3.43688H64.8117V20.1196H60.993V9.26549L56.75 17.2442H54.5437L50.2724 9.26549V20.1196H46.4537Z" fill="#272B28"/>
<path d="M72.2424 20.3787C71.3938 20.3787 70.6018 20.2405 69.8663 19.9642C69.1498 19.6706 68.5652 19.2475 68.1126 18.6949C67.6789 18.125 67.462 17.4169 67.462 16.5707C67.462 15.3618 67.924 14.3947 68.848 13.6693C69.7909 12.944 71.177 12.5813 73.0062 12.5813H76.9663V12.2446C76.9663 11.4847 76.7305 10.9493 76.2591 10.6384C75.8065 10.3276 74.8825 10.1722 73.487 10.1722C71.9596 10.1722 70.4887 10.388 69.0743 10.8198V8.35882C69.6966 8.13431 70.4509 7.95297 71.3372 7.81481C72.2424 7.65938 73.223 7.58167 74.279 7.58167C76.2968 7.58167 77.8526 7.96161 78.9463 8.72149C80.0589 9.46409 80.6152 10.6644 80.6152 12.3223V20.1196H77.3057L77.1077 19.0057C76.5797 19.4375 75.9291 19.7742 75.1559 20.016C74.3828 20.2578 73.4116 20.3787 72.2424 20.3787ZM73.289 18.0732C74.1376 18.0732 74.8731 17.9436 75.4954 17.6846C76.1177 17.4255 76.608 17.0974 76.9663 16.7002V14.7573H73.091C71.6013 14.7573 70.8564 15.3186 70.8564 16.4411C70.8564 17.5292 71.6673 18.0732 73.289 18.0732Z" fill="#272B28"/>
<path d="M87.1434 20.1196L81.8539 7.84072H85.8423L89.1801 16.5966L92.5462 7.84072H96.5063L91.245 20.1196H87.1434Z" fill="#272B28"/>
<path d="M99.1261 5.58699V2.84107H103.284V5.58699H99.1261ZM99.4372 20.1196V10.4312H97.4289L97.7683 7.84072H103.256V20.1196H99.4372Z" fill="#272B28"/>
<path d="M106.507 20.1196V7.84072H110.043L110.185 9.00644C110.731 8.6265 111.42 8.29837 112.249 8.02205C113.098 7.72846 113.984 7.58167 114.908 7.58167C116.681 7.58167 117.973 7.96161 118.784 8.72149C119.595 9.48136 120 10.6557 120 12.2446V20.1196H116.181V12.4259C116.181 11.5969 115.993 11.0098 115.616 10.6644C115.257 10.319 114.578 10.1463 113.579 10.1463C112.994 10.1463 112.4 10.2671 111.797 10.5089C111.212 10.7507 110.722 11.0529 110.326 11.4156V20.1196H106.507Z" fill="#272B28"/>
<path d="M45.7655 31.1587C45.6651 31.1587 45.5755 31.151 45.4968 31.1357C45.4182 31.1219 45.3637 31.1081 45.3336 31.0943L45.4843 30.6159C45.6283 30.6496 45.7555 30.6619 45.866 30.6527C45.9765 30.6435 46.0744 30.5983 46.1598 30.517C46.2469 30.4373 46.3264 30.3077 46.3984 30.1284L46.5089 29.8524L45.0825 26.3015H45.7254L46.7901 29.1164H46.8303L47.8951 26.3015H48.5379L46.9006 30.3491C46.827 30.5316 46.7357 30.6826 46.6269 30.8022C46.5181 30.9233 46.3917 31.013 46.2477 31.0713C46.1054 31.1295 45.9447 31.1587 45.7655 31.1587Z" fill="#7D807E"/>
<path d="M51.1734 29.9076C50.8252 29.9076 50.5196 29.8317 50.2568 29.6799C49.9956 29.5281 49.7914 29.3158 49.644 29.0429C49.4984 28.7699 49.4256 28.451 49.4256 28.0861C49.4256 27.7182 49.4984 27.397 49.644 27.1225C49.7914 26.8481 49.9956 26.635 50.2568 26.4832C50.5196 26.3314 50.8252 26.2555 51.1734 26.2555C51.5216 26.2555 51.8263 26.3314 52.0875 26.4832C52.3503 26.635 52.5546 26.8481 52.7002 27.1225C52.8475 27.397 52.9212 27.7182 52.9212 28.0861C52.9212 28.451 52.8475 28.7699 52.7002 29.0429C52.5546 29.3158 52.3503 29.5281 52.0875 29.6799C51.8263 29.8317 51.5216 29.9076 51.1734 29.9076ZM51.1734 29.42C51.4379 29.42 51.6555 29.3579 51.8263 29.2337C51.9971 29.1095 52.1235 28.9463 52.2055 28.7439C52.2875 28.5415 52.3285 28.3222 52.3285 28.0861C52.3285 27.85 52.2875 27.63 52.2055 27.4261C52.1235 27.2222 51.9971 27.0574 51.8263 26.9316C51.6555 26.8059 51.4379 26.7431 51.1734 26.7431C50.9089 26.7431 50.6912 26.8059 50.5205 26.9316C50.3497 27.0574 50.2233 27.2222 50.1413 27.4261C50.0592 27.63 50.0182 27.85 50.0182 28.0861C50.0182 28.3222 50.0592 28.5415 50.1413 28.7439C50.2233 28.9463 50.3497 29.1095 50.5205 29.2337C50.6912 29.3579 50.9089 29.42 51.1734 29.42Z" fill="#7D807E"/>
<path d="M56.681 28.3897V26.3015H57.2737V29.834H56.681V29.236H56.6409C56.5504 29.4154 56.4098 29.568 56.219 29.6937C56.0281 29.8179 55.787 29.88 55.4957 29.88C55.2547 29.88 55.0404 29.8317 54.8529 29.7351C54.6654 29.637 54.518 29.4898 54.4109 29.2935C54.3037 29.0957 54.2502 28.8466 54.2502 28.5461V26.3015H54.8428V28.5093C54.8428 28.7669 54.9215 28.9723 55.0789 29.1256C55.2379 29.279 55.4405 29.3556 55.6866 29.3556C55.8339 29.3556 55.9838 29.3211 56.1361 29.2521C56.2901 29.1831 56.419 29.0773 56.5228 28.9348C56.6283 28.7922 56.681 28.6105 56.681 28.3897Z" fill="#7D807E"/>
<path d="M58.7835 29.834V26.3015H59.356V26.835H59.3962C59.4665 26.6603 59.5938 26.5184 59.7779 26.4096C59.9621 26.3007 60.1697 26.2463 60.4007 26.2463C60.4442 26.2463 60.4986 26.2471 60.5639 26.2486C60.6292 26.2501 60.6786 26.2524 60.7121 26.2555V26.8074C60.692 26.8028 60.646 26.7959 60.574 26.7868C60.5037 26.776 60.4292 26.7707 60.3505 26.7707C60.163 26.7707 59.9956 26.8067 59.8482 26.8787C59.7026 26.9493 59.5871 27.0474 59.5017 27.1731C59.418 27.2973 59.3761 27.4391 59.3761 27.5986V29.834H58.7835Z" fill="#7D807E"/>
<path d="M64.2521 29.834V26.3015H64.8247V26.835H64.8648C64.9352 26.6603 65.0624 26.5184 65.2465 26.4096C65.4307 26.3007 65.6383 26.2463 65.8693 26.2463C65.9129 26.2463 65.9673 26.2471 66.0326 26.2486C66.0979 26.2501 66.1472 26.2524 66.1807 26.2555V26.8074C66.1606 26.8028 66.1146 26.7959 66.0426 26.7868C65.9723 26.776 65.8978 26.7707 65.8191 26.7707C65.6316 26.7707 65.4642 26.8067 65.3169 26.8787C65.1712 26.9493 65.0557 27.0474 64.9703 27.1731C64.8866 27.2973 64.8447 27.4391 64.8447 27.5986V29.834H64.2521Z" fill="#7D807E"/>
<path d="M68.8074 29.9076C68.4357 29.9076 68.1151 29.8324 67.8456 29.6822C67.5777 29.5304 67.3709 29.3188 67.2253 29.0474C67.0813 28.7745 67.0093 28.4572 67.0093 28.0953C67.0093 27.7335 67.0813 27.4146 67.2253 27.1386C67.3709 26.8611 67.5735 26.6449 67.833 26.4901C68.0942 26.3337 68.3989 26.2555 68.7471 26.2555C68.948 26.2555 69.1464 26.2862 69.3423 26.3475C69.5381 26.4088 69.7164 26.5085 69.8772 26.6465C70.0379 26.7829 70.1659 26.9638 70.2614 27.1892C70.3568 27.4146 70.4045 27.6921 70.4045 28.0217V28.2517H67.4312V27.7826H69.8018C69.8018 27.5832 69.7583 27.4054 69.6712 27.249C69.5859 27.0926 69.4636 26.9692 69.3046 26.8787C69.1472 26.7883 68.9614 26.7431 68.7471 26.7431C68.511 26.7431 68.3068 26.7967 68.1344 26.904C67.9636 27.0098 67.8322 27.1478 67.7401 27.318C67.648 27.4882 67.602 27.6706 67.602 27.8654V28.1781C67.602 28.4449 67.6522 28.671 67.7526 28.8566C67.8548 29.0406 67.9962 29.1808 68.177 29.2774C68.3579 29.3725 68.568 29.42 68.8074 29.42C68.9631 29.42 69.1037 29.4001 69.2293 29.3602C69.3565 29.3188 69.4661 29.2575 69.5582 29.1762C69.6503 29.0934 69.7215 28.9907 69.7717 28.8681L70.3442 29.0153C70.284 29.1931 70.1827 29.3495 70.0404 29.4844C69.8981 29.6178 69.7223 29.7221 69.513 29.7972C69.3038 29.8708 69.0685 29.9076 68.8074 29.9076Z" fill="#7D807E"/>
<path d="M73.4078 26.3015V26.7615H71.4089V26.3015H73.4078ZM71.9915 25.4552H72.5842V28.8221C72.5842 28.9754 72.6084 29.0904 72.657 29.167C72.7072 29.2422 72.7708 29.2928 72.8478 29.3188C72.9265 29.3434 73.0094 29.3556 73.0965 29.3556C73.1618 29.3556 73.2153 29.3526 73.2572 29.3464C73.299 29.3388 73.3325 29.3326 73.3576 29.328L73.4782 29.8156C73.438 29.8294 73.3819 29.8432 73.3099 29.857C73.2379 29.8723 73.1467 29.88 73.0362 29.88C72.8688 29.88 72.7047 29.847 72.544 29.7811C72.3849 29.7152 72.2527 29.6147 72.1472 29.4798C72.0434 29.3449 71.9915 29.1747 71.9915 28.9693V25.4552Z" fill="#7D807E"/>
<path d="M74.7236 29.834V26.3015H75.3163V29.834H74.7236ZM75.025 25.7127C74.9095 25.7127 74.8098 25.6767 74.7261 25.6047C74.6441 25.5326 74.6031 25.446 74.6031 25.3448C74.6031 25.2436 74.6441 25.157 74.7261 25.0849C74.8098 25.0128 74.9095 24.9768 75.025 24.9768C75.1405 24.9768 75.2393 25.0128 75.3213 25.0849C75.405 25.157 75.4469 25.2436 75.4469 25.3448C75.4469 25.446 75.405 25.5326 75.3213 25.6047C75.2393 25.6767 75.1405 25.7127 75.025 25.7127Z" fill="#7D807E"/>
<path d="M76.826 29.834V26.3015H77.3986V26.835H77.4388C77.5091 26.6603 77.6363 26.5184 77.8205 26.4096C78.0047 26.3007 78.2123 26.2463 78.4433 26.2463C78.4868 26.2463 78.5412 26.2471 78.6065 26.2486C78.6718 26.2501 78.7212 26.2524 78.7547 26.2555V26.8074C78.7346 26.8028 78.6886 26.7959 78.6166 26.7868C78.5462 26.776 78.4718 26.7707 78.3931 26.7707C78.2056 26.7707 78.0381 26.8067 77.8908 26.8787C77.7452 26.9493 77.6296 27.0474 77.5443 27.1731C77.4606 27.2973 77.4187 27.4391 77.4187 27.5986V29.834H76.826Z" fill="#7D807E"/>
<path d="M81.3813 29.9076C81.0097 29.9076 80.6891 29.8324 80.4195 29.6822C80.1517 29.5304 79.9449 29.3188 79.7992 29.0474C79.6553 28.7745 79.5833 28.4572 79.5833 28.0953C79.5833 27.7335 79.6553 27.4146 79.7992 27.1386C79.9449 26.8611 80.1475 26.6449 80.407 26.4901C80.6681 26.3337 80.9728 26.2555 81.3211 26.2555C81.522 26.2555 81.7203 26.2862 81.9162 26.3475C82.1121 26.4088 82.2904 26.5085 82.4511 26.6465C82.6118 26.7829 82.7399 26.9638 82.8353 27.1892C82.9308 27.4146 82.9785 27.6921 82.9785 28.0217V28.2517H80.0052V27.7826H82.3758C82.3758 27.5832 82.3322 27.4054 82.2452 27.249C82.1598 27.0926 82.0376 26.9692 81.8786 26.8787C81.7212 26.7883 81.5353 26.7431 81.3211 26.7431C81.085 26.7431 80.8808 26.7967 80.7083 26.904C80.5376 27.0098 80.4061 27.1478 80.3141 27.318C80.222 27.4882 80.1759 27.6706 80.1759 27.8654V28.1781C80.1759 28.4449 80.2262 28.671 80.3266 28.8566C80.4287 29.0406 80.5702 29.1808 80.751 29.2774C80.9318 29.3725 81.1419 29.42 81.3813 29.42C81.537 29.42 81.6777 29.4001 81.8032 29.3602C81.9305 29.3188 82.0401 29.2575 82.1322 29.1762C82.2243 29.0934 82.2954 28.9907 82.3456 28.8681L82.9182 29.0153C82.8579 29.1931 82.7566 29.3495 82.6143 29.4844C82.472 29.6178 82.2963 29.7221 82.087 29.7972C81.8777 29.8708 81.6425 29.9076 81.3813 29.9076Z" fill="#7D807E"/>
<path d="M84.3043 29.834V26.3015H84.8769V26.8534H84.9271C85.0074 26.6649 85.1372 26.5184 85.3163 26.4142C85.4955 26.3084 85.7106 26.2555 85.9617 26.2555C86.2162 26.2555 86.428 26.3084 86.5971 26.4142C86.7678 26.5184 86.9009 26.6649 86.9963 26.8534H87.0365C87.1353 26.671 87.2835 26.5261 87.481 26.4188C87.6786 26.3099 87.9155 26.2555 88.1917 26.2555C88.5366 26.2555 88.8187 26.3544 89.038 26.5522C89.2573 26.7484 89.3669 27.0543 89.3669 27.4698V29.834H88.7743V27.4698C88.7743 27.2091 88.6964 27.0229 88.5407 26.9109C88.3851 26.799 88.2017 26.7431 87.9908 26.7431C87.7196 26.7431 87.5095 26.8182 87.3605 26.9684C87.2115 27.1172 87.137 27.3057 87.137 27.5342V29.834H86.5343V27.4146C86.5343 27.2137 86.4631 27.052 86.3208 26.9293C86.1785 26.8052 85.9952 26.7431 85.7709 26.7431C85.6168 26.7431 85.4729 26.7806 85.3389 26.8557C85.2067 26.9309 85.0995 27.0351 85.0175 27.1685C84.9371 27.3004 84.897 27.4529 84.897 27.6262V29.834H84.3043Z" fill="#7D807E"/>
<path d="M92.4921 29.9076C92.1204 29.9076 91.7998 29.8324 91.5303 29.6822C91.2624 29.5304 91.0556 29.3188 90.91 29.0474C90.766 28.7745 90.694 28.4572 90.694 28.0953C90.694 27.7335 90.766 27.4146 90.91 27.1386C91.0556 26.8611 91.2582 26.6449 91.5177 26.4901C91.7789 26.3337 92.0836 26.2555 92.4318 26.2555C92.6327 26.2555 92.8311 26.2862 93.027 26.3475C93.2228 26.4088 93.4011 26.5085 93.5619 26.6465C93.7226 26.7829 93.8506 26.9638 93.9461 27.1892C94.0415 27.4146 94.0892 27.6921 94.0892 28.0217V28.2517H91.1159V27.7826H93.4865C93.4865 27.5832 93.443 27.4054 93.3559 27.249C93.2706 27.0926 93.1483 26.9692 92.9893 26.8787C92.8319 26.7883 92.6461 26.7431 92.4318 26.7431C92.1958 26.7431 91.9915 26.7967 91.8191 26.904C91.6483 27.0098 91.5169 27.1478 91.4248 27.318C91.3327 27.4882 91.2867 27.6706 91.2867 27.8654V28.1781C91.2867 28.4449 91.3369 28.671 91.4374 28.8566C91.5395 29.0406 91.6809 29.1808 91.8618 29.2774C92.0426 29.3725 92.2527 29.42 92.4921 29.42C92.6478 29.42 92.7884 29.4001 92.914 29.3602C93.0412 29.3188 93.1508 29.2575 93.2429 29.1762C93.335 29.0934 93.4062 28.9907 93.4564 28.8681L94.0289 29.0153C93.9687 29.1931 93.8674 29.3495 93.7251 29.4844C93.5828 29.6178 93.407 29.7221 93.1977 29.7972C92.9885 29.8708 92.7532 29.9076 92.4921 29.9076Z" fill="#7D807E"/>
<path d="M96.0077 27.709V29.834H95.415V26.3015H95.9876V26.8534H96.0378C96.1282 26.6741 96.2655 26.5299 96.4497 26.4211C96.6338 26.3107 96.8716 26.2555 97.1629 26.2555C97.424 26.2555 97.6526 26.3046 97.8484 26.4027C98.0443 26.4993 98.1967 26.6465 98.3055 26.8442C98.4143 27.0405 98.4687 27.2889 98.4687 27.5894V29.834H97.8761V27.6262C97.8761 27.3487 97.7974 27.1325 97.64 26.9776C97.4826 26.8212 97.2667 26.7431 96.9921 26.7431C96.8029 26.7431 96.6338 26.7806 96.4848 26.8557C96.3375 26.9309 96.2212 27.0405 96.1358 27.1846C96.0504 27.3287 96.0077 27.5035 96.0077 27.709Z" fill="#7D807E"/>
<path d="M101.653 26.3015V26.7615H99.6545V26.3015H101.653ZM100.237 25.4552H100.83V28.8221C100.83 28.9754 100.854 29.0904 100.903 29.167C100.953 29.2422 101.016 29.2928 101.093 29.3188C101.172 29.3434 101.255 29.3556 101.342 29.3556C101.407 29.3556 101.461 29.3526 101.503 29.3464C101.545 29.3388 101.578 29.3326 101.603 29.328L101.724 29.8156C101.684 29.8294 101.628 29.8432 101.556 29.857C101.484 29.8723 101.392 29.88 101.282 29.88C101.114 29.88 100.95 29.847 100.79 29.7811C100.631 29.7152 100.498 29.6147 100.393 29.4798C100.289 29.3449 100.237 29.1747 100.237 28.9693V25.4552Z" fill="#7D807E"/>
<path d="M105.382 31.1587V26.3015H105.955V26.8626H106.025C106.069 26.8013 106.129 26.7231 106.206 26.6281C106.285 26.5315 106.397 26.4456 106.543 26.3705C106.69 26.2938 106.889 26.2555 107.14 26.2555C107.465 26.2555 107.751 26.3299 107.999 26.4786C108.247 26.6273 108.44 26.8381 108.579 27.111C108.718 27.3839 108.788 27.7059 108.788 28.0769C108.788 28.451 108.718 28.7753 108.579 29.0497C108.44 29.3227 108.248 29.5342 108.002 29.6845C107.756 29.8332 107.472 29.9076 107.15 29.9076C106.903 29.9076 106.704 29.87 106.555 29.7949C106.406 29.7182 106.292 29.6316 106.211 29.535C106.131 29.4369 106.069 29.3556 106.025 29.2912H105.975V31.1587H105.382ZM105.965 28.0677C105.965 28.3345 106.008 28.5699 106.093 28.7738C106.179 28.9762 106.303 29.1348 106.467 29.2498C106.631 29.3633 106.832 29.42 107.07 29.42C107.318 29.42 107.525 29.3602 107.69 29.2406C107.858 29.1195 107.983 28.957 108.067 28.7531C108.152 28.5476 108.195 28.3192 108.195 28.0677C108.195 27.8194 108.153 27.5955 108.069 27.3962C107.987 27.1953 107.863 27.0367 107.695 26.9201C107.53 26.8021 107.321 26.7431 107.07 26.7431C106.829 26.7431 106.626 26.799 106.462 26.9109C106.298 27.0213 106.174 27.1762 106.091 27.3755C106.007 27.5733 105.965 27.804 105.965 28.0677Z" fill="#7D807E"/>
<path d="M110.709 25.124V29.834H110.116V25.124H110.709Z" fill="#7D807E"/>
<path d="M113.354 29.9168C113.109 29.9168 112.887 29.8746 112.688 29.7903C112.489 29.7044 112.331 29.581 112.213 29.42C112.096 29.2575 112.038 29.0612 112.038 28.8313C112.038 28.6289 112.081 28.4648 112.168 28.3391C112.255 28.2119 112.372 28.1122 112.517 28.0401C112.663 27.9681 112.824 27.9144 112.999 27.8792C113.177 27.8424 113.355 27.8132 113.534 27.7918C113.769 27.7642 113.959 27.7435 114.104 27.7297C114.252 27.7143 114.359 27.689 114.426 27.6538C114.494 27.6185 114.529 27.5572 114.529 27.4698V27.4514C114.529 27.2245 114.461 27.0482 114.325 26.9224C114.191 26.7967 113.988 26.7339 113.715 26.7339C113.432 26.7339 113.21 26.7906 113.05 26.904C112.889 27.0175 112.776 27.1386 112.711 27.2674L112.148 27.0834C112.249 26.8688 112.383 26.7017 112.55 26.5821C112.719 26.4609 112.903 26.3766 113.102 26.3291C113.303 26.28 113.501 26.2555 113.695 26.2555C113.819 26.2555 113.961 26.2693 114.122 26.2969C114.284 26.323 114.441 26.3774 114.592 26.4602C114.744 26.543 114.87 26.6679 114.971 26.835C115.071 27.0022 115.121 27.226 115.121 27.5066V29.834H114.529V29.3556H114.499C114.458 29.4323 114.392 29.5143 114.298 29.6017C114.204 29.6891 114.079 29.7635 113.924 29.8248C113.768 29.8861 113.578 29.9168 113.354 29.9168ZM113.444 29.4292C113.678 29.4292 113.876 29.3871 114.037 29.3027C114.199 29.2184 114.321 29.1095 114.403 28.9762C114.487 28.8428 114.529 28.7025 114.529 28.5553V28.0585C114.504 28.0861 114.448 28.1114 114.363 28.1344C114.279 28.1559 114.182 28.1751 114.072 28.1919C113.963 28.2073 113.857 28.2211 113.753 28.2333C113.651 28.2441 113.568 28.2533 113.504 28.2609C113.35 28.2793 113.206 28.3092 113.072 28.3506C112.94 28.3905 112.833 28.451 112.751 28.5323C112.67 28.612 112.63 28.7209 112.63 28.8589C112.63 29.0475 112.706 29.19 112.859 29.2866C113.013 29.3817 113.208 29.4292 113.444 29.4292Z" fill="#7D807E"/>
<path d="M117.22 27.709V29.834H116.627V26.3015H117.2V26.8534H117.25C117.341 26.6741 117.478 26.5299 117.662 26.4211C117.846 26.3107 118.084 26.2555 118.375 26.2555C118.636 26.2555 118.865 26.3046 119.061 26.4027C119.257 26.4993 119.409 26.6465 119.518 26.8442C119.627 27.0405 119.681 27.2889 119.681 27.5894V29.834H119.088V27.6262C119.088 27.3487 119.01 27.1325 118.852 26.9776C118.695 26.8212 118.479 26.7431 118.204 26.7431C118.015 26.7431 117.846 26.7806 117.697 26.8557C117.55 26.9309 117.434 27.0405 117.348 27.1846C117.263 27.3287 117.22 27.5035 117.22 27.709Z" fill="#7D807E"/>
</svg>
