<svg width="49" height="48" viewBox="0 0 49 48" fill="none" xmlns="http://www.w3.org/2000/svg">
<path d="M40.5956 24.6376C40.7652 24.5115 40.9206 24.3606 41.055 24.1844C41.4291 23.694 41.5896 23.0855 41.507 22.4709C41.4243 21.8563 41.1088 21.3119 40.6185 20.9377L34.3479 16.1535L31.8994 11.154C31.7488 10.8465 31.564 10.5645 31.353 10.3106C31.8039 10.2618 32.2476 10.1349 32.6669 9.92948C34.6212 8.97239 35.4325 6.6037 34.4754 4.64948C34.0118 3.7028 33.2072 2.9933 32.2099 2.65177C31.2127 2.31014 30.1421 2.37736 29.1954 2.84114C27.2411 3.79814 26.4298 6.16683 27.3869 8.12105C27.5351 8.42348 27.7182 8.70136 27.9311 8.95101C27.0784 9.10017 26.3256 9.59611 25.7991 10.3794L20.7655 17.8684C19.5738 19.6413 19.5839 20.7611 19.5956 22.0579C19.5969 22.1878 19.598 22.3205 19.598 22.457V28.1322L14.9577 27.1543C14.8939 27.1409 14.8282 27.1409 14.7643 27.1543L7.5469 28.6754C7.33005 28.721 7.1748 28.9124 7.1748 29.1341V36.5275C7.1748 38.527 7.98668 40.5777 9.4608 42.302C10.8881 43.9715 12.8222 45.1566 14.7673 45.5537C14.7983 45.56 14.8297 45.5633 14.8611 45.5633C14.8925 45.5633 14.9239 45.5601 14.9548 45.5537C16.8999 45.1567 18.8339 43.9715 20.2613 42.302C20.544 41.9713 20.8018 41.6284 21.0348 41.2763C21.5705 41.6405 22.2005 41.8374 22.8573 41.8374C24.6545 41.8374 26.1167 40.3752 26.1167 38.578V22.2587L29.5464 17.156L31.3535 19.6703C31.3805 19.7079 31.4129 19.7414 31.4498 19.7694L37.634 24.4877C36.7569 24.9697 36.161 25.9023 36.161 26.9718C36.161 27.2308 36.3709 27.4406 36.6297 27.4406C36.8886 27.4406 37.0985 27.2308 37.0985 26.9718C37.0985 25.9428 37.9235 25.1045 38.9465 25.0792C39.0423 25.0902 39.1384 25.0949 39.2344 25.0939C40.1657 25.2129 40.8884 26.0087 40.8884 26.9718V41.3685C40.8884 41.6275 41.0983 41.8373 41.3572 41.8373C41.616 41.8373 41.8259 41.6275 41.8259 41.3685V26.9718C41.8261 26.0042 41.3381 25.1488 40.5956 24.6376ZM29.6077 3.68311C30.026 3.47817 30.476 3.37486 30.9285 3.37486C31.2567 3.37486 31.5864 3.42923 31.9061 3.53873C32.6664 3.79917 33.2798 4.34011 33.6333 5.06189C33.9868 5.78367 34.038 6.59995 33.7777 7.36027C33.5173 8.12058 32.9763 8.73408 32.2545 9.08761C31.5326 9.44105 30.7165 9.49233 29.9561 9.23189C29.9553 9.23161 29.9546 9.23133 29.9538 9.23105C29.8542 9.18558 29.7531 9.14414 29.6501 9.10776C29.0316 8.81817 28.5335 8.33086 28.2288 7.70873C27.4991 6.21876 28.1176 4.41286 29.6077 3.68311ZM14.8611 44.6154C11.1931 43.8155 8.1123 40.1345 8.1123 36.5275V29.5142L14.8611 28.0919L21.6098 29.5142V36.5275C21.6099 40.1345 18.5291 43.8153 14.8611 44.6154ZM29.9141 16.0613C29.8245 15.9367 29.6827 15.8625 29.5261 15.8662C29.3726 15.8686 29.2301 15.9461 29.1445 16.0734L25.2589 21.8543C25.207 21.9315 25.1792 22.0227 25.1792 22.1158V38.578C25.1792 39.8582 24.1376 40.8999 22.8573 40.8999C22.3715 40.8999 21.9057 40.7484 21.5145 40.4684C22.1871 39.2058 22.5472 37.8556 22.5472 36.5275V29.1341C22.5472 28.9125 22.3919 28.7211 22.1751 28.6754L20.5353 28.3298V22.4571C20.5353 22.3177 20.5341 22.1821 20.5329 22.0495C20.5217 20.8152 20.5136 19.9233 21.5433 18.3915L26.5769 10.9024C27.0734 10.1637 27.8062 9.78726 28.6413 9.8452C28.8761 9.86123 29.1084 9.91261 29.3329 9.99314C29.4051 10.0249 29.4786 10.0545 29.5531 10.0822C30.1825 10.3704 30.7296 10.8975 31.0571 11.5664L33.5543 16.6651C33.5862 16.7305 33.633 16.7875 33.691 16.8316L40.0496 21.6831C40.3408 21.9052 40.5283 22.2293 40.5776 22.5958C40.6268 22.9621 40.5316 23.3244 40.3094 23.6156C40.0872 23.9068 39.7631 24.0942 39.3967 24.1436C39.3569 24.1489 39.3174 24.1517 39.2778 24.1537C39.1848 24.1444 39.0904 24.1395 38.995 24.1395C38.7718 24.1047 38.5602 24.0155 38.3769 23.8755L32.0738 19.0665L29.9141 16.0613ZM19.3786 32.2909C19.5617 32.4739 19.5617 32.7707 19.3786 32.9537L13.9439 38.3885C13.856 38.4764 13.7368 38.5259 13.6124 38.5259C13.488 38.5259 13.3689 38.4764 13.2809 38.3885L10.5636 35.6712C10.3805 35.4882 10.3805 35.1914 10.5636 35.0084C10.7467 34.8253 11.0434 34.8253 11.2265 35.0084L13.6124 37.3942L18.7157 32.2909C18.8988 32.1078 19.1955 32.1078 19.3786 32.2909Z" fill="#1DBF73" stroke="#1DBF73"/>
</svg>
