<svg width="49" height="48" viewBox="0 0 49 48" fill="none" xmlns="http://www.w3.org/2000/svg">
<path d="M26.2884 25.1438C26.2884 24.8438 26.1096 24.5725 25.8338 24.4543L17.9855 21.0909C17.7969 21.01 17.5832 21.01 17.3946 21.0909L9.54633 24.4543C9.27061 24.5725 9.09173 24.8437 9.09173 25.1438V31.4898C9.09173 36.3785 12.5745 40.3999 17.5612 41.2691C17.6039 41.2765 17.6469 41.2802 17.69 41.2802C17.7331 41.2802 17.7762 41.2765 17.8188 41.2691C22.8055 40.3999 26.2883 36.3786 26.2883 31.4898V25.1438H26.2884ZM24.7884 31.4898C24.7884 35.5939 21.8763 38.9804 17.6901 39.768C13.504 38.9805 10.5918 35.594 10.5918 31.4898V25.6383L17.6901 22.5962L24.7884 25.6383V31.4898ZM17.6901 27.0516C18.1043 27.0516 18.4401 27.3874 18.4401 27.8016V27.9033C19.1055 28.1031 19.6582 28.5793 19.9419 29.2549C20.1023 29.6367 19.9227 30.0764 19.5407 30.2367C19.1594 30.397 18.7192 30.2176 18.5589 29.8356C18.3296 29.2897 17.7566 29.26 17.4543 29.3287C17.3233 29.3584 16.8971 29.4855 16.9158 29.8724C16.9204 29.9661 16.9342 30.2512 17.8166 30.3961C19.2228 30.6269 19.9996 31.2693 20.1255 32.3055C20.1894 32.8318 20.0464 33.3145 19.712 33.7011C19.4126 34.0473 18.9604 34.3001 18.4402 34.4241V34.5089C18.4402 34.9231 18.1044 35.2589 17.6902 35.2589C17.276 35.2589 16.9402 34.9231 16.9402 34.5089V34.4109C16.1021 34.1836 15.4664 33.5811 15.2624 32.7622C15.1622 32.3603 15.4068 31.9532 15.8087 31.8531C16.211 31.7528 16.6176 31.9976 16.7178 32.3995C16.834 32.8652 17.342 33.0191 17.7415 33.0095C18.0935 33.0011 18.4373 32.8821 18.5775 32.7198C18.6235 32.6667 18.651 32.6066 18.6365 32.4864C18.6203 32.3533 18.5825 32.0419 17.5736 31.8763C15.7648 31.5791 15.4465 30.5387 15.4177 29.9451C15.3719 29.0019 15.977 28.2058 16.9402 27.914V27.8017C16.9401 27.3874 17.2759 27.0516 17.6901 27.0516ZM11.6404 31.1552C11.6404 34.491 14.3543 37.2049 17.6901 37.2049C21.0258 37.2049 23.7397 34.491 23.7397 31.1552C23.7397 27.8194 21.0258 25.1056 17.6901 25.1056C14.3543 25.1056 11.6404 27.8194 11.6404 31.1552ZM22.2398 31.1552C22.2398 33.664 20.1988 35.7049 17.6902 35.7049C15.1815 35.7049 13.1405 33.6639 13.1405 31.1552C13.1405 28.6465 15.1815 26.6056 17.6902 26.6056C20.1988 26.6056 22.2398 28.6465 22.2398 31.1552ZM33.189 41.4647C33.0901 41.1533 32.8009 40.9417 32.4742 40.9417H31.6329L31.6375 13.198C31.6375 12.7043 31.589 12.2159 31.4963 11.7364C34.0242 11.8664 34.682 10.3875 34.835 9.85127C35.2184 8.50736 34.4313 6.94436 33.1841 6.57208L20.6065 2.81702C19.2731 2.41886 17.9187 2.58358 16.6901 3.29308L9.69042 7.33436L8.80167 7.09624L9.01758 6.26186C9.24623 5.37752 8.71299 4.4718 7.82855 4.24286L5.9062 3.74542C5.02205 3.51686 4.11623 4.05002 3.8873 4.93436L1.30327 14.9202C1.19264 15.3477 1.25555 15.7934 1.48064 16.1755C1.70545 16.5574 2.0648 16.8287 2.4923 16.9392L4.41455 17.4367C4.5532 17.4725 4.69233 17.4896 4.8293 17.4896C5.56617 17.4896 6.2407 16.9934 6.43364 16.2477L6.60192 15.5975L11.5161 16.9207C12.1785 17.0991 12.8942 17.2495 13.6221 17.2495C14.3961 17.2495 15.1837 17.0793 15.935 16.592C16.0205 16.5365 16.1095 16.4776 16.2012 16.416V16.4618C16.2012 17.6079 17.1336 18.5402 18.2797 18.5402C19.4258 18.5402 20.3581 17.6078 20.3581 16.4618V13.6918C20.7186 13.4904 21.0864 13.2982 21.4596 13.1223C21.4902 13.1079 21.5198 13.0915 21.548 13.0731C22.7031 12.324 23.089 10.8385 22.4265 9.69114C22.3781 9.60733 22.3267 9.52764 22.2724 9.45208C22.4373 9.47121 22.6032 9.50364 22.7712 9.5493L26.2165 10.4866C27.0211 11.1692 27.4806 12.149 27.4806 13.1981L27.4851 40.9417H26.6435C26.3168 40.9417 26.0276 41.1533 25.9287 41.4647L24.9912 44.4182C24.9189 44.6462 24.9595 44.8949 25.1008 45.0881C25.242 45.2811 25.4669 45.3951 25.706 45.3951H33.4118C33.651 45.3951 33.8758 45.281 34.017 45.0881C34.1583 44.8949 34.1989 44.6462 34.1266 44.4182L33.189 41.4647ZM4.7903 15.9846L2.86805 15.4871C2.81733 15.474 2.78836 15.4403 2.77308 15.4144C2.7578 15.3885 2.74233 15.3469 2.75545 15.2961L5.33948 5.31021C5.35748 5.24046 5.42311 5.19292 5.49267 5.19292C5.50533 5.19292 5.51798 5.19442 5.53055 5.19771L7.4528 5.69505C7.5352 5.71642 7.58677 5.80399 7.56539 5.88621L7.16498 7.43374C7.16498 7.43383 7.16489 7.43392 7.16489 7.43402C7.16489 7.43411 7.16489 7.4343 7.1648 7.43439L4.98145 15.872C4.96008 15.9542 4.87317 16.0058 4.7903 15.9846ZM18.858 16.4618C18.858 16.7807 18.5985 17.0402 18.2796 17.0402C17.9607 17.0402 17.7011 16.7807 17.7011 16.4618V15.3793C18.0675 15.1264 18.4542 14.8637 18.858 14.6016V16.4618ZM19.8843 8.39036L19.1781 8.70827C19.1734 8.71042 19.1552 8.71905 19.1507 8.7213C18.2707 9.16108 17.4753 9.63789 16.6333 10.1426C16.252 10.3712 15.8577 10.6075 15.4547 10.8401C15.096 11.0472 14.973 11.506 15.1802 11.8646C15.3191 12.1052 15.5712 12.2397 15.8305 12.2397C15.9576 12.2397 16.0866 12.2073 16.2047 12.1391C16.6183 11.9004 17.018 11.6607 17.4045 11.4291C18.2112 10.9455 18.9739 10.4887 19.791 10.0785C20.4007 9.83955 20.8502 9.96096 21.1275 10.4411C21.3882 10.8927 21.2333 11.4651 20.7688 11.7897C19.0627 12.6004 17.5074 13.6844 16.2554 14.5571C15.821 14.8599 15.446 15.1212 15.1187 15.3336C14.342 15.8375 13.4112 15.8777 11.9061 15.4723L6.97767 14.1453L8.42592 8.54842L9.6023 8.86361C9.7943 8.91499 9.99905 8.88808 10.1714 8.78871L17.4401 4.59208C18.3149 4.08696 19.2359 3.97314 20.1773 4.2543L32.755 8.00936C33.2232 8.14905 33.5509 8.88433 33.3925 9.4398C33.1567 10.2666 31.8731 10.471 30.0425 9.97296L23.1649 8.10189C22.0624 7.80217 20.9898 7.8963 19.8843 8.39036ZM28.9806 13.198C28.9806 12.4672 28.8229 11.761 28.5301 11.116L29.6489 11.4204C29.7327 11.4431 29.8131 11.4626 29.8944 11.4829C30.055 12.0387 30.1376 12.6137 30.1376 13.1979L30.133 40.9417H28.9851L28.9806 13.198ZM26.7309 43.8951L27.1922 42.4417H31.9255L32.3868 43.8951H26.7309ZM4.77492 14.377C4.81458 14.7155 4.57242 15.022 4.23389 15.0616C3.89545 15.1013 3.58898 14.859 3.54933 14.5206C3.50967 14.1821 3.75192 13.8757 4.09036 13.836C4.4288 13.7965 4.73527 14.0386 4.77492 14.377ZM45.8151 26.2974C47.0176 24.955 47.7506 23.1838 47.7506 21.244C47.7506 17.0631 44.3491 13.6616 40.1681 13.6616C35.987 13.6616 32.5856 17.0631 32.5856 21.244C32.5856 23.1838 33.3186 24.955 34.521 26.2974C33.4194 26.5141 32.5857 27.487 32.5857 28.6512V29.862C32.5857 30.5005 32.8368 31.0811 33.2448 31.5114C32.8367 31.9417 32.5857 32.5222 32.5857 33.1606V34.3715C32.5857 35.0099 32.8368 35.5904 33.2448 36.0207C32.8367 36.451 32.5857 37.0316 32.5857 37.6701V38.881C32.5857 40.2039 33.6619 41.2802 34.985 41.2802H45.3512C46.6742 41.2802 47.7506 40.204 47.7506 38.881V37.6701C47.7506 37.0316 47.4994 36.451 47.0914 36.0207C47.4995 35.5904 47.7506 35.0099 47.7506 34.3715V33.1606C47.7506 32.5222 47.4994 31.9417 47.0914 31.5114C47.4995 31.0811 47.7506 30.5006 47.7506 29.862V28.6512C47.7506 27.487 46.9169 26.5141 45.8151 26.2974ZM40.1681 15.1616C43.522 15.1616 46.2506 17.8902 46.2506 21.2441C46.2506 24.598 43.5221 27.3265 40.1681 27.3265C36.8141 27.3265 34.0856 24.598 34.0856 21.2441C34.0856 17.8902 36.8141 15.1616 40.1681 15.1616ZM34.0857 28.6513C34.0857 28.1555 34.4892 27.752 34.985 27.752H36.2822C37.4194 28.4335 38.7486 28.8265 40.1681 28.8265C41.5876 28.8265 42.9167 28.4335 44.0539 27.752H45.3512C45.8471 27.752 46.2506 28.1555 46.2506 28.6513V29.8621C46.2506 30.358 45.8471 30.7615 45.3512 30.7615H34.985C34.4892 30.7615 34.0857 30.358 34.0857 29.8621V28.6513ZM46.2506 33.1607V34.3716C46.2506 34.8674 45.8471 35.2708 45.3512 35.2708H34.985C34.4892 35.2708 34.0857 34.8674 34.0857 34.3716V33.1607C34.0857 32.6649 34.4892 32.2615 34.985 32.2615H45.3512C45.8471 32.2615 46.2506 32.6648 46.2506 33.1607ZM46.2506 38.881C46.2506 39.3768 45.8471 39.7802 45.3512 39.7802H34.985C34.4892 39.7802 34.0857 39.3768 34.0857 38.881V37.6701C34.0857 37.1742 34.4892 36.7707 34.985 36.7707H45.3512C45.8471 36.7707 46.2506 37.1742 46.2506 37.6701V38.881ZM41.4762 23.403C41.5879 23.2738 41.6271 23.1291 41.6035 22.9338C41.562 22.592 41.3482 22.1723 40.0529 21.9595C37.9808 21.6194 37.4964 20.5285 37.455 19.6734C37.3984 18.5118 38.1849 17.5377 39.4181 17.2305V16.9205C39.4181 16.5063 39.7539 16.1705 40.1681 16.1705C40.5823 16.1705 40.9181 16.5063 40.9181 16.9205V17.2238C41.717 17.4136 42.4726 17.9293 42.8711 18.8781C43.0315 19.26 42.8519 19.6996 42.47 19.8599C42.0883 20.0202 41.6485 19.8408 41.4881 19.4588C41.1807 18.7268 40.4265 18.5392 39.816 18.6775C39.666 18.7116 38.9198 18.9159 38.9531 19.6005C38.962 19.7821 38.9853 20.2642 40.2958 20.4793C42.0024 20.7595 42.9433 21.5245 43.0924 22.753C43.1672 23.3692 43.0006 23.9332 42.6105 24.3841C42.2223 24.833 41.6149 25.1506 40.918 25.2832V25.5675C40.918 25.9817 40.5822 26.3175 40.168 26.3175C39.7538 26.3175 39.418 25.9817 39.418 25.5675V25.2706C38.3338 25.0329 37.5045 24.2905 37.2482 23.2633C37.1481 22.8614 37.3926 22.4544 37.7945 22.3541C38.1962 22.2539 38.6035 22.4985 38.7037 22.9004C38.8844 23.6251 39.6405 23.8651 40.2392 23.8514C40.7579 23.8391 41.2549 23.6589 41.4762 23.403Z" fill="#1DBF73"/>
</svg>
