<svg width="49" height="48" viewBox="0 0 49 48" fill="none" xmlns="http://www.w3.org/2000/svg">
<path d="M44.6596 17.5235H41.7989V17.2023C41.7989 16.4026 41.1483 15.7521 40.3486 15.7521H34.7066C34.3177 15.7521 34.0024 16.0672 34.0024 16.4562C34.0024 16.8451 34.3177 17.1603 34.7066 17.1603H40.3486C40.3718 17.1603 40.3907 17.1791 40.3907 17.2023V25.7876C40.3907 26.1765 40.7059 26.4917 41.0948 26.4917C41.4837 26.4917 41.7989 26.1765 41.7989 25.7876V18.9318H44.6596C44.7548 18.9318 44.8323 19.0092 44.8323 19.1044V43.6696C44.8323 45.2809 43.5214 46.5917 41.9101 46.5917H7.08922C5.47791 46.5917 4.16703 45.2809 4.16703 43.6696V19.1044C4.16703 19.0092 4.24448 18.9318 4.33968 18.9318H7.29426V43.0139C7.29426 44.0068 8.10202 44.8146 9.09502 44.8146H39.9981C40.9911 44.8146 41.7988 44.0069 41.7988 43.0139V28.7908C41.7988 28.4018 41.4836 28.0866 41.0947 28.0866C40.7058 28.0866 40.3906 28.4018 40.3906 28.7908V38.9236H28.9985C27.523 38.9236 26.1914 39.5475 25.2507 40.5442V31.4362C25.2507 31.0472 24.9354 30.7321 24.5466 30.7321C24.1577 30.7321 23.8425 31.0472 23.8425 31.4362V40.5443C22.9018 39.5476 21.57 38.9237 20.0947 38.9237H16.8952C16.5063 38.9237 16.191 39.2389 16.191 39.6278C16.191 40.0168 16.5063 40.3319 16.8952 40.3319H20.0947C21.9313 40.3319 23.4625 41.6603 23.7808 43.4064H9.09502C8.87852 43.4064 8.70249 43.2304 8.70249 43.0139V40.3319H13.8919C14.2807 40.3319 14.596 40.0168 14.596 39.6278C14.596 39.2389 14.2807 38.9237 13.8919 38.9237H8.70249V17.2023C8.70249 17.1791 8.72136 17.1603 8.74455 17.1603H14.3866C14.7755 17.1603 15.0907 16.8451 15.0907 16.4562C15.0907 16.0672 14.7755 15.7521 14.3866 15.7521H8.74455C7.94486 15.7521 7.29426 16.4027 7.29426 17.2023V17.5235H4.33968C3.46798 17.5235 2.75879 18.2327 2.75879 19.1044V43.6696C2.75879 46.0574 4.70141 48 7.08922 48H41.9099C44.2977 48 46.2403 46.0574 46.2403 43.6696V19.1044C46.2404 18.2327 45.5313 17.5235 44.6596 17.5235ZM28.9985 40.3318H40.3906V43.0139C40.3906 43.2304 40.2146 43.4064 39.9981 43.4064H25.3125C25.6306 41.6602 27.1619 40.3318 28.9985 40.3318Z" fill="#1DBF73"/>
<path d="M15.1587 9.87936C15.5452 9.91522 15.8893 9.6316 15.9258 9.24443C16.1272 7.10916 17.1131 5.13218 18.7024 3.67776C20.3015 2.21431 22.377 1.40824 24.5466 1.40824C29.3217 1.40824 33.2066 5.2931 33.2066 10.0682C33.2066 11.865 32.6612 13.5881 31.6296 15.0515C31.6237 15.0598 31.6181 15.0682 31.6126 15.0767L27.1068 22.0914C27.0338 22.205 26.995 22.337 26.995 22.472V23.3842C26.995 23.5693 26.8445 23.7199 26.6593 23.7199H26.6133L27.0619 16.1084H27.864C29.0118 16.1084 29.9456 15.1746 29.9456 14.0269V13.9415C29.9456 12.7938 29.0118 11.86 27.864 11.86C26.7636 11.86 25.8509 12.7205 25.7861 13.819L25.7342 14.7001H23.265L23.2131 13.819C23.1484 12.7205 22.2356 11.86 21.1352 11.86C19.9874 11.86 19.0536 12.7938 19.0536 13.9415V14.0269C19.0536 15.1746 19.9874 16.1084 21.1352 16.1084H21.9373L22.3856 23.715C22.2235 23.6914 22.0981 23.5528 22.0981 23.3842V22.472C22.0981 22.337 22.0594 22.205 21.9865 22.0914L17.4806 15.0767C17.4752 15.0682 17.4695 15.0598 17.4637 15.0515C16.8158 14.1324 16.3596 13.1111 16.1079 12.0157C16.0206 11.6367 15.6423 11.4003 15.2638 11.4873C14.8848 11.5745 14.6483 11.9523 14.7354 12.3313C15.0272 13.6005 15.5549 14.7843 16.3039 15.8502L20.6901 22.6785V23.384C20.6901 24.095 21.1183 24.707 21.7299 24.9782V26.1689C21.7299 27.4219 22.7492 28.4412 24.0022 28.4412H25.0916C26.3444 28.4412 27.3638 27.4219 27.3638 26.1689V24.9782C27.9754 24.707 28.4037 24.0951 28.4037 23.384V22.6785L32.7898 15.8502C33.9839 14.1508 34.6151 12.1517 34.6151 10.0681C34.6147 4.5165 30.0981 0 24.5466 0C22.0241 0 19.611 0.93723 17.7516 2.63895C15.9043 4.32977 14.758 6.62858 14.5239 9.11224C14.4873 9.49951 14.7715 9.84293 15.1587 9.87936ZM27.1919 13.9018C27.2128 13.5465 27.5081 13.2681 27.864 13.2681C28.2353 13.2681 28.5373 13.5702 28.5373 13.9414V14.0268C28.5373 14.398 28.2353 14.7 27.864 14.7H27.1449L27.1919 13.9018ZM21.1352 14.7C20.7639 14.7 20.4618 14.398 20.4618 14.0268V13.9414C20.4618 13.5702 20.7639 13.2681 21.1352 13.2681C21.4912 13.2681 21.7863 13.5465 21.8073 13.9018L21.8543 14.7H21.1352ZM25.6512 16.1083L25.2027 23.7198H23.7966L23.3481 16.1083H25.6512ZM25.9552 26.169C25.9552 26.6454 25.5676 27.033 25.0912 27.033H24.0018C23.5254 27.033 23.1378 26.6454 23.1378 26.169V25.128H25.9551V26.169H25.9552Z" fill="#1DBF73"/>
<path d="M36.8803 5.34669C37.0453 5.34669 37.2109 5.28904 37.3446 5.17169L38.8809 3.82278C39.1731 3.5663 39.2019 3.12129 38.9454 2.82913C38.689 2.53697 38.244 2.50805 37.9518 2.76454L36.4155 4.11344C36.1232 4.36993 36.0944 4.81493 36.3509 5.1071C36.4901 5.26567 36.6848 5.34669 36.8803 5.34669Z" fill="#1DBF73"/>
<path d="M36.4155 9.59328L37.9518 10.9423C38.0855 11.0597 38.2511 11.1173 38.4161 11.1173C38.6117 11.1173 38.8063 11.0363 38.9455 10.8777C39.2021 10.5855 39.1732 10.1406 38.881 9.88403L37.3447 8.53503C37.0525 8.27836 36.6077 8.30737 36.3511 8.59962C36.0944 8.89179 36.1232 9.3366 36.4155 9.59328Z" fill="#1DBF73"/>
<path d="M10.2122 3.82277L11.7485 5.17167C11.8822 5.28912 12.0478 5.34667 12.2128 5.34667C12.4083 5.34667 12.6029 5.26565 12.7422 5.10708C12.9988 4.81492 12.9698 4.36992 12.6776 4.11343L11.1413 2.76453C10.8491 2.50785 10.4041 2.53686 10.1476 2.82912C9.89105 3.12128 9.91997 3.56619 10.2122 3.82277Z" fill="#1DBF73"/>
<path d="M10.677 11.1173C10.842 11.1173 11.0076 11.0596 11.1414 10.9423L12.6777 9.59329C12.9698 9.33671 12.9988 8.8918 12.7422 8.59964C12.4857 8.30748 12.0408 8.27856 11.7485 8.53505L10.2122 9.88405C9.92007 10.1406 9.89116 10.5855 10.1477 10.8777C10.2869 11.0363 10.4814 11.1173 10.677 11.1173Z" fill="#1DBF73"/>
<path d="M18.3168 24.424C18.3168 24.035 18.0016 23.7198 17.6127 23.7198H10.6767C10.2879 23.7198 9.97263 24.035 9.97263 24.424C9.97263 24.8129 10.2879 25.1281 10.6767 25.1281H17.6127C18.0016 25.1281 18.3168 24.8129 18.3168 24.424Z" fill="#1DBF73"/>
<path d="M19.7573 27.3015H11.9483C11.5594 27.3015 11.2441 27.6167 11.2441 28.0056C11.2441 28.3946 11.5594 28.7098 11.9483 28.7098H19.7573C20.1462 28.7098 20.4614 28.3946 20.4614 28.0056C20.4614 27.6167 20.1462 27.3015 19.7573 27.3015Z" fill="#1DBF73"/>
<path d="M19.7573 30.7322H11.9483C11.5594 30.7322 11.2441 31.0473 11.2441 31.4363C11.2441 31.8253 11.5594 32.1404 11.9483 32.1404H19.7573C20.1462 32.1404 20.4614 31.8253 20.4614 31.4363C20.4614 31.0473 20.1462 30.7322 19.7573 30.7322Z" fill="#1DBF73"/>
<path d="M19.7573 34.1626H11.9483C11.5594 34.1626 11.2441 34.4778 11.2441 34.8667C11.2441 35.2557 11.5594 35.5708 11.9483 35.5708H19.7573C20.1462 35.5708 20.4614 35.2557 20.4614 34.8667C20.4614 34.4778 20.1462 34.1626 19.7573 34.1626Z" fill="#1DBF73"/>
<path d="M39.1206 24.424C39.1206 24.035 38.8053 23.7198 38.4164 23.7198H31.4805C31.0916 23.7198 30.7764 24.035 30.7764 24.424C30.7764 24.8129 31.0916 25.1281 31.4805 25.1281H38.4164C38.8053 25.1281 39.1206 24.8129 39.1206 24.424Z" fill="#1DBF73"/>
<path d="M37.144 27.3015H29.335C28.9461 27.3015 28.6309 27.6167 28.6309 28.0056C28.6309 28.3946 28.9461 28.7098 29.335 28.7098H37.144C37.5329 28.7098 37.8482 28.3946 37.8482 28.0056C37.8482 27.6167 37.5329 27.3015 37.144 27.3015Z" fill="#1DBF73"/>
<path d="M37.144 30.7322H29.335C28.9461 30.7322 28.6309 31.0473 28.6309 31.4363C28.6309 31.8253 28.9461 32.1404 29.335 32.1404H37.144C37.5329 32.1404 37.8482 31.8253 37.8482 31.4363C37.8482 31.0473 37.5329 30.7322 37.144 30.7322Z" fill="#1DBF73"/>
<path d="M37.144 34.1626H29.335C28.9461 34.1626 28.6309 34.4778 28.6309 34.8667C28.6309 35.2557 28.9461 35.5708 29.335 35.5708H37.144C37.5329 35.5708 37.8482 35.2557 37.8482 34.8667C37.8482 34.4778 37.5329 34.1626 37.144 34.1626Z" fill="#1DBF73"/>
</svg>
