<svg width="272" height="224" viewBox="0 0 272 224" fill="none" xmlns="http://www.w3.org/2000/svg">
<g clip-path="url(#clip0_1007_273)">
<path d="M77.4315 96.1587C75.0667 95.2947 72.4251 96.5226 71.5613 98.8871C70.6973 101.252 71.9252 103.893 74.2901 104.757C76.6549 105.621 79.2965 104.393 80.1605 102.029C81.0239 99.6641 79.796 97.0225 77.4315 96.1587Z" fill="#ECF8FF"/>
<path d="M89.9977 61.7627C87.6328 60.8987 84.9912 62.1266 84.1273 64.4915C83.2633 66.8563 84.4912 69.4979 86.8561 70.3619C89.2209 71.2258 91.8625 69.9979 92.7264 67.6331C93.59 65.2681 92.3621 62.6265 89.9977 61.7627Z" fill="#ECF8FF"/>
<path d="M115.633 178.341C113.268 177.477 110.627 178.705 109.763 181.07C108.899 183.435 110.127 186.076 112.491 186.94C114.856 187.804 117.498 186.576 118.362 184.211C119.226 181.847 117.998 179.205 115.633 178.341Z" fill="#ECF8FF"/>
<path d="M129.931 32.4923C125.202 30.7645 119.919 33.2203 118.191 37.9496C116.463 42.6788 118.918 47.9623 123.648 49.6902C128.378 51.4181 133.66 48.9621 135.388 44.2329C137.116 39.5036 134.66 34.2201 129.931 32.4923Z" fill="#ECF8FF"/>
<path d="M117.365 66.8883C112.636 65.1605 107.353 67.6163 105.625 72.3456C103.897 77.0748 106.353 82.358 111.082 84.0858C115.811 85.8135 121.094 83.3577 122.822 78.6285C124.55 73.8992 122.094 68.6161 117.365 66.8883Z" fill="#ECF8FF"/>
<path d="M104.799 101.284C100.07 99.5558 94.7865 102.012 93.0588 106.741C91.331 111.47 93.7868 116.753 98.5161 118.481C103.245 120.209 108.528 117.753 110.256 113.024C111.984 108.294 109.528 103.011 104.799 101.284Z" fill="#ECF8FF"/>
<path d="M241.636 126.909C244.001 127.773 246.642 126.545 247.506 124.18C248.37 121.816 247.142 119.174 244.777 118.31C242.413 117.446 239.771 118.674 238.907 121.039C238.043 123.404 239.271 126.045 241.636 126.909Z" fill="#ECF8FF"/>
<path d="M203.434 44.7259C205.799 45.5899 208.441 44.362 209.304 41.9972C210.168 39.6327 208.94 36.9912 206.576 36.1272C204.211 35.2632 201.569 36.4911 200.705 38.856C199.842 41.2205 201.07 43.8621 203.434 44.7259Z" fill="#ECF8FF"/>
<path d="M158.043 62.2562C162.773 63.984 168.056 61.5281 169.784 56.7989C171.511 52.0696 169.056 46.7865 164.326 45.0587C159.597 43.3309 154.314 45.7867 152.586 50.516C150.858 55.2452 153.314 60.5284 158.043 62.2562Z" fill="#ECF8FF"/>
<path d="M169.039 32.16C171.404 33.024 174.045 31.7961 174.909 29.4313C175.773 27.0668 174.545 24.4252 172.18 23.5613C169.815 22.6973 167.174 23.9252 166.31 26.2901C165.446 28.6545 166.674 31.2961 169.039 32.16Z" fill="#ECF8FF"/>
<path d="M192.439 74.8223C197.168 76.5501 202.451 74.0943 204.179 69.3651C205.907 64.6358 203.451 59.3526 198.722 57.6249C193.992 55.8971 188.709 58.3529 186.981 63.0821C185.254 67.8114 187.71 73.0946 192.439 74.8223Z" fill="#ECF8FF"/>
<path d="M92.233 135.679C87.5037 133.951 82.2206 136.407 80.4928 141.136C78.765 145.866 81.2208 151.149 85.9501 152.877C90.6793 154.604 95.9624 152.149 97.6901 147.42C99.4181 142.69 96.9622 137.407 92.233 135.679Z" fill="#ECF8FF"/>
<path d="M187.727 87.7206C180.589 85.1131 172.723 88.7694 170.116 95.9066C167.508 103.044 171.165 110.91 178.302 113.517C185.439 116.125 193.305 112.468 195.913 105.331C198.52 98.1939 194.864 90.3281 187.727 87.7206Z" fill="#ECF8FF"/>
<path d="M207.986 138.982C203.256 137.254 197.973 139.71 196.245 144.439C194.518 149.168 196.973 154.451 201.703 156.179C206.432 157.907 211.715 155.451 213.443 150.722C215.171 145.992 212.715 140.709 207.986 138.982Z" fill="#ECF8FF"/>
<path d="M195.42 173.377C190.69 171.649 185.407 174.105 183.679 178.834C181.952 183.564 184.407 188.847 189.137 190.575C193.866 192.303 199.149 189.847 200.877 185.118C202.605 180.388 200.149 175.105 195.42 173.377Z" fill="#ECF8FF"/>
<path d="M220.551 104.586C215.822 102.858 210.539 105.314 208.811 110.044C207.084 114.773 209.539 120.056 214.269 121.784C218.998 123.512 224.281 121.056 226.009 116.326C227.737 111.597 225.281 106.314 220.551 104.586Z" fill="#ECF8FF"/>
<path d="M232.211 152.706C229.847 151.842 227.205 153.07 226.341 155.435C225.477 157.799 226.705 160.441 229.07 161.305C231.435 162.169 234.076 160.941 234.94 158.576C235.804 156.211 234.576 153.57 232.211 152.706Z" fill="#ECF8FF"/>
<path d="M233.118 70.1905C228.388 68.4627 223.105 70.9186 221.377 75.6478C219.65 80.3771 222.105 85.6605 226.835 87.3884C231.564 89.1162 236.847 86.6604 238.575 81.9311C240.303 77.2019 237.847 71.9183 233.118 70.1905Z" fill="#ECF8FF"/>
<path d="M140.765 109.55C133.628 106.942 125.762 110.599 123.155 117.736C120.547 124.873 124.203 132.739 131.341 135.347C138.478 137.954 146.344 134.298 148.951 127.16C151.559 120.023 147.902 112.157 140.765 109.55Z" fill="#ECF8FF"/>
<path d="M126.628 148.245C121.899 146.517 116.616 148.973 114.888 153.702C113.16 158.431 115.616 163.715 120.345 165.442C125.075 167.17 130.358 164.714 132.086 159.985C133.813 155.256 131.358 149.973 126.628 148.245Z" fill="#ECF8FF"/>
<path d="M153.331 75.1546C146.194 72.5471 138.328 76.2035 135.721 83.3407C133.113 90.4779 136.769 98.3438 143.907 100.951C151.044 103.559 158.91 99.9024 161.517 92.7652C164.125 85.628 160.468 77.7621 153.331 75.1546Z" fill="#ECF8FF"/>
<path d="M161.024 160.811C156.295 159.083 151.011 161.539 149.284 166.268C147.556 170.998 150.011 176.281 154.741 178.009C159.47 179.737 164.753 177.281 166.481 172.551C168.209 167.822 165.753 162.539 161.024 160.811Z" fill="#ECF8FF"/>
<path d="M150.028 190.907C147.664 190.043 145.022 191.271 144.158 193.636C143.294 196.001 144.522 198.642 146.887 199.506C149.252 200.37 151.893 199.142 152.757 196.777C153.621 194.413 152.393 191.771 150.028 190.907Z" fill="#ECF8FF"/>
<path d="M175.161 122.116C168.023 119.508 160.157 123.165 157.55 130.302C154.942 137.439 158.599 145.305 165.736 147.912C172.873 150.52 180.739 146.864 183.347 139.726C185.954 132.589 182.298 124.723 175.161 122.116Z" fill="#ECF8FF"/>
</g>
<path fill-rule="evenodd" clip-rule="evenodd" d="M84.1747 153.538L92.2269 147.782L74.5479 123.05L66.4956 128.806C54.9448 137.063 38.7404 134.368 30.4857 122.82L24.7298 114.767L0 132.445L5.7559 140.497C23.7358 165.65 59.0229 171.517 84.1747 153.538Z" fill="#32A840"/>
<defs>
<clipPath id="clip0_1007_273">
<rect width="173.94" height="173.94" fill="white" transform="translate(107.689) rotate(20.0692)"/>
</clipPath>
</defs>
</svg>
