<svg width="49" height="48" viewBox="0 0 49 48" fill="none" xmlns="http://www.w3.org/2000/svg">
<path d="M11 17.25C10.8011 17.25 10.6103 17.171 10.4697 17.0303C10.329 16.8897 10.25 16.6989 10.25 16.5V6C10.25 5.80109 10.329 5.61032 10.4697 5.46967C10.6103 5.32902 10.8011 5.25 11 5.25C11.1989 5.25 11.3897 5.32902 11.5303 5.46967C11.671 5.61032 11.75 5.80109 11.75 6V16.5C11.75 16.6989 11.671 16.8897 11.5303 17.0303C11.3897 17.171 11.1989 17.25 11 17.25Z" fill="#1DBF73"/>
<path d="M42.3387 46.5H14.75C13.5569 46.4988 12.413 46.0243 11.5693 45.1807C10.7257 44.337 10.2512 43.1931 10.25 42V39C10.25 38.8011 10.329 38.6103 10.4697 38.4697C10.6103 38.329 10.8011 38.25 11 38.25C11.1989 38.25 11.3897 38.329 11.5303 38.4697C11.671 38.6103 11.75 38.8011 11.75 39V42C11.75 42.7957 12.0661 43.5587 12.6287 44.1213C13.1913 44.6839 13.9544 45 14.75 45C15.5456 45 16.3087 44.6839 16.8713 44.1213C17.4339 43.5587 17.75 42.7957 17.75 42C17.7512 41.5395 17.6454 41.0851 17.441 40.6725C17.2794 40.3438 17.2048 39.9792 17.2245 39.6134C17.2442 39.2477 17.3575 38.8932 17.5535 38.5838C17.7569 38.2523 18.0419 37.9785 18.3814 37.7888C18.7209 37.599 19.1034 37.4996 19.4923 37.5H42.5C43.1281 37.4999 43.7492 37.6313 44.3234 37.8857C44.8976 38.1402 45.4122 38.5119 45.8341 38.9772C46.256 39.4425 46.5758 39.9909 46.773 40.5872C46.9702 41.1835 47.0403 41.8144 46.979 42.4395C46.8408 43.5687 46.291 44.6074 45.4349 45.3565C44.5787 46.1057 43.4763 46.5129 42.3387 46.5ZM18.0732 45H42.3387C43.104 45.0161 43.8483 44.7497 44.4294 44.2516C45.0105 43.7535 45.3876 43.0587 45.4888 42.3C45.5307 41.8825 45.4846 41.4609 45.3535 41.0623C45.2223 40.6638 45.009 40.2971 44.7274 39.9861C44.4457 39.6751 44.1019 39.4267 43.7183 39.2568C43.3346 39.087 42.9196 38.9995 42.5 39H19.4923C19.3589 39.0014 19.228 39.0366 19.1118 39.1021C18.9956 39.1677 18.8979 39.2615 18.8278 39.375C18.766 39.4675 18.7297 39.5746 18.7223 39.6855C18.7149 39.7965 18.7368 39.9074 18.7858 40.0073C19.1863 40.8138 19.3327 41.7229 19.2054 42.6144C19.0782 43.5058 18.6834 44.3377 18.0732 45Z" fill="#1DBF73"/>
<path d="M30.725 24H23C22.8011 24 22.6103 23.921 22.4697 23.7803C22.329 23.6397 22.25 23.4489 22.25 23.25C22.25 23.0511 22.329 22.8603 22.4697 22.7197C22.6103 22.579 22.8011 22.5 23 22.5H30.725C30.9239 22.5 31.1147 22.579 31.2553 22.7197C31.396 22.8603 31.475 23.0511 31.475 23.25C31.475 23.4489 31.396 23.6397 31.2553 23.7803C31.1147 23.921 30.9239 24 30.725 24Z" fill="#1DBF73"/>
<path d="M36.5 28.5H23.75C23.5511 28.5 23.3603 28.421 23.2197 28.2803C23.079 28.1397 23 27.9489 23 27.75C23 27.5511 23.079 27.3603 23.2197 27.2197C23.3603 27.079 23.5511 27 23.75 27H36.5C36.6989 27 36.8897 27.079 37.0303 27.2197C37.171 27.3603 37.25 27.5511 37.25 27.75C37.25 27.9489 37.171 28.1397 37.0303 28.2803C36.8897 28.421 36.6989 28.5 36.5 28.5Z" fill="#1DBF73"/>
<path d="M36.5 33H23.75C23.5511 33 23.3603 32.921 23.2197 32.7803C23.079 32.6397 23 32.4489 23 32.25C23 32.0511 23.079 31.8603 23.2197 31.7197C23.3603 31.579 23.5511 31.5 23.75 31.5H36.5C36.6989 31.5 36.8897 31.579 37.0303 31.7197C37.171 31.8603 37.25 32.0511 37.25 32.25C37.25 32.4489 37.171 32.6397 37.0303 32.7803C36.8897 32.921 36.6989 33 36.5 33Z" fill="#1DBF73"/>
<path d="M42.5 39C42.3011 39 42.1103 38.921 41.9697 38.7803C41.829 38.6397 41.75 38.4489 41.75 38.25V6C41.75 5.20435 41.4339 4.44129 40.8713 3.87868C40.3087 3.31607 39.5457 3 38.75 3H7.25C7.05109 3 6.86032 2.92098 6.71967 2.78033C6.57902 2.63968 6.5 2.44891 6.5 2.25C6.5 2.05109 6.57902 1.86032 6.71967 1.71967C6.86032 1.57902 7.05109 1.5 7.25 1.5H38.75C39.9431 1.50119 41.087 1.97568 41.9307 2.81934C42.7743 3.66299 43.2488 4.80689 43.25 6V38.25C43.25 38.4489 43.171 38.6397 43.0303 38.7803C42.8897 38.921 42.6989 39 42.5 39Z" fill="#1DBF73"/>
<path d="M11 10.5H7.25C6.35999 10.5 5.48996 10.2361 4.74994 9.74162C4.00991 9.24715 3.43314 8.54434 3.09254 7.72208C2.75195 6.89981 2.66283 5.99501 2.83647 5.1221C3.0101 4.24918 3.43869 3.44736 4.06802 2.81802C4.69736 2.18869 5.49918 1.7601 6.3721 1.58647C7.24501 1.41283 8.14981 1.50195 8.97208 1.84254C9.79434 2.18314 10.4971 2.75991 10.9916 3.49994C11.4861 4.23996 11.75 5.10999 11.75 6C11.75 6.19891 11.671 6.38968 11.5303 6.53033C11.3897 6.67098 11.1989 6.75 11 6.75C10.8011 6.75 10.6103 6.67098 10.4697 6.53033C10.329 6.38968 10.25 6.19891 10.25 6C10.25 5.40666 10.0741 4.82664 9.74441 4.33329C9.41477 3.83994 8.94623 3.45543 8.39805 3.22836C7.84987 3.0013 7.24667 2.94189 6.66473 3.05765C6.08279 3.1734 5.54824 3.45912 5.12868 3.87868C4.70912 4.29824 4.4234 4.83279 4.30765 5.41473C4.19189 5.99667 4.2513 6.59987 4.47836 7.14805C4.70543 7.69623 5.08994 8.16477 5.58329 8.49441C6.07664 8.82406 6.65666 9 7.25 9H11C11.1989 9 11.3897 9.07902 11.5303 9.21967C11.671 9.36032 11.75 9.55109 11.75 9.75C11.75 9.94891 11.671 10.1397 11.5303 10.2803C11.3897 10.421 11.1989 10.5 11 10.5Z" fill="#1DBF73"/>
<path d="M20.75 17.25C20.5511 17.25 20.3603 17.171 20.2197 17.0303C20.079 16.8897 20 16.6989 20 16.5V10.5C20 10.3011 20.079 10.1103 20.2197 9.96967C20.3603 9.82902 20.5511 9.75 20.75 9.75C20.9489 9.75 21.1397 9.82902 21.2803 9.96967C21.421 10.1103 21.5 10.3011 21.5 10.5V16.5C21.5 16.6989 21.421 16.8897 21.2803 17.0303C21.1397 17.171 20.9489 17.25 20.75 17.25Z" fill="#1DBF73"/>
<path d="M23 11.25H18.5C18.3011 11.25 18.1103 11.171 17.9697 11.0303C17.829 10.8897 17.75 10.6989 17.75 10.5C17.75 10.3011 17.829 10.1103 17.9697 9.96967C18.1103 9.82902 18.3011 9.75 18.5 9.75H23C23.1989 9.75 23.3897 9.82902 23.5303 9.96967C23.671 10.1103 23.75 10.3011 23.75 10.5C23.75 10.6989 23.671 10.8897 23.5303 11.0303C23.3897 11.171 23.1989 11.25 23 11.25Z" fill="#1DBF73"/>
<path d="M23.75 17.25C23.6602 17.2497 23.5711 17.2337 23.4867 17.2027C23.3943 17.1682 23.3096 17.1158 23.2375 17.0485C23.1654 16.9812 23.1072 16.9003 23.0664 16.8105C23.0256 16.7207 23.0029 16.6237 22.9996 16.5252C22.9963 16.4266 23.0125 16.3283 23.0472 16.236L25.2972 10.236C25.3669 10.0496 25.5077 9.8985 25.6887 9.81593C25.8697 9.73337 26.0761 9.7261 26.2625 9.79572C26.4489 9.86534 26.6 10.0061 26.6825 10.1872C26.7651 10.3682 26.7724 10.5746 26.7027 10.761L24.4527 16.761C24.3995 16.9044 24.3036 17.0282 24.178 17.1156C24.0524 17.203 23.903 17.2499 23.75 17.25Z" fill="#1DBF73"/>
<path d="M28.25 17.2499C28.0973 17.25 27.9482 17.2036 27.8226 17.1168C27.6971 17.0299 27.601 16.9068 27.5472 16.7639L25.2972 10.7639C25.2276 10.5775 25.2349 10.3711 25.3175 10.1901C25.4 10.0091 25.5511 9.86827 25.7375 9.79865C25.9239 9.72903 26.1303 9.7363 26.3113 9.81886C26.4923 9.90142 26.6331 10.0525 26.7027 10.2389L28.9527 16.2389C28.9875 16.3312 29.0037 16.4295 29.0004 16.5281C28.9971 16.6267 28.9744 16.7237 28.9336 16.8135C28.8927 16.9033 28.8346 16.9841 28.7625 17.0514C28.6903 17.1187 28.6057 17.1711 28.5132 17.2056C28.4287 17.2356 28.3396 17.2505 28.25 17.2499Z" fill="#1DBF73"/>
<path d="M35 17.25C34.8836 17.25 34.7687 17.2229 34.6646 17.1708C34.5605 17.1188 34.4699 17.0432 34.4 16.95L29.9 10.95C29.7807 10.7909 29.7294 10.5909 29.7575 10.3939C29.7857 10.197 29.8909 10.0194 30.05 9.9C30.2091 9.78066 30.4092 9.72941 30.6061 9.75754C30.803 9.78567 30.9807 9.89087 31.1 10.05L35.6 16.05C35.6836 16.1614 35.7345 16.2939 35.747 16.4326C35.7595 16.5714 35.7331 16.7108 35.6708 16.8354C35.6085 16.96 35.5128 17.0648 35.3943 17.138C35.2758 17.2112 35.1393 17.25 35 17.25Z" fill="#1DBF73"/>
<path d="M30.5 17.25C30.3607 17.25 30.2242 17.2112 30.1057 17.138C29.9872 17.0648 29.8915 16.96 29.8292 16.8354C29.7669 16.7108 29.7405 16.5714 29.753 16.4326C29.7655 16.2939 29.8164 16.1614 29.9 16.05L34.4 10.05C34.4591 9.97121 34.5331 9.90482 34.6179 9.85464C34.7026 9.80446 34.7964 9.77147 34.8939 9.75754C34.9914 9.74361 35.0907 9.74902 35.1861 9.77346C35.2815 9.79791 35.3712 9.8409 35.45 9.9C35.5288 9.95909 35.5952 10.0331 35.6454 10.1179C35.6955 10.2026 35.7285 10.2964 35.7425 10.3939C35.7564 10.4914 35.751 10.5907 35.7265 10.6861C35.7021 10.7815 35.6591 10.8712 35.6 10.95L31.1 16.95C31.0301 17.0431 30.9396 17.1187 30.8354 17.1708C30.7313 17.2229 30.6164 17.25 30.5 17.25Z" fill="#1DBF73"/>
<path d="M27.5 15.75H24.5C24.3011 15.75 24.1103 15.671 23.9697 15.5303C23.829 15.3897 23.75 15.1989 23.75 15C23.75 14.8011 23.829 14.6103 23.9697 14.4697C24.1103 14.329 24.3011 14.25 24.5 14.25H27.5C27.6989 14.25 27.8897 14.329 28.0303 14.4697C28.171 14.6103 28.25 14.8011 28.25 15C28.25 15.1989 28.171 15.3897 28.0303 15.5303C27.8897 15.671 27.6989 15.75 27.5 15.75Z" fill="#1DBF73"/>
<path d="M11.75 37.5C9.82164 37.5 7.93657 36.9282 6.33319 35.8568C4.72982 34.7855 3.48013 33.2627 2.74218 31.4812C2.00422 29.6996 1.81114 27.7392 2.18735 25.8479C2.56355 23.9566 3.49215 22.2193 4.85571 20.8557C6.21928 19.4922 7.95656 18.5636 9.84787 18.1873C11.7392 17.8111 13.6996 18.0042 15.4812 18.7422C17.2627 19.4801 18.7855 20.7298 19.8568 22.3332C20.9282 23.9366 21.5 25.8216 21.5 27.75C21.497 30.335 20.4688 32.8132 18.641 34.641C16.8132 36.4688 14.335 37.497 11.75 37.5ZM11.75 19.5C10.1183 19.5 8.52326 19.9839 7.16655 20.8904C5.80984 21.7969 4.75242 23.0854 4.128 24.5929C3.50358 26.1004 3.3402 27.7592 3.65853 29.3595C3.97685 30.9598 4.76259 32.4299 5.91637 33.5836C7.07016 34.7374 8.54017 35.5232 10.1405 35.8415C11.7409 36.1598 13.3997 35.9964 14.9071 35.372C16.4146 34.7476 17.7031 33.6902 18.6096 32.3335C19.5161 30.9768 20 29.3817 20 27.75C19.9974 25.5628 19.1274 23.4658 17.5808 21.9192C16.0342 20.3726 13.9372 19.5026 11.75 19.5Z" fill="#1DBF73"/>
<path d="M11.75 33C10.9544 33 10.1913 32.6839 9.62868 32.1213C9.06607 31.5587 8.75 30.7957 8.75 30C8.75 29.8011 8.82902 29.6103 8.96967 29.4697C9.11032 29.329 9.30109 29.25 9.5 29.25C9.69891 29.25 9.88968 29.329 10.0303 29.4697C10.171 29.6103 10.25 29.8011 10.25 30C10.25 30.2967 10.338 30.5867 10.5028 30.8334C10.6676 31.08 10.9019 31.2723 11.176 31.3858C11.4501 31.4994 11.7517 31.5291 12.0426 31.4712C12.3336 31.4133 12.6009 31.2704 12.8107 31.0607C13.0204 30.8509 13.1633 30.5836 13.2212 30.2926C13.2791 30.0017 13.2494 29.7001 13.1358 29.426C13.0223 29.1519 12.83 28.9176 12.5834 28.7528C12.3367 28.588 12.0467 28.5 11.75 28.5C11.1567 28.5 10.5766 28.3241 10.0833 27.9944C9.58994 27.6648 9.20543 27.1962 8.97836 26.6481C8.7513 26.0999 8.69189 25.4967 8.80765 24.9147C8.9234 24.3328 9.20912 23.7982 9.62868 23.3787C10.0482 22.9591 10.5828 22.6734 11.1647 22.5576C11.7467 22.4419 12.3499 22.5013 12.8981 22.7284C13.4462 22.9554 13.9148 23.3399 14.2444 23.8333C14.5741 24.3266 14.75 24.9067 14.75 25.5C14.75 25.6989 14.671 25.8897 14.5303 26.0303C14.3897 26.171 14.1989 26.25 14 26.25C13.8011 26.25 13.6103 26.171 13.4697 26.0303C13.329 25.8897 13.25 25.6989 13.25 25.5C13.25 25.2033 13.162 24.9133 12.9972 24.6666C12.8324 24.42 12.5981 24.2277 12.324 24.1142C12.0499 24.0007 11.7483 23.9709 11.4574 24.0288C11.1664 24.0867 10.8991 24.2296 10.6893 24.4393C10.4796 24.6491 10.3367 24.9164 10.2788 25.2074C10.2209 25.4983 10.2507 25.7999 10.3642 26.074C10.4777 26.3481 10.67 26.5824 10.9166 26.7472C11.1633 26.912 11.4533 27 11.75 27C12.5457 27 13.3087 27.3161 13.8713 27.8787C14.4339 28.4413 14.75 29.2044 14.75 30C14.75 30.7957 14.4339 31.5587 13.8713 32.1213C13.3087 32.6839 12.5457 33 11.75 33Z" fill="#1DBF73"/>
<path d="M11.75 24C11.5511 24 11.3603 23.921 11.2197 23.7803C11.079 23.6397 11 23.4489 11 23.25V21.75C11 21.5511 11.079 21.3603 11.2197 21.2197C11.3603 21.079 11.5511 21 11.75 21C11.9489 21 12.1397 21.079 12.2803 21.2197C12.421 21.3603 12.5 21.5511 12.5 21.75V23.25C12.5 23.4489 12.421 23.6397 12.2803 23.7803C12.1397 23.921 11.9489 24 11.75 24Z" fill="#1DBF73"/>
<path d="M11.75 34.5C11.5511 34.5 11.3603 34.421 11.2197 34.2803C11.079 34.1397 11 33.9489 11 33.75V32.25C11 32.0511 11.079 31.8603 11.2197 31.7197C11.3603 31.579 11.5511 31.5 11.75 31.5C11.9489 31.5 12.1397 31.579 12.2803 31.7197C12.421 31.8603 12.5 32.0511 12.5 32.25V33.75C12.5 33.9489 12.421 34.1397 12.2803 34.2803C12.1397 34.421 11.9489 34.5 11.75 34.5Z" fill="#1DBF73"/>
</svg>
