<svg width="67" height="67" viewBox="0 0 67 67" fill="none" xmlns="http://www.w3.org/2000/svg">
<g clip-path="url(#clip0_1005_584)">
<path d="M20.4793 47.7945C20.5147 47.938 20.5935 48.0672 20.7049 48.1645C20.8163 48.2617 20.9549 48.3223 21.102 48.338C21.6131 48.3918 33.709 49.634 42.2578 47.2903C48.64 45.5402 54.1018 39.6442 54.692 33.8673C55.0305 30.5512 53.6185 27.9089 50.7161 26.4315C45.6896 23.8705 40.1498 26.9881 36.3926 30.0529C41.3415 20.9412 40.0075 14.8156 36.8997 12.1289C33.5554 9.24073 28.3178 10.063 24.1522 14.1183C14.6033 23.4161 20.2346 46.8032 20.4793 47.7945ZM25.1566 15.1502C28.5967 11.8003 32.7917 10.9209 35.5591 12.9033C35.6957 13.0011 35.8275 13.1056 35.9583 13.2181C39.4221 16.2131 39.5062 23.945 31.8824 34.4648C31.7654 34.6159 31.7131 34.8073 31.7372 34.9968C31.7612 35.1864 31.8596 35.3587 32.0106 35.4757C32.1617 35.5928 32.353 35.645 32.5426 35.621C32.7322 35.5969 32.9044 35.4986 33.0215 35.3475C33.1164 35.2331 42.6185 23.9219 50.0617 27.7151C53.0546 29.2385 53.4525 31.8233 53.2581 33.7211C52.8 38.2039 48.318 44.1352 41.8755 45.9017C34.5577 47.9085 24.1684 47.1631 21.7631 46.9534C21 43.5118 16.9228 23.1676 25.1566 15.1502Z" fill="#20CBF0"/>
<path d="M32.867 45.6677C33.0021 45.7647 33.1667 45.8117 33.3327 45.8006C35.9146 45.6645 38.4766 45.2723 40.981 44.6298C43.0108 44.0551 44.9092 43.0904 46.5701 41.7896C46.6448 41.7316 46.7074 41.6595 46.7542 41.5773C46.8011 41.4951 46.8313 41.4046 46.8431 41.3107C46.8549 41.2169 46.8482 41.1217 46.8232 41.0304C46.7982 40.9392 46.7555 40.8538 46.6976 40.7791C46.6396 40.7044 46.5675 40.6418 46.4853 40.595C46.4031 40.5481 46.3126 40.5179 46.2187 40.5061C46.1249 40.4943 46.0297 40.501 45.9384 40.526C45.8472 40.551 45.7618 40.5936 45.6871 40.6516C44.1757 41.8372 42.4477 42.7168 40.5999 43.2414C38.1893 43.858 35.7234 44.2338 33.2386 44.3633C33.0904 44.373 32.9488 44.4283 32.8332 44.5216C32.7176 44.6149 32.6337 44.7417 32.593 44.8845C32.5523 45.0274 32.5568 45.1793 32.6058 45.3195C32.6549 45.4597 32.7461 45.5814 32.867 45.6677Z" fill="#20CBF0"/>
<path d="M47.6939 39.8656C47.7159 39.886 47.7391 39.905 47.7635 39.9225C47.9062 40.0245 48.0813 40.0709 48.2558 40.053C48.4304 40.035 48.5923 39.954 48.7113 39.825C49.5519 38.9188 50.2877 37.9209 50.905 36.85C50.952 36.7679 50.9823 36.6774 50.9943 36.5836C51.0062 36.4898 50.9996 36.3945 50.9747 36.3033C50.9499 36.212 50.9073 36.1266 50.8494 36.0518C50.7915 35.977 50.7195 35.9143 50.6374 35.8674C50.5553 35.8205 50.4647 35.7901 50.3709 35.7782C50.2771 35.7662 50.1819 35.7729 50.0906 35.7977C49.9994 35.8226 49.9139 35.8652 49.8391 35.923C49.7643 35.9809 49.7017 36.053 49.6547 36.1351C49.0913 37.1123 48.4193 38.0228 47.6515 38.8491C47.5225 38.9896 47.4545 39.1756 47.4624 39.3661C47.4704 39.5567 47.5536 39.7363 47.6939 39.8656Z" fill="#20CBF0"/>
</g>
<defs>
<clipPath id="clip0_1005_584">
<rect width="48" height="48" fill="white" transform="translate(27.9526) rotate(35.6157)"/>
</clipPath>
</defs>
</svg>
