<svg width="68" height="67" viewBox="0 0 68 67" fill="none" xmlns="http://www.w3.org/2000/svg">
<g clip-path="url(#clip0_1048_464)">
<path d="M20.5266 47.7945C20.562 47.9381 20.6408 48.0673 20.7522 48.1645C20.8636 48.2617 21.0022 48.3223 21.1493 48.338C21.6604 48.3918 33.7563 49.6341 42.3051 47.2903C48.6873 45.5403 54.1491 39.6442 54.7393 33.8673C55.0778 30.5512 53.6658 27.9089 50.7635 26.4315C45.737 23.8705 40.1972 26.9881 36.44 30.053C41.3888 20.9412 40.0548 14.8156 36.9471 12.1289C33.6027 9.24073 28.3651 10.063 24.1995 14.1183C14.6506 23.4162 20.2819 46.8032 20.5266 47.7945ZM25.2039 15.1502C28.644 11.8003 32.8391 10.9209 35.6065 12.9033C35.743 13.0011 35.8749 13.1056 36.0056 13.2181C39.4694 16.2131 39.5535 23.945 31.9298 34.4649C31.8127 34.6159 31.7605 34.8073 31.7845 34.9968C31.8085 35.1864 31.9069 35.3587 32.058 35.4757C32.209 35.5928 32.4004 35.645 32.5899 35.621C32.7795 35.5969 32.9518 35.4986 33.0688 35.3475C33.1638 35.2331 42.6658 23.9219 50.109 27.7151C53.1019 29.2385 53.4999 31.8234 53.3054 33.7211C52.8474 38.204 48.3653 44.1352 41.9228 45.9017C34.605 47.9086 24.2157 47.1631 21.8104 46.9535C21.0473 43.5118 16.9702 23.1677 25.2039 15.1502Z" fill="white"/>
<path d="M32.9143 45.6677C33.0494 45.7647 33.2141 45.8117 33.3801 45.8006C35.962 45.6645 38.524 45.2723 41.0284 44.6298C43.0582 44.0551 44.9566 43.0904 46.6175 41.7896C46.6922 41.7316 46.7547 41.6595 46.8016 41.5773C46.8484 41.4951 46.8786 41.4046 46.8905 41.3107C46.9023 41.2169 46.8955 41.1217 46.8706 41.0304C46.8456 40.9392 46.8029 40.8538 46.7449 40.7791C46.687 40.7044 46.6148 40.6418 46.5327 40.595C46.4505 40.5481 46.3599 40.5179 46.2661 40.5061C46.1723 40.4943 46.077 40.501 45.9858 40.526C45.8946 40.551 45.8092 40.5937 45.7345 40.6516C44.2231 41.8372 42.4951 42.7168 40.6472 43.2414C38.2366 43.858 35.7708 44.2338 33.286 44.3633C33.1378 44.373 32.9962 44.4283 32.8806 44.5216C32.765 44.6149 32.6811 44.7416 32.6404 44.8845C32.5997 45.0274 32.6042 45.1793 32.6532 45.3195C32.7022 45.4597 32.7935 45.5813 32.9143 45.6677Z" fill="white"/>
<path d="M47.7412 39.8655C47.7632 39.886 47.7865 39.905 47.8109 39.9225C47.9536 40.0245 48.1287 40.0709 48.3032 40.053C48.4777 40.035 48.6397 39.954 48.7587 39.825C49.5992 38.9188 50.3351 37.9209 50.9524 36.85C50.9993 36.7679 51.0297 36.6774 51.0416 36.5836C51.0536 36.4898 51.0469 36.3945 51.0221 36.3033C50.9972 36.212 50.9546 36.1266 50.8967 36.0518C50.8389 35.977 50.7668 35.9143 50.6847 35.8674C50.6026 35.8204 50.5121 35.7901 50.4183 35.7781C50.3245 35.7662 50.2292 35.7728 50.138 35.7977C50.0467 35.8225 49.9613 35.8651 49.8865 35.923C49.8117 35.9809 49.749 36.0529 49.7021 36.135C49.1387 37.1123 48.4667 38.0227 47.6988 38.8491C47.5698 38.9896 47.5018 39.1755 47.5098 39.3661C47.5177 39.5567 47.601 39.7363 47.7412 39.8655Z" fill="white"/>
</g>
<defs>
<clipPath id="clip0_1048_464">
<rect width="48" height="48" fill="white" transform="translate(28) rotate(35.6157)"/>
</clipPath>
</defs>
</svg>
