<svg width="98" height="98" viewBox="0 0 98 98" fill="none" xmlns="http://www.w3.org/2000/svg">
<g clip-path="url(#clip0_1048_454)">
<path d="M93.0969 0H43.6232C41.0938 0 39.036 2.05781 39.036 4.58705V29.4203C37.6282 29.2442 36.1943 29.1525 34.7397 29.1525C15.7585 29.1525 0.31601 44.595 0.31601 63.5762C0.31601 82.5573 15.7585 98 34.7397 98C53.721 98 69.1635 82.5575 69.1635 63.5763C69.1828 47.2079 57.5955 33.2712 41.9072 29.9053V4.58705C41.9072 3.64093 42.6771 2.87109 43.6234 2.87109H93.0971C94.0432 2.87109 94.8131 3.64093 94.8131 4.58705V54.0608C94.8131 55.0069 94.0434 55.7767 93.0971 55.7767H73.8991C73.1061 55.7767 72.4635 56.4195 72.4635 57.2123C72.4635 58.0051 73.1061 58.6478 73.8991 58.6478H93.0971C95.6264 58.6478 97.6842 56.59 97.6842 54.0608V4.58705C97.684 2.05781 95.6262 0 93.0969 0ZM34.7397 95.1289C17.3416 95.1289 3.1871 80.9744 3.1871 63.5763C3.1871 46.1783 17.3414 32.0238 34.7397 32.0238C36.1968 32.0238 37.6307 32.1254 39.036 32.3176V54.0608C39.036 56.59 41.0938 58.6478 43.6232 58.6478H65.9065C66.1596 60.2541 66.2924 61.9 66.2924 63.5763C66.2924 80.9744 52.1379 95.1289 34.7397 95.1289ZM65.316 55.7767H43.6232C42.6771 55.7767 41.9071 55.0069 41.9071 54.0608V32.8455C53.3489 35.5133 62.4185 44.4241 65.316 55.7767Z" fill="#FABD0C" fill-opacity="0.64"/>
<path d="M11.0843 23.7371H21.1485C22.8353 23.7371 24.2077 22.3647 24.2077 20.6781V10.6139C24.2077 8.92707 22.8353 7.55469 21.1485 7.55469H11.0843C9.39766 7.55469 8.02528 8.92707 8.02528 10.6139V20.6781C8.02528 22.3647 9.39766 23.7371 11.0843 23.7371ZM10.8964 10.6137C10.8964 10.51 10.9806 10.4256 11.0843 10.4256H21.1485C21.2522 10.4256 21.3366 10.51 21.3366 10.6137V20.6779C21.3366 20.7816 21.2522 20.8658 21.1485 20.8658H11.0843C10.9806 20.8658 10.8964 20.7814 10.8964 20.6779V10.6137Z" fill="#FABD0C" fill-opacity="0.64"/>
<path d="M81.2906 73.0774C76.502 73.0774 72.6065 76.9731 72.6065 81.7615C72.6065 85.0608 74.4375 88.0335 77.3854 89.5198C78.0932 89.8769 78.9566 89.5921 79.3136 88.8843C79.6704 88.1763 79.3859 87.313 78.6781 86.9561C76.7041 85.9608 75.4776 83.9701 75.4776 81.7613C75.4776 78.556 78.0853 75.9483 81.2906 75.9483C84.4959 75.9483 87.1036 78.556 87.1036 81.7613C87.1036 83.9864 85.8061 86.0457 83.7978 87.0076C83.0829 87.3502 82.7809 88.2075 83.1235 88.9224C83.3701 89.4375 83.884 89.7382 84.4192 89.7382C84.6272 89.7382 84.8383 89.6928 85.0384 89.5969C88.0371 88.1606 89.9747 85.0849 89.9747 81.7611C89.9747 76.9731 86.0792 73.0774 81.2906 73.0774Z" fill="#FABD0C" fill-opacity="0.64"/>
</g>
<defs>
<clipPath id="clip0_1048_454">
<rect width="98" height="98" fill="white"/>
</clipPath>
</defs>
</svg>
