<svg width="88" height="88" viewBox="0 0 88 88" fill="none" xmlns="http://www.w3.org/2000/svg">
<g clip-path="url(#clip0_1048_286)">
<path fill-rule="evenodd" clip-rule="evenodd" d="M56.0625 41.9258C52.3246 39.6659 50.3895 36.0062 48.5177 32.4689C46.7385 29.1029 45.0557 25.9229 41.9499 24.0452C38.4333 21.9191 34.1979 21.2344 28.6236 21.8935C27.8929 21.9784 27.2316 21.4539 27.143 20.7241C27.0581 19.9935 27.5803 19.3307 28.3123 19.2435C34.5062 18.5134 39.2789 19.3142 43.3295 21.7631C47.0675 24.023 49.0025 27.6827 50.8744 31.22C52.6535 34.586 54.3363 37.766 57.4422 39.6438C60.9588 41.7698 65.1941 42.4545 70.7685 41.7955C71.4936 41.7041 72.161 42.2291 72.249 42.9648C72.3339 43.6954 71.8117 44.3582 71.0797 44.4454C64.8859 45.1755 60.1131 44.3747 56.0625 41.9258ZM42.2659 64.746C38.5279 62.4861 36.5929 58.8265 34.721 55.2891C32.9419 51.9231 31.2591 48.7431 28.1532 46.8654C24.6366 44.7394 20.4013 44.0547 14.8269 44.7137C14.0963 44.7986 13.4335 44.2764 13.3464 43.5444C13.2615 42.8137 13.7837 42.151 14.5157 42.0638C20.7095 41.3337 25.4823 42.1345 29.5329 44.5834C33.2709 46.8433 35.2059 50.503 37.0777 54.0403C38.8569 57.4063 40.5397 60.5863 43.6455 62.464C47.1621 64.5901 51.3975 65.2748 56.9718 64.6157C57.6956 64.5267 58.3629 65.0517 58.4524 65.7851C58.5373 66.5157 58.0151 67.1784 57.2831 67.2656C51.0892 67.9958 46.3165 67.1949 42.2659 64.746Z" fill="#FF8D74"/>
</g>
<defs>
<clipPath id="clip0_1048_286">
<rect width="64" height="64" fill="white" transform="translate(33.1119) rotate(31.1562)"/>
</clipPath>
</defs>
</svg>
