<svg width="88" height="88" viewBox="0 0 88 88" fill="none" xmlns="http://www.w3.org/2000/svg">
<g clip-path="url(#clip0_1048_390)">
<path fill-rule="evenodd" clip-rule="evenodd" d="M55.8636 41.5769C52.0922 39.3733 50.1025 35.7431 48.1778 32.2342C46.3484 28.8953 44.618 25.7409 41.4844 23.9099C37.9363 21.8368 33.6912 21.2158 28.1273 21.9583C27.3981 22.0542 26.7289 21.5396 26.6294 20.8113C26.5336 20.082 27.0458 19.4115 27.7764 19.3134C33.9586 18.4904 38.7428 19.2196 42.8297 21.6075C46.6011 23.811 48.5908 27.4413 50.5155 30.9502C52.3449 34.2891 54.0753 37.4435 57.2089 39.2744C60.757 41.3475 65.0021 41.9686 70.566 41.226C71.2897 41.1239 71.9648 41.6388 72.0639 42.373C72.1598 43.1023 71.6475 43.7728 70.9169 43.871C64.7347 44.6939 59.9505 43.9648 55.8636 41.5769ZM42.4108 64.6015C38.6393 62.3979 36.6497 58.7677 34.7249 55.2588C32.8955 51.9199 31.1652 48.7655 28.0316 46.9345C24.4835 44.8614 20.2383 44.2404 14.6745 44.9829C13.9452 45.0788 13.2747 44.5665 13.1766 43.8359C13.0807 43.1066 13.5929 42.4361 14.3236 42.338C20.5057 41.515 25.29 42.2442 29.3768 44.6321C33.1483 46.8356 35.138 50.4659 37.0627 53.9748C38.8921 57.3137 40.6224 60.4681 43.7561 62.299C47.3041 64.3721 51.5493 64.9932 57.1131 64.2506C57.8355 64.1508 58.5106 64.6657 58.6111 65.3976C58.7069 66.1269 58.1947 66.7974 57.4641 66.8956C51.2819 67.7185 46.4976 66.9894 42.4108 64.6015Z" fill="#FF8D74"/>
</g>
<defs>
<clipPath id="clip0_1048_390">
<rect width="64" height="64" fill="white" transform="translate(32.2869) rotate(30.297)"/>
</clipPath>
</defs>
</svg>
