<svg width="168" height="168" viewBox="0 0 168 168" fill="none" xmlns="http://www.w3.org/2000/svg">
<g clip-path="url(#clip0_1048_479)">
<path d="M128.07 2.30192L60.3684 18.7331C56.907 19.5732 54.7745 23.0726 55.6145 26.5337L63.8621 60.5164C61.8771 60.743 59.8846 61.0937 57.8939 61.5769C31.9194 67.8809 15.9161 94.1416 22.2201 120.116C28.5241 146.091 54.7849 162.094 80.7595 155.79C106.734 149.486 122.738 123.225 116.434 97.2509C111.024 74.8453 90.5386 59.6222 67.9523 60.2265L59.5437 25.5801C59.2295 24.2854 60.0272 22.9762 61.3222 22.6619L129.024 6.23077C130.319 5.91655 131.628 6.71434 131.942 8.00905L148.373 75.7108C148.687 77.0055 147.89 78.3145 146.595 78.6288L120.324 85.0049C119.238 85.2682 118.573 86.3612 118.836 87.4461C119.099 88.531 120.192 89.1971 121.277 88.9338L147.548 82.5577C151.01 81.7177 153.142 78.2183 152.302 74.7572L135.871 7.05551C135.031 3.59446 131.531 1.46191 128.07 2.30192ZM79.8059 151.861C55.9978 157.64 31.9273 142.971 26.149 119.163C20.3708 95.3548 35.0391 71.2843 58.8475 65.506C60.8416 65.0221 62.8374 64.685 64.8243 64.4812L72.0457 94.2354C72.8857 97.6965 76.3851 99.829 79.8465 98.989L110.34 91.5883C111.22 93.7023 111.948 95.9105 112.505 98.2045C118.283 122.013 103.614 146.083 79.8059 151.861ZM108.578 87.8555L78.8929 95.0601C77.5982 95.3743 76.2888 94.5765 75.9746 93.2818L68.9286 64.2501C85.4721 64.1007 100.843 73.2823 108.578 87.8555Z" fill="#FABD0C" fill-opacity="0.25"/>
<path d="M23.7246 62.0222L37.4967 58.6798C39.8051 58.1195 41.2273 55.7857 40.6671 53.4776L37.3246 39.7054C36.7644 37.3971 34.4306 35.9749 32.1222 36.5351L18.3501 39.8776C16.042 40.4378 14.6197 42.7716 15.18 45.0799L18.5225 58.8521C19.0826 61.1602 21.4165 62.5824 23.7246 62.0222ZM19.1088 44.1261C19.0744 43.9842 19.1616 43.8407 19.3035 43.8062L33.0757 40.4637C33.2177 40.4293 33.3612 40.5168 33.3957 40.6587L36.7381 54.4309C36.7726 54.5728 36.6851 54.7161 36.5431 54.7506L22.7709 58.0931C22.629 58.1275 22.4857 58.04 22.4513 57.8983L19.1088 44.1261Z" fill="#FABD0C" fill-opacity="0.25"/>
<path d="M136.184 106.225C129.631 107.816 125.594 114.44 127.185 120.993C128.281 125.508 131.773 128.968 136.301 130.023C137.388 130.276 138.475 129.6 138.729 128.513C138.982 127.425 138.306 126.338 137.219 126.085C134.187 125.379 131.847 123.062 131.114 120.039C130.049 115.653 132.752 111.218 137.138 110.154C141.524 109.089 145.959 111.792 147.023 116.178C147.762 119.223 146.67 122.472 144.242 124.455C143.377 125.161 143.249 126.435 143.955 127.299C144.463 127.922 145.267 128.163 145.999 127.985C146.284 127.916 146.557 127.784 146.799 127.586C150.426 124.625 152.056 119.773 150.952 115.224C149.362 108.672 142.737 104.635 136.184 106.225Z" fill="#FABD0C" fill-opacity="0.25"/>
</g>
<defs>
<clipPath id="clip0_1048_479">
<rect width="138" height="138" fill="white" transform="translate(0.672729 33.2207) rotate(-13.6419)"/>
</clipPath>
</defs>
</svg>
