<svg width="67" height="67" viewBox="0 0 67 67" fill="none" xmlns="http://www.w3.org/2000/svg">
<g clip-path="url(#clip0_1048_475)">
<path d="M20.4792 47.7945C20.5146 47.9381 20.5934 48.0673 20.7048 48.1645C20.8162 48.2617 20.9549 48.3223 21.1019 48.338C21.6131 48.3918 33.7089 49.6341 42.2577 47.2903C48.64 45.5403 54.1017 39.6442 54.692 33.8673C55.0304 30.5512 53.6185 27.9089 50.7161 26.4315C45.6896 23.8705 40.1498 26.9881 36.3926 30.053C41.3415 20.9412 40.0075 14.8156 36.8997 12.1289C33.5554 9.24073 28.3178 10.063 24.1522 14.1183C14.6032 23.4162 20.2346 46.8032 20.4792 47.7945ZM25.1566 15.1502C28.5966 11.8003 32.7917 10.9209 35.5591 12.9033C35.6957 13.0011 35.8275 13.1056 35.9583 13.2181C39.4221 16.2131 39.5062 23.945 31.8824 34.4649C31.7654 34.6159 31.7131 34.8073 31.7371 34.9968C31.7612 35.1864 31.8595 35.3587 32.0106 35.4757C32.1616 35.5928 32.353 35.645 32.5426 35.621C32.7321 35.5969 32.9044 35.4986 33.0215 35.3475C33.1164 35.2331 42.6185 23.9219 50.0617 27.7151C53.0546 29.2385 53.4525 31.8234 53.258 33.7211C52.8 38.204 48.318 44.1352 41.8755 45.9017C34.5576 47.9086 24.1683 47.1631 21.7631 46.9535C20.9999 43.5118 16.9228 23.1677 25.1566 15.1502Z" fill="#FFA995"/>
<path d="M32.867 45.6678C33.0021 45.7648 33.1667 45.8118 33.3327 45.8007C35.9146 45.6647 38.4767 45.2725 40.981 44.6299C43.0109 44.0552 44.9092 43.0905 46.5701 41.7897C46.6448 41.7317 46.7074 41.6596 46.7542 41.5774C46.8011 41.4953 46.8313 41.4047 46.8431 41.3109C46.8549 41.217 46.8482 41.1218 46.8232 41.0306C46.7982 40.9394 46.7555 40.8539 46.6976 40.7792C46.6396 40.7045 46.5675 40.6419 46.4853 40.5951C46.4032 40.5483 46.3126 40.5181 46.2187 40.5062C46.1249 40.4944 46.0297 40.5011 45.9385 40.5261C45.8472 40.5511 45.7618 40.5938 45.6871 40.6517C44.1757 41.8373 42.4478 42.7169 40.5999 43.2415C38.1893 43.8581 35.7235 44.2339 33.2386 44.3635C33.0904 44.3731 32.9488 44.4284 32.8332 44.5217C32.7176 44.615 32.6337 44.7418 32.593 44.8846C32.5523 45.0275 32.5568 45.1794 32.6058 45.3196C32.6549 45.4599 32.7461 45.5815 32.867 45.6678Z" fill="#FFA995"/>
<path d="M47.6939 39.8657C47.7159 39.8861 47.7391 39.9051 47.7635 39.9226C47.9062 40.0246 48.0813 40.071 48.2558 40.0531C48.4304 40.0351 48.5923 39.9541 48.7113 39.8251C49.5519 38.9189 50.2877 37.921 50.905 36.8501C50.952 36.768 50.9823 36.6775 50.9942 36.5837C51.0062 36.4899 50.9996 36.3946 50.9747 36.3034C50.9498 36.2121 50.9073 36.1267 50.8494 36.0519C50.7915 35.9771 50.7195 35.9144 50.6374 35.8675C50.5553 35.8205 50.4647 35.7902 50.3709 35.7783C50.2771 35.7663 50.1818 35.773 50.0906 35.7978C49.9993 35.8227 49.9139 35.8653 49.8391 35.9231C49.7643 35.981 49.7017 36.0531 49.6547 36.1352C49.0913 37.1124 48.4193 38.0229 47.6515 38.8492C47.5225 38.9897 47.4545 39.1757 47.4624 39.3662C47.4704 39.5568 47.5536 39.7364 47.6939 39.8657Z" fill="#FFA995"/>
</g>
<defs>
<clipPath id="clip0_1048_475">
<rect width="48" height="48" fill="white" transform="translate(27.9526) rotate(35.6157)"/>
</clipPath>
</defs>
</svg>
