<svg width="49" height="48" viewBox="0 0 49 48" fill="none" xmlns="http://www.w3.org/2000/svg">
<path d="M2.90039 12V37.6C2.90039 38.2365 3.15325 38.847 3.60333 39.2971C4.05342 39.7471 4.66387 40 5.30039 40H9.30039V45.832C9.29787 46.2454 9.41484 46.6506 9.63724 46.9991C9.85965 47.3475 10.178 47.6242 10.554 47.796C10.9305 47.9714 11.3496 48.0345 11.7611 47.9777C12.1726 47.921 12.559 47.7468 12.874 47.476L21.5964 40H43.7004C44.3369 40 44.9474 39.7471 45.3974 39.2971C45.8475 38.847 46.1004 38.2365 46.1004 37.6V12C46.1004 11.3635 45.8475 10.753 45.3974 10.3029C44.9474 9.85286 44.3369 9.6 43.7004 9.6H33.182C32.9012 9.31813 32.6058 9.0511 32.2972 8.8H32.5084C32.7206 8.8 32.924 8.71572 33.0741 8.56569C33.2241 8.41566 33.3084 8.21217 33.3084 8C33.3084 7.78783 33.2241 7.58434 33.0741 7.43432C32.924 7.28429 32.7206 7.2 32.5084 7.2H30.9332L32.378 3.8296C32.4821 3.58629 32.5243 3.32094 32.5007 3.05732C32.4771 2.79371 32.3885 2.54007 32.2428 2.31913C32.097 2.09818 31.8988 1.91683 31.6658 1.79133C31.4328 1.66583 31.1723 1.60009 30.9076 1.6H27.2204L27.0508 1.092C26.9442 0.773719 26.7403 0.497012 26.4678 0.301039C26.1953 0.105066 25.868 -0.000248489 25.5324 4.40275e-07H23.7092C23.4426 4.06388e-05 23.1802 0.0667031 22.9459 0.19393C22.7116 0.321157 22.5128 0.504915 22.3676 0.728505C22.2224 0.952096 22.1353 1.20843 22.1144 1.47422C22.0934 1.74 22.1392 2.00681 22.2476 2.2504L24.4476 7.2H22.9084C22.6962 7.2 22.4927 7.28429 22.3427 7.43432C22.1927 7.58434 22.1084 7.78783 22.1084 8C22.1084 8.21217 22.1927 8.41566 22.3427 8.56569C22.4927 8.71572 22.6962 8.8 22.9084 8.8H23.1484C22.8398 9.05151 22.5443 9.31852 22.2628 9.6H5.30039C4.66387 9.6 4.05342 9.85286 3.60333 10.3029C3.15325 10.753 2.90039 11.3635 2.90039 12ZM36.5004 21.1144C36.4936 21.8947 36.3775 22.6703 36.1556 23.4184L34.4756 24.4584C34.3596 24.0717 34.1366 23.7258 33.8322 23.4606C33.5278 23.1954 33.1545 23.0219 32.7556 22.96L18.9052 20.92C18.9804 16.4 22.3804 10.0072 26.3404 8.808L29.078 8.8C33.1148 10 36.5236 16.5312 36.5004 21.1144ZM18.4308 22.4672L32.5108 24.5408C32.636 24.5613 32.75 24.6252 32.8328 24.7213C32.9156 24.8174 32.9619 24.9396 32.9636 25.0664C32.9656 25.2046 32.913 25.338 32.8172 25.4376C32.7135 25.5392 32.5744 25.5966 32.4292 25.5976H20.5004C20.2882 25.5976 20.0847 25.6819 19.9347 25.8319C19.7847 25.9819 19.7004 26.1854 19.7004 26.3976C19.7004 26.6098 19.7847 26.8133 19.9347 26.9633C20.0847 27.1133 20.2882 27.1976 20.5004 27.1976H22.7252L26.766 29.932C27.0387 30.1155 27.3586 30.2164 27.6873 30.2225C28.016 30.2286 28.3394 30.1397 28.6188 29.9664L40.5084 22.6032C40.631 22.536 40.7751 22.5196 40.9097 22.5575C41.0443 22.5953 41.1587 22.6844 41.2284 22.8056C41.2744 22.8869 41.2992 22.9786 41.3004 23.072C41.3 23.1537 41.2812 23.2343 41.2455 23.3079C41.2097 23.3814 41.158 23.4459 41.094 23.4968L27.93 34.0504C27.7211 34.2122 27.4768 34.3221 27.2172 34.3714C26.9576 34.4206 26.69 34.4077 26.4364 34.3336L13.8604 30.3112C13.679 30.255 13.4903 30.2261 13.3004 30.2256V23.9768L16.0684 22.6824C16.8252 22.4131 17.6378 22.3391 18.4308 22.4672ZM30.0508 27.2L27.774 28.6104C27.7572 28.621 27.7378 28.6266 27.718 28.6266C27.6982 28.6266 27.6787 28.621 27.662 28.6104L25.5804 27.2H30.0508ZM23.7092 1.6H25.5324L25.8852 2.6536L26.4124 4.2488C26.4648 4.40904 26.5665 4.54862 26.703 4.64761C26.8395 4.7466 27.0038 4.79993 27.1724 4.8C27.2575 4.80007 27.3421 4.78629 27.4228 4.7592C27.6241 4.69266 27.7907 4.54897 27.8861 4.35967C27.9815 4.17037 27.9978 3.95096 27.9316 3.7496L27.75 3.2H30.9084L29.1932 7.2H26.198L23.7092 1.6ZM4.50039 12C4.50039 11.7878 4.58468 11.5843 4.73471 11.4343C4.88473 11.2843 5.08822 11.2 5.30039 11.2H20.8828C18.7805 13.9937 17.5389 17.34 17.31 20.8288C16.6785 20.8633 16.0554 20.9897 15.4604 21.204L13.1204 22.296C12.9408 21.8543 12.6337 21.4762 12.2383 21.2097C11.843 20.9433 11.3772 20.8006 10.9004 20.8H8.50039C7.86387 20.8 7.25342 21.0529 6.80333 21.5029C6.35325 21.953 6.10039 22.5635 6.10039 23.2V31.2C6.10039 31.8365 6.35325 32.447 6.80333 32.8971C7.25342 33.3471 7.86387 33.6 8.50039 33.6H10.9004C11.4235 33.5977 11.9316 33.4245 12.3472 33.1067C12.7629 32.789 13.0633 32.3442 13.2028 31.84C13.2615 31.8287 13.3217 31.8287 13.3804 31.84L25.9644 35.8616C26.4667 36.0109 26.9974 36.038 27.5123 35.9405C28.0272 35.8431 28.5113 35.6241 28.9244 35.3016L42.0932 24.7416C42.5047 24.4031 42.7748 23.9229 42.8505 23.3955C42.9262 22.868 42.802 22.3313 42.5023 21.8907C42.2026 21.4501 41.749 21.1374 41.2306 21.0141C40.7122 20.8907 40.1664 20.9656 39.7004 21.224L38.0204 22.264C38.0684 21.8861 38.0951 21.5057 38.1004 21.1248C37.9491 17.5348 36.7144 14.0748 34.5588 11.2H43.7004C43.9126 11.2 44.116 11.2843 44.2661 11.4343C44.4161 11.5843 44.5004 11.7878 44.5004 12V37.6C44.5004 37.8122 44.4161 38.0157 44.2661 38.1657C44.116 38.3157 43.9126 38.4 43.7004 38.4H21.3004C21.1093 38.4 20.9246 38.4684 20.7796 38.5928L11.8396 46.2616C11.7566 46.3336 11.6542 46.3796 11.5452 46.3938C11.4363 46.408 11.3255 46.3899 11.2268 46.3416C11.1284 46.298 11.045 46.2265 10.987 46.1359C10.929 46.0453 10.8989 45.9396 10.9004 45.832V39.2C10.9004 38.9878 10.8161 38.7843 10.6661 38.6343C10.516 38.4843 10.3126 38.4 10.1004 38.4H5.30039C5.08822 38.4 4.88473 38.3157 4.73471 38.1657C4.58468 38.0157 4.50039 37.8122 4.50039 37.6V12ZM11.7004 24H10.1004C9.88822 24 9.68473 24.0843 9.53471 24.2343C9.38468 24.3843 9.30039 24.5878 9.30039 24.8C9.30039 25.0122 9.38468 25.2157 9.53471 25.3657C9.68473 25.5157 9.88822 25.6 10.1004 25.6H11.7004V28.8H10.1004C9.88822 28.8 9.68473 28.8843 9.53471 29.0343C9.38468 29.1843 9.30039 29.3878 9.30039 29.6C9.30039 29.8122 9.38468 30.0157 9.53471 30.1657C9.68473 30.3157 9.88822 30.4 10.1004 30.4H11.7004V31.2C11.7004 31.4122 11.6161 31.6157 11.4661 31.7657C11.316 31.9157 11.1126 32 10.9004 32H8.50039C8.28822 32 8.08473 31.9157 7.93471 31.7657C7.78468 31.6157 7.70039 31.4122 7.70039 31.2V23.2C7.70039 22.9878 7.78468 22.7843 7.93471 22.6343C8.08473 22.4843 8.28822 22.4 8.50039 22.4H10.9004C11.1126 22.4 11.316 22.4843 11.4661 22.6343C11.6161 22.7843 11.7004 22.9878 11.7004 23.2V24Z" fill="#1DBF73"/>
<path d="M27.708 15.2C27.5676 15.1998 27.4297 15.1627 27.3082 15.0924C27.1866 15.0221 27.0858 14.9211 27.0157 14.7994C26.9455 14.6778 26.9087 14.5399 26.9088 14.3995C26.9088 14.2591 26.9459 14.1212 27.0161 13.9996C27.0864 13.8781 27.1874 13.7771 27.309 13.707C27.4306 13.6368 27.5686 13.5999 27.709 13.6C27.8494 13.6 27.9873 13.637 28.1088 13.7072C28.2304 13.7774 28.3314 13.8784 28.4016 14C28.4516 14.0956 28.5204 14.1801 28.6039 14.2484C28.6875 14.3167 28.7839 14.3674 28.8876 14.3975C28.9912 14.4275 29.0998 14.4363 29.2069 14.4233C29.314 14.4103 29.4174 14.3757 29.5108 14.3217C29.6042 14.2678 29.6857 14.1954 29.7505 14.1091C29.8152 14.0228 29.8618 13.9243 29.8875 13.8195C29.9131 13.7147 29.9174 13.6058 29.8998 13.4993C29.8823 13.3928 29.8435 13.291 29.7856 13.2C29.4956 12.7126 29.042 12.344 28.5056 12.16V12C28.5056 11.7878 28.4213 11.5843 28.2713 11.4343C28.1212 11.2842 27.9178 11.2 27.7056 11.2C27.4934 11.2 27.2899 11.2842 27.1399 11.4343C26.9899 11.5843 26.9056 11.7878 26.9056 12V12.1472C26.3722 12.335 25.9226 12.7056 25.6363 13.1932C25.35 13.6808 25.2455 14.254 25.3413 14.8113C25.4371 15.3686 25.727 15.874 26.1598 16.238C26.5925 16.6019 27.1401 16.801 27.7056 16.8C27.846 16.8001 27.9839 16.8372 28.1054 16.9075C28.2269 16.9778 28.3278 17.0788 28.3979 17.2005C28.468 17.3221 28.5049 17.46 28.5048 17.6004C28.5047 17.7408 28.4677 17.8787 28.3974 18.0003C28.3272 18.1218 28.2262 18.2228 28.1046 18.2929C27.9829 18.3631 27.845 18.4 27.7046 18.4C27.5642 18.3999 27.4263 18.3629 27.3047 18.2927C27.1831 18.2225 27.0822 18.1215 27.012 18C26.9026 17.8231 26.7285 17.6958 26.5268 17.645C26.3251 17.5943 26.1116 17.6241 25.9315 17.7281C25.7514 17.8322 25.6189 18.0023 25.5621 18.2024C25.5053 18.4024 25.5286 18.6168 25.6272 18.8C25.9172 19.2873 26.3708 19.6558 26.9072 19.84V20C26.9072 20.2121 26.9915 20.4156 27.1415 20.5656C27.2915 20.7157 27.495 20.8 27.7072 20.8C27.9194 20.8 28.1228 20.7157 28.2729 20.5656C28.4229 20.4156 28.5072 20.2121 28.5072 20V19.8528C29.0405 19.6649 29.4902 19.2943 29.7765 18.8067C30.0628 18.3191 30.1673 17.7459 30.0715 17.1886C29.9757 16.6313 29.6857 16.1259 29.253 15.762C28.8202 15.398 28.2734 15.1989 27.708 15.2Z" fill="#1DBF73"/>
</svg>
