<svg width="49" height="48" viewBox="0 0 49 48" fill="none" xmlns="http://www.w3.org/2000/svg">
<path d="M42.7343 32.2797C42.3634 31.6606 40.847 29.8186 36.9044 32.1148L30.1649 36.0402C29.9478 36.1667 29.7282 36.2682 29.5032 36.3454C29.564 36.208 29.6154 36.0622 29.6566 35.9085C30.0221 34.5445 29.2139 33.1213 27.8167 32.6683C27.7845 32.658 27.7518 32.6498 27.7185 32.6437C25.7939 32.2966 23.8888 31.6077 22.3579 31.0543C21.8233 30.861 21.3182 30.6784 20.8874 30.5387C19.1042 29.9603 17.5075 30.668 16.1806 31.4367L11.3005 34.2642L11.0136 33.7573C10.785 33.3533 10.4116 33.0622 9.96239 32.9377C9.51295 32.8132 9.04326 32.8705 8.6392 33.0993L6.74826 34.1694C6.3442 34.398 6.0531 34.7714 5.9286 35.2206C5.8041 35.6698 5.86148 36.1397 6.09023 36.5437L11.6495 46.3666C11.8781 46.7707 12.2515 47.0618 12.7007 47.1863C12.8561 47.2293 13.0139 47.2507 13.1705 47.2507C13.467 47.2507 13.7595 47.1743 14.024 47.0247L15.9149 45.9546C16.751 45.4813 17.0461 44.4162 16.5731 43.5802L15.963 42.5022L16.921 41.9491L25.4921 44.2458C25.9817 44.3769 26.4688 44.4422 26.948 44.4422C27.9178 44.4422 28.8546 44.1751 29.7112 43.6478L41.9416 36.1168C43.1234 35.3892 43.5013 33.5604 42.7343 32.2797ZM15.1761 44.6492L13.2852 45.7193C13.2105 45.7615 13.1381 45.7508 13.1014 45.7408C13.0649 45.7307 12.9973 45.7026 12.955 45.6278L7.3957 35.8049C7.3311 35.6906 7.37301 35.5395 7.48729 35.4748L9.37823 34.4047C9.41957 34.3812 9.46035 34.3741 9.49467 34.3741C9.52223 34.3741 9.54567 34.3788 9.56198 34.3833C9.59854 34.3933 9.66614 34.4215 9.70842 34.4962L15.2677 44.319C15.3323 44.4332 15.2904 44.5844 15.1761 44.6492ZM41.1551 34.8395L28.9247 42.3705C27.9917 42.9447 26.9674 43.0883 25.8801 42.7969L17.009 40.4198C16.817 40.3683 16.6122 40.3953 16.4399 40.4948L15.224 41.1968L12.0394 35.5698L16.9327 32.7347C18.0257 32.1014 19.2051 31.57 20.4247 31.9656C20.8319 32.0977 21.3028 32.2679 21.848 32.4651C23.4176 33.0325 25.3675 33.7374 27.3969 34.1098C28.0183 34.3326 28.3657 34.9314 28.2078 35.5204C28.0501 36.1087 27.6281 36.386 26.9524 36.3461C25.8579 36.1325 24.8712 35.8526 23.8371 35.5593C23.3888 35.4322 22.9251 35.3006 22.437 35.1699C22.0371 35.0631 21.6258 35.3003 21.5185 35.7003C21.4112 36.1004 21.6488 36.5116 22.0488 36.6188C22.5264 36.7467 22.9845 36.8767 23.4277 37.0025C24.4162 37.2827 25.3627 37.5512 26.4112 37.7675C26.4731 37.7934 27.191 37.9158 27.4196 37.9524C28.709 38.1587 29.8539 37.9573 30.9198 37.3367L37.6594 33.4113C39.4906 32.3448 40.9422 32.2068 41.4474 33.0506C41.7897 33.6218 41.6393 34.5413 41.1551 34.8395ZM9.74085 35.9732C9.79476 36.3421 9.53948 36.6849 9.17057 36.7388C8.80157 36.7928 8.45882 36.5375 8.40492 36.1685C8.35092 35.7996 8.60629 35.4567 8.97529 35.4028C9.3441 35.3488 9.68695 35.6042 9.74085 35.9732ZM13.954 29.66H42.1013C42.5155 29.66 42.8513 29.3242 42.8513 28.91V10.2906C42.8513 9.87637 42.5155 9.54056 42.1013 9.54056H37.3199V4.34569C37.3199 3.9315 36.984 3.59569 36.5699 3.59569H33.5009V1.5C33.5009 1.08581 33.1651 0.75 32.7509 0.75H23.3044C22.8902 0.75 22.5544 1.08581 22.5544 1.5V3.59559H19.4855C19.0713 3.59559 18.7355 3.93141 18.7355 4.34559V9.54047H13.954C13.5398 9.54047 13.204 9.87628 13.204 10.2905V28.9099C13.204 29.3242 13.5398 29.66 13.954 29.66ZM31.5519 28.16H24.5035V20.7953C24.5035 20.1179 25.0546 19.5668 25.7321 19.5668H30.3233C31.0007 19.5668 31.5518 20.1179 31.5518 20.7953V28.16H31.5519ZM41.3513 11.0406V28.16H37.3199V11.0406H41.3513ZM24.0544 2.25H32.0009V3.59559H24.0544V2.25ZM35.8199 5.09569V28.1601H33.0519V20.7954C33.0519 19.2909 31.8278 18.0668 30.3234 18.0668H25.7322C24.2276 18.0668 23.0036 19.2909 23.0036 20.7954V28.1601H20.2356V5.09569H35.8199ZM14.704 11.0406H18.7355V28.16H14.704V11.0406ZM29.2473 16.6763H32.3019C32.7161 16.6763 33.0519 16.3405 33.0519 15.9263V12.8718C33.0519 12.4576 32.7161 12.1218 32.3019 12.1218H29.2473C28.8331 12.1218 28.4973 12.4576 28.4973 12.8718V15.9263C28.4973 16.3406 28.8331 16.6763 29.2473 16.6763ZM29.9973 13.6218H31.5519V15.1763H29.9973V13.6218ZM29.2473 11.0406H32.3019C32.7161 11.0406 33.0519 10.7047 33.0519 10.2906V7.236C33.0519 6.82181 32.7161 6.486 32.3019 6.486H29.2473C28.8331 6.486 28.4973 6.82181 28.4973 7.236V10.2906C28.4973 10.7047 28.8331 11.0406 29.2473 11.0406ZM29.9973 7.986H31.5519V9.54056H29.9973V7.986ZM23.7535 11.0406H26.808C27.2222 11.0406 27.558 10.7047 27.558 10.2906V7.236C27.558 6.82181 27.2222 6.486 26.808 6.486H23.7535C23.3393 6.486 23.0035 6.82181 23.0035 7.236V10.2906C23.0035 10.7047 23.3393 11.0406 23.7535 11.0406ZM24.5035 7.986H26.058V9.54056H24.5035V7.986ZM23.7535 16.6763H26.808C27.2222 16.6763 27.558 16.3405 27.558 15.9263V12.8718C27.558 12.4576 27.2222 12.1218 26.808 12.1218H23.7535C23.3393 12.1218 23.0035 12.4576 23.0035 12.8718V15.9263C23.0035 16.3406 23.3393 16.6763 23.7535 16.6763ZM24.5035 13.6218H26.058V15.1763H24.5035V13.6218Z" fill="white"/>
</svg>
