<svg width="40" height="40" viewBox="0 0 40 40" fill="none" xmlns="http://www.w3.org/2000/svg">
<path d="M7.83268 29.4999C6.16602 27.6665 5.16602 25.6665 5.16602 22.3332C5.16602 16.4998 9.33268 11.3332 15.166 8.6665L16.666 10.8332C11.166 13.8332 9.99935 17.6665 9.66602 20.1665C10.4994 19.6665 11.666 19.4998 12.8327 19.6665C15.8327 19.9998 18.166 22.3332 18.166 25.4998C18.166 26.9998 17.4993 28.4998 16.4993 29.6665C15.3327 30.8332 13.9994 31.3332 12.3327 31.3332C10.4993 31.3332 8.83268 30.4999 7.83268 29.4999ZM24.4994 29.4999C22.8327 27.6665 21.8327 25.6665 21.8327 22.3332C21.8327 16.4998 25.9994 11.3332 31.8327 8.6665L33.3327 10.8332C27.8327 13.8332 26.666 17.6665 26.3327 20.1665C27.166 19.6665 28.3327 19.4998 29.4994 19.6665C32.4994 19.9998 34.8327 22.3332 34.8327 25.4998C34.8327 26.9998 34.166 28.4998 33.166 29.6665C32.166 30.8332 30.666 31.3332 28.9994 31.3332C27.166 31.3332 25.4994 30.4999 24.4994 29.4999Z" fill="#FABD0C"/>
</svg>
