<svg width="149" height="149" viewBox="0 0 149 149" fill="none" xmlns="http://www.w3.org/2000/svg">
<g clip-path="url(#clip0_1191_127)">
<path d="M141.534 10.3019L72.0823 4.82749C68.5315 4.5476 65.415 7.20866 65.1351 10.7592L62.3873 45.6204C60.4305 45.2174 58.4278 44.93 56.3857 44.7691C29.7398 42.6687 6.35273 62.6383 4.25241 89.2842C2.15209 115.93 22.1216 139.317 48.7675 141.418C75.4138 143.518 98.8008 123.549 100.901 96.9026C102.739 73.9266 88.0152 53.08 66.3643 46.619L69.1659 11.077C69.2706 9.74878 70.4365 8.75326 71.7649 8.85797L141.217 14.3324C142.545 14.4371 143.54 15.603 143.436 16.9311L137.961 86.3828C137.856 87.711 136.691 88.7065 135.362 88.6018L108.412 86.4775C107.299 86.3897 106.326 87.2209 106.238 88.3339C106.15 89.4468 106.981 90.4202 108.094 90.5079L135.045 92.6323C138.595 92.9121 141.712 90.2511 141.992 86.7005L147.466 17.2488C147.746 13.6982 145.085 10.5818 141.534 10.3019ZM49.0852 137.387C24.6617 135.462 6.35771 114.026 8.28286 89.6022C10.208 65.1786 31.6442 46.8746 56.068 48.7998C58.1136 48.961 60.1152 49.2624 62.0667 49.6876L59.6607 80.2109C59.3809 83.7615 62.0419 86.878 65.5928 87.1578L96.8743 89.6236C97.0518 91.9065 97.0561 94.2317 96.8706 96.5849C94.9455 121.009 73.5091 139.312 49.0852 137.387ZM96.3631 85.5277L65.9105 83.1274C64.5823 83.0227 63.5865 81.8568 63.6912 80.5286L66.0387 50.7464C81.8057 55.7576 93.5517 69.2701 96.3631 85.5277Z" fill="#FABD0C" fill-opacity="0.25"/>
<path d="M23.7775 34.549L37.9056 35.6626C40.2737 35.8493 42.3521 34.0746 42.5387 31.7068L43.6523 17.5787C43.839 15.2106 42.0643 13.1322 39.6963 12.9456L25.5681 11.8319C23.2004 11.6453 21.1219 13.42 20.9353 15.7881L19.8217 29.9162C19.635 32.2839 21.4097 34.3624 23.7775 34.549ZM24.9658 16.1055C24.9773 15.9598 25.1048 15.8507 25.2505 15.8621L39.3786 16.9758C39.5242 16.9872 39.6334 17.1151 39.6219 17.2607L38.5083 31.3889C38.4968 31.5345 38.369 31.6434 38.2233 31.6319L24.0952 30.5183C23.9496 30.5068 23.8407 30.379 23.8522 30.2336L24.9658 16.1055Z" fill="#FABD0C" fill-opacity="0.25"/>
<path d="M116.873 111.583C110.15 111.053 104.251 116.09 103.721 122.812C103.356 127.444 105.597 131.82 109.571 134.232C110.525 134.812 111.769 134.508 112.348 133.554C112.927 132.599 112.624 131.356 111.669 130.776C109.009 129.161 107.507 126.231 107.751 123.13C108.106 118.63 112.055 115.258 116.555 115.613C121.055 115.967 124.427 119.917 124.072 124.416C123.826 127.54 121.777 130.287 118.851 131.415C117.809 131.817 117.291 132.987 117.692 134.029C117.981 134.779 118.67 135.258 119.421 135.317C119.713 135.34 120.014 135.3 120.306 135.187C124.674 133.503 127.735 129.4 128.103 124.734C128.632 118.012 123.595 112.112 116.873 111.583Z" fill="#FABD0C" fill-opacity="0.25"/>
</g>
<defs>
<clipPath id="clip0_1191_127">
<rect width="138" height="138" fill="white" transform="translate(10.8438) rotate(4.50692)"/>
</clipPath>
</defs>
</svg>
